<svg width="50" height="50" viewBox="0 0 50 50" fill="none" xmlns="http://www.w3.org/2000/svg">
<g clip-path="url(#clip0_36_621)">
<path d="M25 50C38.8071 50 50 38.8071 50 25C50 11.1929 38.8071 0 25 0C11.1929 0 0 11.1929 0 25C0 38.8071 11.1929 50 25 50Z" fill="#FA305C"/>
<path d="M25.0008 43.4537C35.1924 43.4537 43.4542 35.1919 43.4542 25.0003C43.4542 14.8088 35.1924 6.54688 25.0008 6.54688C14.8093 6.54688 6.54736 14.8088 6.54736 25.0003C6.54736 35.1919 14.8093 43.4537 25.0008 43.4537Z" fill="white"/>
<path fill-rule="evenodd" clip-rule="evenodd" d="M25.0008 42.3011C34.5558 42.3011 42.3016 34.5553 42.3016 25.0003C42.3016 15.4453 34.5558 7.69949 25.0008 7.69949C15.4458 7.69949 7.69998 15.4453 7.69998 25.0003C7.69998 34.5553 15.4458 42.3011 25.0008 42.3011ZM43.4542 25.0003C43.4542 35.1919 35.1924 43.4537 25.0008 43.4537C14.8093 43.4537 6.54736 35.1919 6.54736 25.0003C6.54736 14.8088 14.8093 6.54688 25.0008 6.54688C35.1924 6.54688 43.4542 14.8088 43.4542 25.0003Z" fill="white"/>
<path d="M22.2377 32.6624C22.2377 32.7843 22.2138 32.9354 22.1661 33.1157C22.0175 33.683 21.922 34.0064 21.8795 34.086C21.7362 34.3935 21.5001 34.6135 21.1712 34.7461C21.4099 34.8734 21.5293 35.0669 21.5293 35.3267C21.5293 35.4328 21.5108 35.5547 21.4736 35.6925L21.2746 36.4242C21.1526 36.8643 20.9775 37.1851 20.7493 37.3866C20.5052 37.604 20.1604 37.7126 19.7147 37.7126H15.4009L16.937 31.9863H21.2667C21.914 31.9863 22.2377 32.2117 22.2377 32.6624ZM20.2956 33.4657H18.3139L18.107 34.2291H20.0887L20.2956 33.4657ZM19.7863 35.3744H17.8045L17.5975 36.1459H19.5794L19.7863 35.3744ZM28.3694 31.9863L27.9715 33.4657H24.9789L24.7799 34.2133H27.3665L27.0402 35.4222H24.4536L23.8408 37.7126H22.042L23.5781 31.9863H28.3694ZM34.5779 31.9863L34.18 33.4657H30.7019L29.9776 36.1618H31.9514L32.4608 34.2769H34.2357L33.7264 36.1618C33.5565 36.7821 33.3098 37.201 32.9861 37.4184C32.689 37.6146 32.2061 37.7126 31.5376 37.7126H29.5637C29.1233 37.7126 28.8024 37.6756 28.6007 37.6013C28.2558 37.4794 28.0834 37.2434 28.0834 36.8935C28.0834 36.7026 28.1231 36.4587 28.2028 36.1618L28.927 33.4657C29.0862 32.8718 29.3382 32.4688 29.6831 32.2567C29.9802 32.0764 30.4525 31.9863 31.0998 31.9863H34.5779Z" fill="#080C1B"/>
<path d="M14.0227 20.319C12.4941 23.6416 11.9326 26.1259 11.9326 26.1259C11.9326 26.1259 18.8159 25.4172 23.3584 30.6151C23.3584 30.6151 26.8419 29.0479 31.8825 30.7015C31.8825 30.7015 34.7251 27.1168 38.2817 27.0388C38.2817 27.0388 37.677 24.1817 35.5088 21.8082C35.9756 20.7218 36.202 19.3218 36.202 19.3218C36.202 19.3218 35.8446 18.312 33.5623 16.2048C33.4926 12.4521 31.3029 10.6055 31.3029 10.6055C31.3029 10.6055 29.1068 11.5023 27.8236 13.4626C27.8236 13.4626 25.5384 13.5051 23.6831 14.0403L22.3162 14.1162C22.3162 14.1162 21.4536 12.4048 18.2753 11.3762C18.2753 11.3762 15.8369 12.0515 15.6098 17.4465C15.6098 17.4465 14.2763 17.1406 13.2271 20.3162C13.2285 20.319 13.3343 20.3504 14.0227 20.319Z" fill="#080C1B"/>
<path d="M22.2256 16.0804C20.6469 13.7808 18.4878 12.9961 18.4878 12.9961C18.4878 12.9961 16.8464 14.1662 17.2623 16.8651C17.5591 15.332 18.4391 14.5745 18.4391 14.5745C18.4391 14.5745 19.4883 15.3522 19.9251 16.9292C20.362 18.5062 22.2256 16.0804 22.2256 16.0804Z" fill="#5F5F68"/>
<path d="M25.4533 14.8779C19.2186 14.8779 16.5725 18.85 16.5725 18.85C16.9522 18.7289 17.3553 18.6995 17.7486 18.7643C17.7486 18.7643 15.4314 21.096 14.2783 24.2765C14.2783 24.2765 17.1487 23.9281 19.5356 25.4444C18.949 20.4786 23.5186 18.7044 25.1746 19.8779C24.9475 19.2222 24.1533 18.1692 22.0534 18.6236C23.922 16.6807 27.6305 17.517 29.5269 19.8654C29.6595 19.4991 29.7474 19.1182 29.7889 18.7309C29.7889 18.7309 30.8687 19.296 31.1718 20.2082C31.2415 19.6068 31.7368 18.8786 31.7368 18.8786C31.7368 18.8786 32.1437 19.4061 32.4112 20.3162C32.6089 20.0469 32.8756 19.8361 33.1831 19.7059C33.4907 19.5758 33.8277 19.5312 34.1586 19.5769C34.1586 19.5769 31.6881 14.8779 25.4533 14.8779Z" fill="#5F5F68"/>
<path d="M22.0534 18.6211C19.3613 19.3688 17.699 21.3716 17.0371 24.4489C17.922 24.6292 18.7678 24.9657 19.5348 25.4426C18.9482 20.4769 23.5178 18.7026 25.1738 19.8761C24.9509 19.2204 24.1532 18.1667 22.0534 18.6211Z" fill="white"/>
<path d="M28.2676 15.2285C29.9222 15.9254 31.542 16.8034 32.6136 19.1581L33.2734 19.6717C33.557 19.5721 33.8599 19.5399 34.1582 19.5776C34.1582 19.5776 32.4436 16.3177 28.2676 15.2285Z" fill="#636363"/>
<path d="M32.7822 21.1662C33.1187 20.3997 33.7506 20.3711 33.7506 20.3711C33.7012 20.8494 33.5557 21.3128 33.3228 21.7334C33.1813 21.5109 32.9977 21.3182 32.7822 21.1662Z" fill="white"/>
<path d="M26.23 21.9776C29.8688 22.6424 30.2304 26.8696 32.3289 26.8696C33.6038 26.8696 34.0657 26.1246 34.0657 26.1246C33.2436 26.2347 32.648 25.5156 32.6027 25.0243C32.5574 24.533 32.6668 23.8933 32.6668 23.8933C32.6668 23.8933 33.7815 23.9469 34.2629 24.3197C34.7088 24.0647 35.278 24.0097 35.278 24.0097C35.278 24.0097 34.6795 23.0626 33.1127 22.6069C32.9127 23.0571 32.409 23.4766 32.409 23.4766C32.409 23.4766 31.4211 21.9149 29.0384 21.3525C29.2067 21.6625 29.3105 22.0034 29.3435 22.3546C29.3435 22.3546 28.2462 21.4898 26.23 21.9776Z" fill="white"/>
<path d="M26.0938 23.9477C25.6674 23.4682 25.758 23.0048 25.758 23.0048C25.758 23.0048 25.967 22.7881 26.5878 22.7881C27.9073 22.7881 29.0959 25.1372 30.152 26.1267C28.6367 25.5971 25.9147 27.172 25.4048 24.2368C25.8743 25.0633 26.5285 25.0689 26.5285 25.0689C26.4348 24.8553 26.4017 24.6199 26.4331 24.3888C26.8385 24.8243 27.6572 24.8396 27.6572 24.8396C26.8142 24.2348 26.4567 23.1672 26.4567 23.1672C26.1467 23.4766 26.0938 23.9477 26.0938 23.9477Z" fill="white"/>
<path d="M25.7377 22.1867C23.6706 22.8341 24.8752 27.0584 27.6606 26.7351C30.4459 26.4117 31.6401 27.2382 32.1306 28.5149C31.3596 28.0227 30.4639 27.7613 29.5493 27.7615C29.7738 27.8607 29.9715 28.0119 30.1259 28.2026C30.2804 28.3934 30.3872 28.6181 30.4376 28.8584C29.9353 28.3805 29.2672 28.1162 28.5739 28.1211C27.09 28.1211 25.5579 28.6703 24.2822 28.1316C22.916 26.2793 23.4734 24.4571 23.4734 24.4571C22.8798 24.7776 22.7544 25.4452 22.7544 25.4452C22.7544 25.4452 22.3489 22.1581 25.7377 22.1867Z" fill="white"/>
<path d="M32.13 28.5169C29.2004 25.0124 24.4448 30.0389 23.4729 24.457C23.4729 24.457 22.9155 26.2793 24.2817 28.1316C25.5574 28.6702 27.0894 28.1211 28.5734 28.1211C29.2661 28.1165 29.9337 28.3808 30.4357 28.8584C30.3855 28.6183 30.2788 28.3936 30.1246 28.2029C29.9704 28.0122 29.773 27.8608 29.5487 27.7616C30.4636 27.7619 31.3593 28.024 32.13 28.5169Z" fill="white"/>
<path d="M25.9082 18.833C26.4084 19.98 26.9734 20.626 26.9734 20.626C26.9734 20.626 27.6702 20.7229 28.2972 20.4316C28.2979 20.4316 27.6221 19.2657 25.9082 18.833Z" fill="white"/>
<path d="M27.6816 15.0928C29.3384 15.7889 30.3835 16.6314 31.0105 18.6077L31.9921 18.8328C32.3872 19.561 33.8203 19.5387 34.156 19.5771C34.1582 19.5771 32.2646 15.9506 27.6816 15.0928Z" fill="#FA305C"/>
<path d="M29.5571 13.9199C30.1479 12.8565 30.931 12.6475 30.931 12.6475C30.931 12.6475 31.9531 13.8928 32.0186 15.9498C31.4169 15.4946 30.7476 15.1365 30.035 14.8885C30.4252 14.8516 30.8187 14.8991 31.1888 15.0279C31.1453 14.4045 30.928 13.8059 30.5618 13.2997C30.5618 13.2997 30.1778 13.3896 29.5571 13.9199Z" fill="#FA305C"/>
<path d="M34.2984 25.6631C34.6511 25.3376 34.9409 24.9499 35.1533 24.5195C34.917 24.5637 34.688 24.6401 34.4726 24.7467C34.3508 25.0365 34.2914 25.3488 34.2984 25.6631Z" fill="#FA305C"/>
<path d="M31.3086 10.1992L31.0201 10.3386C30.6693 10.5045 30.3299 10.6938 30.0043 10.9051C29.6808 11.1152 29.3702 11.3447 29.0742 11.5923C28.7795 11.8383 28.4985 12.1005 28.2326 12.3776C28.0996 12.517 27.97 12.6563 27.8446 12.8055C27.7818 12.8752 27.7205 12.9525 27.6599 13.0284C27.6599 13.0284 24.9184 13.0236 23.6846 14.0459C25.6527 13.5908 28.0417 14.0417 28.0417 14.0417L28.2194 13.7922C28.2375 13.7671 28.2653 13.7295 28.289 13.6974L28.3678 13.5964C28.4214 13.5267 28.4771 13.4619 28.5336 13.3957C28.6465 13.2633 28.7649 13.1337 28.8861 13.0068C29.1283 12.754 29.3841 12.5146 29.6525 12.2898C29.9215 12.0638 30.2039 11.8544 30.4983 11.6626C30.6982 11.5323 30.9052 11.4131 31.1155 11.3023C31.3615 11.5734 31.5849 11.864 31.7837 12.1713C31.9119 12.3706 32.0289 12.5776 32.1376 12.7895C32.2463 13.0013 32.3411 13.2194 32.4267 13.4417C32.598 13.8887 32.7277 14.3506 32.8141 14.8215C32.858 15.057 32.8908 15.2946 32.9117 15.5323C32.9228 15.6507 32.9298 15.7692 32.9346 15.887C32.9346 15.9459 32.936 16.0045 32.9388 16.0626V16.1483V16.2236L32.9318 16.4849L33.1457 16.6319L33.184 16.6584L33.2293 16.6905L33.3206 16.7601C33.3819 16.8068 33.4432 16.8563 33.5031 16.9065C33.623 17.0075 33.7393 17.1155 33.8515 17.2249C34.078 17.4461 34.2876 17.6839 34.4785 17.9364C34.6676 18.1869 34.8361 18.4524 34.9823 18.7302C35.1082 18.9717 35.2153 19.2226 35.3027 19.4806C35.2651 19.6493 35.2268 19.8173 35.1808 19.9845C35.1271 20.1901 35.0645 20.3942 34.9996 20.5963C34.9349 20.7984 34.8603 20.9991 34.783 21.1963C34.7446 21.2953 34.7036 21.3921 34.6617 21.489L34.5983 21.6284C34.5774 21.6744 34.5531 21.7252 34.5349 21.7608L34.3468 22.1357L34.7001 22.3552C35.0774 22.5908 35.429 22.8652 35.7493 23.174C35.8301 23.25 35.9054 23.3308 35.982 23.4102C36.0586 23.4897 36.1311 23.574 36.1993 23.6604C36.3396 23.8303 36.4688 24.009 36.586 24.1956C36.94 24.7534 37.1845 25.3735 37.3064 26.0228C37.3252 26.1301 37.342 26.2374 37.3531 26.344C37.3534 26.3463 37.3534 26.3487 37.3531 26.351C37.0744 26.4643 36.8032 26.59 36.5393 26.728C36.1696 26.9249 35.8127 27.1448 35.4706 27.3865C35.1302 27.6254 34.8045 27.8847 34.4952 28.1629C34.1881 28.4362 33.9015 28.7318 33.6376 29.0471C33.9511 28.789 34.2831 28.5542 34.6311 28.3447C34.9743 28.1354 35.3298 27.9469 35.6956 27.7802C36.0565 27.6159 36.4274 27.4746 36.8062 27.3573C37.1788 27.2427 37.559 27.1542 37.9439 27.0924L38.2846 27.0381V26.6012V26.5475L38.2797 26.4451C38.2755 26.3753 38.2692 26.312 38.263 26.2465C38.2483 26.1155 38.2289 25.9865 38.2058 25.859C38.1585 25.6045 38.0948 25.3533 38.0149 25.1071C37.8565 24.6156 37.6364 24.1461 37.3601 23.7099C37.2229 23.4914 37.0718 23.2819 36.9079 23.0827C36.8284 22.9817 36.7407 22.8876 36.6557 22.7914C36.5707 22.6953 36.4787 22.6047 36.3854 22.5169C36.1138 22.2574 35.8224 22.0195 35.5138 21.8054C35.5535 21.7134 35.5918 21.6214 35.6274 21.5267C35.7124 21.312 35.7907 21.0953 35.8621 20.8765C35.9318 20.6577 36.0015 20.4381 36.0586 20.2152C36.1158 19.9921 36.1701 19.7692 36.2181 19.5441L36.2433 19.4298L36.207 19.3169C36.0979 18.9677 35.958 18.6289 35.789 18.3043C35.6201 17.9829 35.4254 17.6757 35.2065 17.3859C34.9886 17.0976 34.7497 16.8258 34.4918 16.5727C34.3629 16.4465 34.2305 16.3246 34.0911 16.2082C34.0215 16.1497 33.9518 16.0926 33.878 16.0361L33.8522 16.0166C33.8522 15.9615 33.8522 15.9058 33.8487 15.8507C33.8431 15.7155 33.8355 15.5817 33.8229 15.448C33.7992 15.1811 33.7623 14.917 33.7142 14.6542C33.6173 14.128 33.4722 13.6118 33.2809 13.1121C33.184 12.8619 33.0719 12.6173 32.9542 12.3769C32.8326 12.1379 32.6989 11.9053 32.5536 11.6801C32.1903 11.1451 31.7731 10.6489 31.3086 10.1992Z" fill="#FA305C"/>
<path d="M34.1196 19.5031L34.0674 19.4014L34.1196 19.5031Z" fill="white"/>
<path d="M34.1323 19.5291L34.1182 19.5029L34.1323 19.5291Z" fill="white"/>
<path d="M34.1411 19.5419C34.1411 19.5368 34.136 19.5317 34.1338 19.5273L34.1411 19.5419Z" fill="white"/>
<path d="M34.1596 19.5796L34.1406 19.543C34.1469 19.5543 34.1526 19.5662 34.1596 19.5796Z" fill="white"/>
<path d="M31.9941 19.2972C32.1683 19.6223 32.3084 19.9647 32.4122 20.3187C32.6096 20.0491 32.8764 19.8379 33.1841 19.7076C33.4919 19.5773 33.8291 19.5328 34.1602 19.5786C33.235 18.9564 32.3829 19.1501 31.9941 19.2972Z" fill="white"/>
<path d="M29.7921 18.7314C27.5752 15.9948 22.6691 15.3349 19.481 18.8052C20.0174 18.4742 20.9642 18.2847 22.049 18.6254L22.0608 18.6192C23.9321 16.6861 27.6344 17.5251 29.5273 19.8673C29.6609 19.5007 29.7498 19.1193 29.7921 18.7314Z" fill="white"/>
<path d="M22.2522 29.4771C21.8537 29.1246 21.435 28.7956 20.9982 28.4918C20.12 27.8811 19.1818 27.3618 18.1982 26.9419C17.2092 26.5191 16.1829 26.1894 15.1327 25.9573C14.2584 25.7634 13.3717 25.6308 12.479 25.5601C12.5605 25.2263 12.6518 24.8953 12.7577 24.5677C13.0752 23.5816 13.491 22.63 13.9992 21.7274C14.126 21.5025 14.2586 21.2811 14.397 21.0633C14.4666 20.9552 14.5363 20.8479 14.606 20.7427L14.7154 20.5866C14.7509 20.5371 14.7913 20.4821 14.822 20.4416L15.449 19.6326L14.4346 19.7086L13.9755 19.742C13.9781 19.7378 13.9812 19.7338 13.9846 19.7302C14.1632 19.4919 14.3552 19.264 14.5593 19.0472C14.7649 18.827 14.9815 18.6145 15.2052 18.4082C15.3174 18.3058 15.4309 18.204 15.5459 18.1051C15.6608 18.0061 15.7813 17.9065 15.8942 17.82L16.0753 17.6807L16.067 17.4472C16.067 17.3866 16.067 17.3079 16.067 17.2382C16.067 17.1685 16.067 17.0933 16.0732 17.0201C16.0788 16.8737 16.0885 16.7274 16.0997 16.5803C16.1234 16.2872 16.1578 15.995 16.2028 15.7037C16.2902 15.1251 16.4271 14.5551 16.6118 13.9999C16.7921 13.4548 17.039 12.934 17.3468 12.4494C17.6026 12.0486 17.9162 11.6879 18.2776 11.379C18.5818 11.5012 18.8807 11.6343 19.1743 11.7783C19.544 11.9598 19.904 12.1605 20.2527 12.3797C20.601 12.5974 20.9364 12.835 21.2574 13.0912C21.4162 13.2187 21.5709 13.3511 21.7193 13.4884C21.7936 13.5567 21.8658 13.6263 21.9359 13.6975L22.0384 13.8041L22.0865 13.8563L22.1268 13.9023L22.3191 14.1197C20.7202 11.3483 18.1278 10.3477 18.1278 10.3477L17.9278 10.4968C17.3966 10.8993 16.9415 11.3934 16.5839 11.956C16.2356 12.5037 15.9566 13.0927 15.7535 13.7093C15.5512 14.3141 15.4015 14.9352 15.3062 15.5658C15.2597 15.8793 15.2228 16.1938 15.1954 16.5093C15.1829 16.6675 15.1724 16.8256 15.1662 16.9845C15.1662 17.064 15.1606 17.1441 15.1592 17.2243V17.2438C15.0895 17.3009 15.0199 17.3581 14.9537 17.4166C14.8301 17.5225 14.7087 17.6303 14.5893 17.7399C14.351 17.9602 14.1183 18.1887 13.8926 18.4277C13.6661 18.6696 13.4533 18.9238 13.2551 19.1894C13.0463 19.4644 12.8652 19.7595 12.7145 20.0702L12.38 20.7734L13.1597 20.7155L13.5631 20.6856C13.44 20.883 13.3213 21.0823 13.2071 21.2834C12.669 22.2394 12.2284 23.2471 11.8917 24.2911C11.724 24.8147 11.5844 25.3469 11.4737 25.8855L11.3643 26.4297H11.9119C12.9476 26.4105 13.9831 26.4764 15.008 26.6269C16.0374 26.7785 17.0503 27.0258 18.0337 27.3656C19.0234 27.7062 19.9754 28.1476 20.8749 28.6827C21.3264 28.9512 21.7621 29.2456 22.1798 29.5642C22.6016 29.8819 22.9962 30.2344 23.3593 30.6179C23.0227 30.2075 22.6524 29.8259 22.2522 29.4771Z" fill="#080C1B"/>
<path d="M31.1552 17.4871C31.189 17.8665 31.1395 18.2487 31.0103 18.6069C30.5038 17.7707 29.1592 16.8711 29.1592 16.8711C29.1592 16.8711 29.2455 18.1505 28.916 19.0648L29.5807 19.7017C29.6816 19.3856 29.7505 19.0602 29.7862 18.7303C30.3886 19.0681 30.8717 19.5842 31.1691 20.2076C31.6164 19.6704 31.7342 18.8781 31.7342 18.8781C31.9617 19.2019 32.1447 19.5549 32.2783 19.9275L32.8705 19.623C32.4037 18.2753 31.1552 17.4871 31.1552 17.4871Z" fill="white"/>
<path d="M56.6422 2.15332L44.7002 9.42862L37.7422 18.6769L48.87 11.8702L56.6422 2.15332Z" fill="#FA305C"/>
<path d="M34.0511 2.46094L26.1946 7.2199L23.2866 12.0611L28.9379 8.81692L34.0511 2.46094Z" fill="white"/>
<path d="M21.0461 38.29L15.9462 40.823L11.6436 46.5282L18.5247 42.3291L21.0461 38.29Z" fill="white"/>
<path d="M23.2507 39.3242L11.3086 46.5995L4.35059 55.8478L15.4784 49.0411L23.2507 39.3242Z" fill="#FA305C"/>
<path d="M16.579 28.8662L-0.392137 39.2017L-10.2803 52.34L5.53373 42.6702L16.579 28.8662Z" fill="#FA305C"/>
<path d="M41.8177 -7.9082L28.3881 0.285129L20.5635 10.7004L33.0773 3.03477L41.8177 -7.9082Z" fill="#FA305C"/>
<path d="M50.1661 25C50.4632 25 50.7045 25.241 50.6984 25.538C50.5599 32.16 47.8691 38.4814 43.1757 43.1748C38.4825 47.868 32.161 50.5589 25.539 50.6974C25.2419 50.7036 25.001 50.4621 25.001 50.1651V48.1565C25.001 47.8595 25.2419 47.6193 25.5389 47.6123C31.3428 47.4743 36.8799 45.1086 40.9948 40.9938C45.1097 36.8789 47.4753 31.3418 47.6132 25.5379C47.6203 25.2409 47.8604 25 48.1575 25H50.1661Z" fill="white"/>
<path d="M25.0002 -0.165856C25.0002 -0.462926 24.7593 -0.704333 24.4622 -0.698125C17.8402 -0.559651 11.5187 2.13118 6.82546 6.82446C2.13216 11.5178 -0.558675 17.8392 -0.697148 24.4612C-0.703363 24.7583 -0.461952 24.9992 -0.164882 24.9992H1.84369C2.14076 24.9992 2.38092 24.7583 2.38797 24.4614C2.52588 18.6574 4.89156 13.1203 9.00641 9.00547C13.1213 4.89058 18.6584 2.5249 24.4624 2.387C24.7593 2.37994 25.0002 2.13979 25.0002 1.84271V-0.165856Z" fill="white"/>
</g>
<defs>
<clipPath id="clip0_36_621">
<rect width="50" height="50" fill="white"/>
</clipPath>
</defs>
</svg>
