<svg width="50" height="50" viewBox="0 0 50 50" fill="none" xmlns="http://www.w3.org/2000/svg">
<g clip-path="url(#clip0_36_604)">
<path d="M25.0001 50C38.8072 50 50.0001 38.8071 50.0001 25C50.0001 11.1929 38.8072 0 25.0001 0C11.1929 0 0 11.1929 0 25C0 38.8071 11.1929 50 25.0001 50Z" fill="#F3BA2F"/>
<path d="M18.9312 22.5063L25.0001 16.4375L31.072 22.5094L34.6032 18.9781L25.0001 9.375L15.4 18.975L18.9312 22.5063ZM9.375 25L12.9062 21.4688L16.4375 25L12.9062 28.5312L9.375 25ZM18.9312 27.4937L25.0001 33.5625L31.072 27.4906L34.6032 31.0204L25.0001 40.625L15.4 31.025L15.3953 31.0204L18.9312 27.4937ZM33.5626 25L37.0938 21.4688L40.6251 25L37.0938 28.5312L33.5626 25ZM28.5813 24.9969H28.5845V25L25.0001 28.5844L21.4203 25.0063L21.414 25L21.4203 24.9952L22.047 24.3671L22.3515 24.0625L25.0001 21.4156L28.5828 24.9983L28.5813 24.9969Z" fill="white"/>
</g>
<defs>
<clipPath id="clip0_36_604">
<rect width="50" height="50" fill="white"/>
</clipPath>
</defs>
</svg>
