<svg width="50" height="50" viewBox="0 0 50 50" fill="none" xmlns="http://www.w3.org/2000/svg">
<g clip-path="url(#clip0_36_682)">
<path d="M25 50C38.8069 50 50 38.8069 50 25C50 11.1931 38.8069 0 25 0C11.1931 0 0 11.1931 0 25C0 38.8069 11.1931 50 25 50Z" fill="#2A5ADA"/>
<path d="M25.0002 8.85449L21.999 10.5723L13.9386 15.2097L10.9375 16.9275V33.0735L13.9386 34.7914L25.0858 41.1464L28.0869 39.4287L36.0617 34.7914L39.0627 33.0735V16.9275L36.0617 15.2097L28.0013 10.5723L25.0002 8.85449ZM16.9398 29.7241V20.3625L25.0002 15.7252L33.0604 20.3625V29.7235L25.0002 34.3614L16.9398 29.7241Z" fill="#FFFDFA"/>
</g>
<defs>
<clipPath id="clip0_36_682">
<rect width="50" height="50" fill="white"/>
</clipPath>
</defs>
</svg>
