<svg width="50" height="50" viewBox="0 0 50 50" fill="none" xmlns="http://www.w3.org/2000/svg">
<g clip-path="url(#clip0_36_664)">
<path d="M25 50C38.8071 50 50 38.8071 50 25C50 11.1929 38.8071 0 25 0C11.1929 0 0 11.1929 0 25C0 38.8071 11.1929 50 25 50Z" fill="#172852"/>
<path d="M20.1379 11.172C23.0654 10.077 26.3604 10.0745 29.3429 10.9745C33.2254 12.1795 36.5029 15.1095 38.2154 18.787C38.6879 19.8345 39.1404 20.9269 39.1854 22.0919C37.0029 20.827 34.6104 20.007 32.2129 19.2595C28.3779 17.877 24.3629 16.917 20.7329 15.017C19.8879 14.512 18.8104 13.9945 18.5804 12.942C18.4879 12.032 19.4504 11.5245 20.1379 11.172Z" fill="#FFD83D"/>
<path d="M11.2996 20.0224C12.1471 17.7224 13.5371 15.5874 15.4246 14.0049C15.9046 17.9524 17.5846 21.7674 20.3596 24.6374C23.6871 28.0949 28.4271 30.2174 33.2496 30.1374C35.1646 30.1974 37.0371 29.7549 38.9046 29.3974C37.0671 36.0374 29.7896 40.4449 23.0471 39.3849C18.9771 38.8649 15.2196 36.4549 12.9521 33.0524C10.3946 29.2924 9.7496 24.2999 11.2996 20.0224Z" fill="#FFD83D"/>
<path d="M32.2124 19.2598C34.6099 20.0073 37.0024 20.8273 39.1849 22.0923L39.3324 22.1698C39.5349 23.6923 39.6824 25.2448 39.4124 26.7698C38.3149 26.3048 37.4249 25.4873 36.4949 24.7648C34.7049 23.2748 32.8774 21.5698 32.2124 19.2598Z" fill="#FF6F03"/>
</g>
<defs>
<clipPath id="clip0_36_664">
<rect width="50" height="50" fill="white"/>
</clipPath>
</defs>
</svg>
