<svg width="50" height="50" viewBox="0 0 50 50" fill="none" xmlns="http://www.w3.org/2000/svg">
<path d="M24.9998 48.0767C37.7446 48.0767 48.0767 37.7446 48.0767 24.9998C48.0767 12.2549 37.7446 1.92285 24.9998 1.92285C12.2549 1.92285 1.92285 12.2549 1.92285 24.9998C1.92285 37.7446 12.2549 48.0767 24.9998 48.0767Z" fill="url(#paint0_linear_36_591)"/>
<path d="M22.5178 23.1904C22.6516 23.0125 22.7491 22.8102 22.8049 22.5946C22.8536 22.3863 22.8659 22.1711 22.8409 21.9586L22.8228 21.8021L22.7407 21.7007L21.6345 20.4359L21.2309 19.9819L19.7136 18.289L16.6732 14.9119L10.5762 8.17285L19.1629 18.7612L20.9151 20.9432L21.7241 21.9632C21.7916 22.0509 21.827 22.1588 21.8245 22.2694C21.8212 22.3798 21.7809 22.4863 21.7093 22.5702C21.6414 22.6484 21.5572 22.7109 21.4626 22.7532C21.3682 22.7954 21.2657 22.8161 21.1622 22.8138C21.0589 22.8117 20.9572 22.7867 20.8647 22.7405C20.772 22.6944 20.6907 22.6286 20.6261 22.5475L14.9703 15.5363L18.9083 22.6504C18.9767 22.7729 19.002 22.9148 18.9801 23.0534C18.9582 23.1921 18.8902 23.3194 18.7873 23.4148C18.5907 23.5948 18.4266 23.8073 18.3019 24.0429C18.1194 24.4027 17.9951 24.789 17.9337 25.1877L17.8419 25.863L17.8006 26.1988C17.6297 27.3919 16.8568 28.5961 16.1199 29.5155L15.8542 29.8413C15.303 30.5098 14.7311 31.2048 14.5778 32.0736C14.4085 33.0344 14.6 34.0482 15.0128 34.9252C15.1687 35.2609 15.3687 35.5632 15.5698 35.8679L15.5703 35.8684L15.574 35.8736L15.7777 36.1861L15.7809 36.1919C15.8398 36.2923 16.3677 37.1967 16.1279 37.2332C18.5979 36.8429 20.3555 35.7255 20.5676 34.6609C20.827 33.3469 20.0393 32.8254 19.3253 32.3521C19.0695 32.1829 18.8239 32.0202 18.6382 31.8296C18.2478 31.4311 17.9539 31.045 17.8913 30.4688C17.8117 29.7209 18.0892 29.1623 18.3963 28.5442L18.3969 28.5436L18.3974 28.5427L18.5698 28.1894C18.8501 27.6125 19.0334 26.9934 19.1125 26.3569L19.1433 25.9171L19.1868 25.3761C19.2001 25.2613 19.2207 25.1477 19.2484 25.0355C19.3084 24.8102 19.4387 24.61 19.6207 24.464C19.8026 24.3182 20.0255 24.2355 20.2578 24.2265L20.2701 24.2254L20.4993 24.2042C20.8661 24.1642 21.2247 24.0694 21.5634 23.923C21.9403 23.7665 22.2691 23.5136 22.5172 23.1898L22.5178 23.1904ZM37.3476 24.9819L37.3416 24.9729C37.2495 24.8011 37.1445 24.6365 37.0276 24.4805C36.6834 24.0121 36.1899 23.6769 35.6291 23.53C35.2562 23.4332 34.8749 23.3729 34.4897 23.35L33.6366 23.3013L33.6228 23.3007L33.3014 23.2842C32.4961 23.2398 31.6716 23.1569 30.8664 22.9261L30.2695 22.73L29.9757 22.6115L29.6737 22.4688C29.2949 22.2604 28.9441 22.0046 28.6297 21.7077C28.0589 21.174 27.6001 20.574 27.1497 19.9846V19.984L27.0345 19.8332C26.5745 19.1939 26.0807 18.5796 25.5549 17.993C25.037 17.4187 24.4241 16.9378 23.7434 16.5713C23.0387 16.2148 22.2732 15.9951 21.4876 15.924C22.3024 15.8349 23.1274 15.9363 23.8972 16.2195C24.6743 16.5224 25.3841 16.9755 25.9878 17.5532C26.382 17.9246 26.7518 18.3203 27.0949 18.7394C29.6514 18.2339 31.7253 18.6827 33.3184 19.5542L33.3543 19.5723C33.8618 19.8488 34.3372 20.1804 34.772 20.5611C34.8407 20.6204 34.9076 20.6813 34.973 20.7442C35.3124 21.0577 35.6284 21.3955 35.9184 21.7554L35.9401 21.7846C36.8818 22.9819 37.3464 24.2265 37.3476 24.9807V24.9819ZM23.5437 26.6407C24.227 26.575 25.6839 26.2179 25.0324 25.0663C24.8924 24.8323 24.6891 24.6423 24.4466 24.5188C24.2043 24.3952 23.9316 24.3427 23.6605 24.368C23.3853 24.398 23.1261 24.5119 22.9178 24.6944C22.7099 24.8769 22.5624 25.1198 22.4961 25.3894C22.2939 26.1427 22.5082 26.7421 23.5437 26.6407ZM33.9926 28.1952H33.9932C36.2632 29.1209 38.442 30.009 38.3512 32.1713C39.3582 30.8567 39.7911 27.2854 36.8276 25.4471C35.572 24.6679 34.1347 24.4615 32.7962 24.27H32.7959C31.3199 24.0582 29.963 23.864 29.0982 22.9367C28.6949 26.0355 31.4032 27.14 33.9926 28.1952Z" fill="#FF007A"/>
<path d="M34.8547 20.6317L34.9777 20.7436L34.836 20.6163L34.7762 20.5607L34.8547 20.6317ZM21.6181 16.6758C22.27 16.7707 22.9352 17.0317 23.3645 17.5294C23.7937 18.027 23.9512 18.6742 24.0749 19.2896L24.1241 19.5294C24.2052 19.9282 24.2864 20.3288 24.4424 20.7055C24.5014 20.8492 24.5783 20.9813 24.6556 21.1134V21.114L24.7766 21.3273C24.8143 21.3988 24.8652 21.4673 24.9162 21.5357L24.9168 21.5369C24.9889 21.6344 25.0622 21.7325 25.0997 21.8407C25.1108 21.8675 25.115 21.8965 25.112 21.9251C25.1087 21.9538 25.0975 21.9813 25.0806 22.0048C24.8531 22.2578 24.2387 21.9765 24.0074 21.863C23.6074 21.6636 23.2489 21.3894 22.9518 21.054C22.0224 20.0175 21.5427 18.5262 21.572 17.1681C21.5783 17.0033 21.5937 16.8389 21.6181 16.6758ZM34 33.3665C32.9337 31.8009 31.861 30.2259 32.5258 28.3617C32.9904 28.6832 33.5316 28.9755 34.0891 29.2775C35.5268 30.0551 37.0752 30.8923 37.7177 32.4376C38.7374 34.8805 37.5708 37.9596 35.1135 38.9786C36.3783 36.8582 35.1931 35.1188 34 33.3671V33.3665ZM24.0731 33.5282C24.457 33.2376 24.8768 32.998 25.322 32.8153C25.7724 32.6342 26.2399 32.4988 26.7172 32.4111L27.6 32.2684C28.2366 32.175 28.8483 32.0853 29.3883 31.8667C29.7777 31.7142 30.1356 31.4913 30.4445 31.2094C30.7437 30.9303 30.9724 30.5834 31.1129 30.1984C31.2564 29.7915 31.3145 29.3596 31.2839 28.9294C31.2483 28.4673 31.1443 28.0128 30.975 27.5813C31.3262 27.9484 31.5816 28.3963 31.7189 28.8853C31.8562 29.3748 31.8714 29.8905 31.7629 30.3873C31.64 30.9125 31.3743 31.3938 30.9952 31.7776C30.6204 32.1486 30.1679 32.4319 29.6706 32.6069C29.1962 32.774 28.7014 32.8757 28.2 32.9103L27.2987 32.9632L26.7904 32.9888C25.8624 33.028 24.946 33.2098 24.0731 33.5278V33.5282ZM32.9989 40.5448L33.0381 40.5134L33.07 40.4875L33.0891 40.4726C32.7618 40.6217 32.4212 40.739 32.071 40.8211C31.9024 40.8582 31.7316 40.8827 31.5591 40.895L31.3083 40.889L31.0668 40.8546C29.8095 40.6344 29.6402 39.3686 29.4933 38.2715L29.3889 37.5867C29.3118 37.1934 29.1918 36.8098 29.0308 36.4428C28.8524 36.0515 28.6 35.6982 28.2875 35.4026C27.9725 35.1209 27.6108 34.8965 27.2185 34.7394C26.8445 34.5867 26.452 34.4842 26.0514 34.4359C25.2722 34.3405 24.4822 34.4015 23.7274 34.6148C22.9985 34.8196 22.3 35.1198 21.6499 35.5076C21.016 35.8919 20.4224 36.339 19.8779 36.8425C19.9204 36.803 20.1597 36.845 20.3066 36.8705H20.3072L20.4085 36.8869L20.9347 36.9719C21.2812 37.0378 21.6191 37.143 21.9416 37.2853C22.4099 37.5138 22.8331 37.8244 23.1916 38.2027L23.41 38.4328C23.5716 38.6465 23.7552 38.8425 23.9581 39.0175L24.1087 39.1469C24.4016 39.3834 24.7527 39.5363 25.1252 39.5898C25.3904 39.6227 25.6595 39.5946 25.9125 39.5082C26.037 39.4663 26.1562 39.4096 26.2674 39.3394C26.3799 39.2682 26.4818 39.1815 26.5697 39.0817C26.7352 38.8875 26.8456 38.6519 26.8897 38.4C26.9352 38.1582 26.9125 37.9086 26.8245 37.679C26.7395 37.4561 26.5714 37.2748 26.356 37.1734C26.5412 37.2992 26.6706 37.4928 26.7168 37.7125C26.7591 37.9226 26.7427 38.1405 26.6695 38.3421C26.6027 38.5352 26.4843 38.7065 26.3279 38.8377C26.2535 38.8996 26.1702 38.9501 26.0812 38.9882C25.992 39.0248 25.8989 39.0505 25.8037 39.0651C24.6833 39.254 23.8049 37.9188 24.4164 36.965C24.6493 36.6 25.042 36.4111 25.4604 36.358C26.487 36.2328 27.3639 36.9092 27.8758 37.7496C28.0966 38.1107 28.2604 38.5023 28.4239 38.8938L28.7449 39.6201C29.1877 40.5251 29.9443 41.3257 31.0154 41.3463C31.411 41.3494 31.8018 41.2603 32.157 41.0863C32.3275 41.0069 32.492 40.915 32.6489 40.8111C32.7724 40.7282 32.8864 40.6355 32.9989 40.5448Z" fill="#FF007A"/>
<defs>
<linearGradient id="paint0_linear_36_591" x1="48.0767" y1="1.92285" x2="1.92285" y2="48.0767" gradientUnits="userSpaceOnUse">
<stop stop-color="#FFE8F1"/>
<stop offset="1" stop-color="#FDFEFE"/>
</linearGradient>
</defs>
</svg>
