<svg width="165" height="32" viewBox="0 0 165 32" fill="none" xmlns="http://www.w3.org/2000/svg">
<path d="M52.2086 29.4638H48.3409L47.4722 31.8732H46.2168L49.7421 22.6414H50.8073L54.339 31.8732H53.0899L52.2086 29.4638ZM48.7086 28.462H51.8472L50.2747 24.1441L48.7086 28.462Z" fill="white"/>
<path d="M60.2433 31.8732H59.0703V22.1341H60.2433V31.8732Z" fill="white"/>
<path d="M66.9719 31.8732H65.7989V22.1341H66.9719V31.8732Z" fill="white"/>
<path d="M79.795 31.8732V25.9194H78.7108V25.0127H79.795V24.3089C79.795 23.5734 79.9916 23.0049 80.3847 22.6033C80.7778 22.2018 81.3336 22.001 82.0522 22.001C82.3228 22.001 82.5912 22.0369 82.8575 22.1088L82.7941 23.0598C82.5954 23.0218 82.3841 23.0028 82.16 23.0028C81.7796 23.0028 81.4858 23.1148 81.2787 23.3388C81.0716 23.5586 80.968 23.8757 80.968 24.2899V25.0127H82.4327V25.9194H80.968V31.8732H79.795Z" fill="white"/>
<path d="M86.9928 28.3796C86.9928 27.7075 87.1238 27.103 87.3859 26.5662C87.6522 26.0293 88.02 25.6151 88.4892 25.3234C88.9626 25.0318 89.5015 24.8859 90.106 24.8859C91.0402 24.8859 91.7947 25.2093 92.3696 25.856C92.9487 26.5028 93.2382 27.363 93.2382 28.4366V28.519C93.2382 29.1869 93.1093 29.7872 92.8514 30.3198C92.5978 30.8481 92.2322 31.2603 91.7545 31.5562C91.2811 31.8521 90.7358 32 90.1187 32C89.1887 32 88.4342 31.6766 87.8551 31.0299C87.2802 30.3832 86.9928 29.5272 86.9928 28.462V28.3796ZM88.1721 28.519C88.1721 29.2799 88.3475 29.8907 88.6984 30.3515C89.0535 30.8122 89.5269 31.0426 90.1187 31.0426C90.7147 31.0426 91.1881 30.8101 91.539 30.3451C91.8898 29.8759 92.0652 29.2207 92.0652 28.3796C92.0652 27.6271 91.8856 27.0185 91.5263 26.5535C91.1712 26.0843 90.6978 25.8497 90.106 25.8497C89.5269 25.8497 89.0598 26.0801 88.7047 26.5408C88.3497 27.0015 88.1721 27.661 88.1721 28.519Z" fill="white"/>
<path d="M101.596 26.0653C101.419 26.0357 101.226 26.0209 101.019 26.0209C100.25 26.0209 99.728 26.3485 99.4532 27.0037V31.8732H98.2802V25.0127H99.4215L99.4405 25.8053C99.8252 25.1924 100.37 24.8859 101.076 24.8859C101.305 24.8859 101.478 24.9155 101.596 24.9747V26.0653Z" fill="white"/>
<path d="M114.635 23.3515V25.0127H115.916V25.9194H114.635V30.1739C114.635 30.4487 114.692 30.6558 114.806 30.7953C114.92 30.9306 115.115 30.9982 115.39 30.9982C115.525 30.9982 115.711 30.9728 115.947 30.9221V31.8732C115.639 31.9577 115.339 32 115.047 32C114.523 32 114.128 31.8415 113.861 31.5245C113.595 31.2074 113.462 30.7573 113.462 30.1739V25.9194H112.213V25.0127H113.462V23.3515H114.635Z" fill="white"/>
<path d="M124.179 26.0653C124.001 26.0357 123.809 26.0209 123.602 26.0209C122.832 26.0209 122.31 26.3485 122.036 27.0037V31.8732H120.863V25.0127H122.004L122.023 25.8053C122.408 25.1924 122.953 24.8859 123.659 24.8859C123.887 24.8859 124.06 24.9155 124.179 24.9747V26.0653Z" fill="white"/>
<path d="M132.816 31.8732C132.748 31.7379 132.693 31.497 132.651 31.1504C132.106 31.7168 131.455 32 130.698 32C130.022 32 129.466 31.8098 129.031 31.4294C128.599 31.0447 128.384 30.5586 128.384 29.971C128.384 29.2567 128.654 28.7029 129.195 28.3098C129.741 27.9125 130.506 27.7138 131.491 27.7138H132.632V27.1749C132.632 26.7648 132.509 26.4394 132.264 26.1984C132.019 25.9532 131.658 25.8307 131.18 25.8307C130.762 25.8307 130.411 25.9363 130.127 26.1477C129.844 26.359 129.703 26.6148 129.703 26.9149H128.523C128.523 26.5725 128.644 26.2428 128.885 25.9258C129.13 25.6045 129.46 25.3509 129.874 25.1649C130.292 24.9789 130.751 24.8859 131.25 24.8859C132.04 24.8859 132.659 25.0846 133.108 25.4819C133.556 25.875 133.788 26.4182 133.805 27.1114V30.269C133.805 30.8989 133.885 31.3998 134.046 31.7717V31.8732H132.816ZM130.869 30.9792C131.237 30.9792 131.586 30.8841 131.915 30.6939C132.245 30.5036 132.484 30.2564 132.632 29.952V28.5444H131.713C130.275 28.5444 129.557 28.965 129.557 29.8062C129.557 30.1739 129.679 30.4614 129.925 30.6685C130.17 30.8756 130.485 30.9792 130.869 30.9792Z" fill="white"/>
<path d="M138.929 28.3859C138.929 27.3334 139.179 26.488 139.678 25.8497C140.176 25.2072 140.829 24.8859 141.637 24.8859C142.44 24.8859 143.076 25.1607 143.545 25.7102V22.1341H144.718V31.8732H143.64L143.583 31.1377C143.114 31.7126 142.461 32 141.624 32C140.829 32 140.181 31.6745 139.678 31.0236C139.179 30.3726 138.929 29.523 138.929 28.4747V28.3859ZM140.102 28.519C140.102 29.2968 140.263 29.9055 140.584 30.3451C140.906 30.7847 141.349 31.0045 141.916 31.0045C142.66 31.0045 143.203 30.6706 143.545 30.0027V26.8515C143.194 26.2048 142.656 25.8814 141.928 25.8814C141.354 25.8814 140.906 26.1033 140.584 26.5471C140.263 26.991 140.102 27.6483 140.102 28.519Z" fill="white"/>
<path d="M152.962 32C152.032 32 151.276 31.6957 150.692 31.087C150.109 30.474 149.817 29.6561 149.817 28.6332V28.4176C149.817 27.737 149.946 27.1305 150.204 26.5979C150.466 26.061 150.83 25.6426 151.295 25.3424C151.764 25.0381 152.271 24.8859 152.816 24.8859C153.708 24.8859 154.402 25.1797 154.896 25.7673C155.391 26.3548 155.638 27.196 155.638 28.2908V28.779H150.99C151.007 29.4553 151.204 30.0027 151.58 30.4212C151.96 30.8355 152.442 31.0426 153.026 31.0426C153.44 31.0426 153.791 30.958 154.078 30.789C154.366 30.6199 154.617 30.3958 154.833 30.1169L155.549 30.6748C154.974 31.5583 154.112 32 152.962 32ZM152.816 25.8497C152.343 25.8497 151.946 26.023 151.624 26.3696C151.303 26.712 151.104 27.1939 151.028 27.8152H154.465V27.7265C154.431 27.1305 154.271 26.6697 153.983 26.3442C153.696 26.0145 153.307 25.8497 152.816 25.8497Z" fill="white"/>
<path d="M163.888 26.0653C163.711 26.0357 163.518 26.0209 163.311 26.0209C162.542 26.0209 162.02 26.3485 161.745 27.0037V31.8732H160.572V25.0127H161.713L161.733 25.8053C162.117 25.1924 162.662 24.8859 163.368 24.8859C163.597 24.8859 163.77 24.9155 163.888 24.9747V26.0653Z" fill="white"/>
<path d="M76.7321 18.8879H70.7786C65.6021 18.8879 61.3857 14.5872 61.3857 9.40099C61.3857 4.21478 65.6021 0 70.7786 0L76.7321 0V2.36099H71.0523C67.0238 2.36099 63.7467 5.36901 63.7467 9.40099C63.7467 13.433 67.0238 16.5269 71.0523 16.5269H76.7321V18.8879Z" fill="#26BEFF"/>
<path d="M145.2 18.888H141.021C138.118 18.888 135.756 16.4385 135.756 13.5329C135.756 10.6272 138.118 8.26355 141.021 8.26355L142.839 8.26355V10.6245H141.021C139.226 10.6245 138.117 11.7363 138.117 13.5329C138.117 15.3294 139.226 16.527 141.021 16.527H145.2V18.888Z" fill="#26BEFF"/>
<path d="M144.625 10.6035H141.659V8.26345H144.61C146.298 8.26345 147.672 6.99068 147.672 5.30173C147.672 3.61278 146.298 2.36099 144.61 2.36099H141.659V0H144.625C147.548 0 149.923 2.37683 149.923 5.30173C149.923 8.22663 147.548 10.6035 144.625 10.6035Z" fill="#26BEFF"/>
<path d="M107.425 18.802H103.832C98.6558 18.802 94.4395 14.5872 94.4395 9.40099C94.4395 4.21478 98.6558 0 103.832 0H107.425V2.36099H104.106C100.078 2.36099 96.8004 5.36901 96.8004 9.40099C96.8004 13.433 100.078 16.5269 104.106 16.5269H107.425V18.802Z" fill="#26BEFF"/>
<path d="M59.0245 18.802H47.1038C46.5182 18.802 46.0391 18.3224 46.0391 17.7363V0H48.4V16.6707H59.0245V18.802Z" fill="#26BEFF"/>
<path d="M81.4538 0H79.0928V18.802H81.4538V0Z" fill="#26BEFF"/>
<path d="M92.0783 0H89.7173V18.802H92.0783V0Z" fill="#26BEFF"/>
<path d="M90.8979 8.35617H80.2734V10.6241H90.8979V8.35617Z" fill="#26BEFF"/>
<path d="M106.244 8.26355H96.1987V10.6245H106.244V8.26355Z" fill="#26BEFF"/>
<path d="M164.089 0H152.284V2.36099H164.089V0Z" fill="#26BEFF"/>
<path d="M133.396 0H131.035V18.8879H133.396V0Z" fill="#26BEFF"/>
<path d="M128.674 18.8879H126.313L126.313 9.64762C126.313 5.54601 123.184 2.36099 119.187 2.36099C115.19 2.36099 112.147 5.54601 112.147 9.64762L112.147 18.8879H109.786L109.786 9.64762C109.786 4.32765 114.003 0 119.187 0C124.371 0 128.674 4.32765 128.674 9.64762L128.674 18.8879Z" fill="#26BEFF"/>
<path d="M120.41 1.04443H118.049V17.7073H120.41V1.04443Z" fill="#26BEFF"/>
<path d="M159.367 0H157.006V18.8879H159.367V0Z" fill="#26BEFF"/>
<path d="M21.443 5.96867L37.025 31.8733H41.4756L23.0822 1.29615C22.0434 -0.432049 19.4417 -0.432049 18.4029 1.29615L0 31.8733H4.45062L20.0326 5.96867C20.3471 5.44747 21.1285 5.44747 21.443 5.96867Z" fill="#36A9E1"/>
<path d="M12.7089 31.8735L20.2935 18.9715C20.4855 18.6374 20.9743 18.6374 21.1751 18.9715L28.7597 31.8735H32.8357L21.5765 12.7346C21.2012 12.1007 20.2673 12.1007 19.9008 12.7346L8.6416 31.8735H12.7089Z" fill="#26BEFF"/>
<path d="M20.841 14.7106L30.396 31.8731H11.2861L20.841 14.7106Z" fill="#26BEFF"/>
</svg>
