<svg width="38" height="45" viewBox="0 0 38 45" fill="none" xmlns="http://www.w3.org/2000/svg">
<path d="M36.8827 35.2158C36.2368 36.7214 35.4389 38.1572 34.5014 39.5006C33.2489 41.2897 32.2204 42.5259 31.4321 43.214C30.2076 44.3383 28.8922 44.9167 27.4858 44.9494C26.4782 44.9494 25.2608 44.6625 23.8427 44.0794C22.42 43.4986 21.1139 43.214 19.9174 43.214C18.665 43.214 17.3216 43.4986 15.8825 44.0794C14.4458 44.6625 13.2843 44.968 12.3957 44.996C11.05 45.0544 9.70424 44.4619 8.36316 43.214C7.5072 42.4676 6.43667 41.1847 5.15157 39.37C3.7755 37.4364 2.64433 35.1855 1.75805 32.6267C0.8088 29.858 0.333008 27.1803 0.333008 24.5865C0.333008 21.6173 0.974394 19.0538 2.2595 16.9079C3.23149 15.2226 4.62108 13.816 6.2944 12.8237C7.94443 11.8339 9.82805 11.301 11.752 11.2796C12.8249 11.2796 14.2313 11.6108 15.9735 12.2639C17.7157 12.917 18.8352 13.2482 19.3227 13.2482C19.6912 13.2482 20.9297 12.8587 23.0381 12.0866C25.0275 11.3705 26.7068 11.0743 28.0829 11.1909C31.8146 11.4918 34.6157 12.9613 36.4792 15.611C33.144 17.6333 31.495 20.4627 31.5277 24.0944C31.5557 26.9237 32.5842 29.2772 34.5993 31.1456C35.4902 31.9982 36.5297 32.6804 37.6663 33.1585C37.4191 33.8746 37.1579 34.558 36.8827 35.2158ZM28.3301 1.55531C28.3301 3.7712 27.5184 5.84247 25.9068 7.75747C23.957 10.034 21.6014 11.3519 19.0475 11.1443C19.0141 10.8656 18.9977 10.5852 18.9985 10.3046C18.9985 8.17499 19.9221 5.89845 21.571 4.03478C22.392 3.09244 23.4369 2.30638 24.7033 1.68127C25.9675 1.06549 27.1616 0.724939 28.2858 0.666626C28.3161 0.965188 28.3301 1.26142 28.3301 1.55531Z" fill="black"/>
</svg>
