<svg width="24" height="24" viewBox="0 0 24 24" fill="none" xmlns="http://www.w3.org/2000/svg">
<path d="M23 13.2243C23 19.4459 18.5 23.9998 12 23.9998C5.5 23.9998 1 19.4459 1 13.2243C1 7.00263 5.92487 1.95898 12 1.95898C18.0751 1.95898 23 7.00263 23 13.2243Z" fill="white"/>
<path d="M24.0008 12.4747C23.9928 12.5205 23.982 12.5662 23.9794 12.6119C23.907 14.635 23.3337 16.5101 22.2995 18.24C20.9251 20.5321 19.0015 22.1893 16.5393 23.217C16.3223 23.3084 16.1026 23.3864 15.8829 23.4645C15.7355 23.5183 15.5855 23.521 15.4328 23.486C15.1836 23.4268 15.0229 23.2197 15.0068 22.9318C15.0041 22.8807 15.0068 22.8296 15.0068 22.7785C15.0122 21.7104 15.0202 20.6451 15.0229 19.577C15.0256 19.1627 14.972 18.7565 14.838 18.361C14.7175 18.0032 14.5406 17.6804 14.2647 17.4168C14.2566 17.4087 14.2513 17.3979 14.2299 17.3737C14.3531 17.3576 14.4656 17.3414 14.5781 17.3253C15.2828 17.2257 15.9767 17.0724 16.6384 16.8007C18.0986 16.1981 19.0202 15.122 19.4274 13.5966C19.5668 13.0801 19.6391 12.5528 19.6686 12.0174C19.6873 11.6757 19.6954 11.3368 19.6686 10.9951C19.5909 9.9728 19.2185 9.07156 18.5567 8.29139C18.5406 8.27256 18.5272 8.25372 18.5112 8.23758C18.4656 8.19723 18.4656 8.15688 18.4871 8.10038C18.5728 7.86095 18.6291 7.61075 18.6639 7.35787C18.7443 6.77946 18.696 6.20644 18.554 5.64417C18.5058 5.45585 18.4335 5.27022 18.3799 5.08191C18.3531 4.99044 18.2995 4.96353 18.2111 4.95546C17.9378 4.93663 17.6726 4.97429 17.41 5.04155C16.9063 5.17068 16.4348 5.37783 15.9847 5.63072C15.6927 5.79483 15.4087 5.97776 15.1247 6.15532C15.0631 6.19298 15.0149 6.20644 14.9398 6.1876C13.8735 5.89706 12.7858 5.77599 11.682 5.81097C10.8193 5.83787 9.96998 5.95624 9.13943 6.1876C9.06442 6.20913 9.00816 6.19836 8.94386 6.15532C8.39998 5.79213 7.83468 5.46661 7.22383 5.22987C6.91304 5.10881 6.5969 5.00927 6.26469 4.97429C6.12269 4.95815 5.97534 4.96622 5.83334 4.96353C5.761 4.96084 5.72349 4.99851 5.69938 5.06845C5.43682 5.77061 5.31626 6.48891 5.39396 7.2395C5.42343 7.53004 5.48237 7.81252 5.5815 8.08693C5.60561 8.15419 5.60025 8.19992 5.55203 8.25372C4.94118 8.9505 4.57145 9.75758 4.43749 10.675C4.38927 11.0086 4.37587 11.3475 4.38659 11.6838C4.40266 12.2246 4.45357 12.7626 4.57145 13.2953C4.72952 14.0082 4.9894 14.6754 5.42075 15.2672C5.92711 15.964 6.59958 16.4483 7.38458 16.7819C7.91505 17.0078 8.46964 17.1558 9.03495 17.2527C9.25732 17.2903 9.48237 17.3199 9.70742 17.3522C9.74225 17.3576 9.77708 17.3656 9.81726 17.3737C9.80655 17.3899 9.80387 17.406 9.79315 17.4141C9.44486 17.753 9.25196 18.1754 9.14211 18.6435C9.12068 18.7323 9.10461 18.8211 9.09389 18.9099C9.08585 18.9583 9.0671 18.9879 9.02155 19.0067C8.42142 19.2569 7.80521 19.378 7.15685 19.23C6.70407 19.1251 6.32899 18.891 6.01284 18.5547C5.85745 18.3879 5.72349 18.205 5.60293 18.0113C5.39396 17.6723 5.13676 17.3737 4.81526 17.1316C4.57145 16.9487 4.30353 16.8141 4.00079 16.7684C3.80521 16.7388 3.60963 16.7388 3.41941 16.7819C3.17292 16.8357 3.12202 16.9809 3.28009 17.1773C3.38726 17.3118 3.51854 17.4168 3.66589 17.4975C3.90166 17.6266 4.08652 17.8095 4.24727 18.0194C4.56073 18.4283 4.82329 18.8668 5.01619 19.3457C5.28679 20.0182 5.79047 20.4299 6.47098 20.6424C6.97467 20.7984 7.49175 20.8334 8.0115 20.793C8.31961 20.7688 8.62503 20.7231 8.93046 20.6854C8.95457 20.6827 8.97601 20.68 9.00816 20.6774C9.01083 20.7123 9.01619 20.7419 9.01619 20.7715C9.02155 21.471 9.02423 22.1678 9.02691 22.8672C9.02691 22.9372 9.02423 23.0098 9.00548 23.0771C8.9385 23.3461 8.71613 23.5048 8.40534 23.4994C8.30889 23.4967 8.20976 23.4806 8.11867 23.451C4.66254 22.2619 1.94051 19.5743 0.702731 16.1201C0.41606 15.321 0.22048 14.5005 0.107955 13.6585C0.0436552 13.1688 0.00614686 12.6738 0.000788522 12.1815C-0.00724899 11.4982 0.0463344 10.8175 0.153501 10.1423C0.343722 8.94781 0.70541 7.80983 1.23589 6.72566C2.80588 3.51617 5.77708 1.13798 9.22517 0.328212C9.95658 0.156035 10.696 0.0457345 11.4489 0.0188318C11.4917 0.0161416 11.5319 0.00538052 11.5748 0C11.8642 0 12.1535 0 12.4429 0C12.4857 0.00807079 12.5259 0.0188318 12.5688 0.0215221C12.7054 0.0295929 12.842 0.0349734 12.9787 0.0457345C13.7021 0.0995397 14.412 0.215221 15.1086 0.41161C18.4094 1.34244 20.901 3.31709 22.5594 6.3275C23.4435 7.93358 23.9204 9.66342 23.9794 11.5036C23.982 11.5466 23.9928 11.587 23.9981 11.63C24.0008 11.9098 24.0008 12.1923 24.0008 12.4747Z" fill="#4A5568"/>
</svg>
