<svg width="1440" height="136" viewBox="0 0 1440 136" fill="none" xmlns="http://www.w3.org/2000/svg">
<rect width="1440" height="136" fill="white"/>
<mask id="mask0_1238_3499" style="mask-type:alpha" maskUnits="userSpaceOnUse" x="0" y="0" width="1440" height="136">
<rect width="1440" height="136" fill="white"/>
</mask>
<g mask="url(#mask0_1238_3499)">
<path d="M718.007 111.466C478.168 164.117 128.736 89.5277 -16 45.6517V-1H1472V136C1347.08 86.5421 1017.81 45.6517 718.007 111.466Z" fill="#1B202B"/>
<path d="M1472 136C1347.06 86.4683 1017.7 45.5169 717.84 111.429C611.912 134.713 484.61 133.15 363 120.36C363 120.36 623.882 143.8 895.76 47.077C1167.64 -49.6463 1472 32.6466 1472 32.6466V136Z" fill="#003773"/>
<path d="M1472 135.999C1347.06 86.4676 1101.5 56.5 717.84 111.428C717.84 111.428 964.5 54.5 1105 41.9999C1245.5 29.4998 1472 78 1472 78V135.999Z" fill="#0094D3"/>
</g>
</svg>
