<svg width="24" height="24" viewBox="0 0 24 24" fill="none" xmlns="http://www.w3.org/2000/svg">
<circle cx="12" cy="12" r="12" fill="#4A5568"/>
<g clip-path="url(#clip0)">
<path d="M19.5 7.3701C19.0032 7.59494 18.4695 7.7469 17.9092 7.81526C18.4811 7.46538 18.9202 6.91133 19.127 6.25119C18.5833 6.5805 17.9885 6.81252 17.3683 6.93722C16.863 6.3878 16.1432 6.04443 15.3466 6.04443C13.817 6.04443 12.5768 7.31025 12.5768 8.87147C12.5768 9.09308 12.6013 9.30882 12.6485 9.51579C10.3467 9.39785 8.30586 8.27236 6.93978 6.56193C6.70142 6.97948 6.56484 7.46516 6.56484 7.9832C6.56484 8.96405 7.05384 9.82933 7.79698 10.3363C7.35715 10.3223 6.92699 10.201 6.54243 9.98269C6.54227 9.99453 6.54227 10.0064 6.54227 10.0183C6.54227 11.388 7.49697 12.5307 8.76397 12.7904C8.35611 12.9036 7.9283 12.9202 7.51321 12.8388C7.86564 13.962 8.88853 14.7793 10.1005 14.8022C9.15257 15.5604 7.95829 16.0124 6.66071 16.0124C6.43712 16.0124 6.21669 15.999 6 15.9729C7.22571 16.7751 8.68154 17.2431 10.2456 17.2431C15.3402 17.2431 18.126 12.9352 18.126 9.19933C18.126 9.07671 18.1233 8.95479 18.1179 8.83357C18.6602 8.43346 19.1282 7.93789 19.5 7.3701Z" fill="white"/>
</g>
<defs>
<clipPath id="clip0">
<rect width="13.5" height="11.25" fill="white" transform="translate(6 6)"/>
</clipPath>
</defs>
</svg>
