<svg width="18" height="18" viewBox="0 0 18 18" fill="none" xmlns="http://www.w3.org/2000/svg">
<g clip-path="url(#clip0_2365_99219)">
<path fill-rule="evenodd" clip-rule="evenodd" d="M3.11311 8.9353C3.11311 12.1363 5.70805 14.7312 8.90907 14.7312C11.9323 14.7312 14.4149 12.4165 14.6813 9.46268H17.4602C17.22 13.9268 13.5241 17.4726 9 17.4726C4.32067 17.4726 0.527344 13.6793 0.527344 8.99995C0.527344 4.52858 3.99098 0.866219 8.38161 0.549514V3.16305C5.42778 3.42951 3.11311 5.91208 3.11311 8.9353ZM9.43629 0.53833V3.16303C12.2165 3.41372 14.4306 5.62773 14.6813 8.40799H17.4523C17.1583 4.14865 13.7163 0.755431 9.43629 0.53833ZM8.90907 13.6765C6.29053 13.6765 4.16779 11.5538 4.16779 8.9353C4.16779 6.31677 6.29053 4.19406 8.90907 4.19406C11.5276 4.19406 13.6503 6.31677 13.6503 8.9353C13.6503 11.5538 11.5276 13.6765 8.90907 13.6765ZM9.54907 10.8131V11.3286H8.49438V10.7871L8.45728 10.7796C8.24079 10.7347 8.03247 10.6714 7.83232 10.5897C7.63218 10.5039 7.44837 10.4018 7.2809 10.2833L7.65464 9.55422C7.69141 9.59098 7.75676 9.64 7.85071 9.70127C7.94465 9.75845 8.05902 9.81768 8.19382 9.87895C8.32861 9.93614 8.47566 9.98515 8.63496 10.026C8.79426 10.0668 8.9556 10.0873 9.11899 10.0873C9.34773 10.0873 9.52132 10.0485 9.63978 9.97086C9.75823 9.89325 9.81746 9.78296 9.81746 9.64C9.81746 9.50929 9.77049 9.40718 9.67654 9.33365C9.58259 9.26013 9.45189 9.19682 9.28442 9.14372C9.11695 9.08653 8.91884 9.02526 8.6901 8.95991C8.41643 8.8823 8.18769 8.79652 8.00388 8.70257C7.82007 8.60454 7.68324 8.482 7.59337 8.33496C7.50351 8.18791 7.45858 8.0041 7.45858 7.78353C7.45858 7.48535 7.52802 7.23619 7.6669 7.03604C7.80986 6.83181 8.00184 6.67863 8.24283 6.57652C8.32369 6.54088 8.40754 6.51123 8.49438 6.48755V5.86515H9.54907V6.46789C9.5734 6.47306 9.59751 6.47864 9.6214 6.48461C9.80521 6.52955 9.97676 6.58877 10.1361 6.6623C10.2954 6.73582 10.4383 6.81547 10.5649 6.90125L10.1912 7.58747C10.1626 7.55887 10.1095 7.52007 10.0319 7.47105C9.95838 7.42204 9.86648 7.37507 9.75619 7.33013C9.64999 7.2852 9.53358 7.2464 9.40695 7.21372C9.28033 7.17696 9.15166 7.15858 9.02096 7.15858C8.79222 7.15858 8.61862 7.20147 8.50016 7.28725C8.38579 7.37302 8.32861 7.49352 8.32861 7.64874C8.32861 7.76719 8.36537 7.86114 8.43889 7.93058C8.51242 8.00002 8.6227 8.05924 8.76975 8.10826C8.9168 8.15727 9.10061 8.21038 9.32118 8.26756C9.6071 8.337 9.85422 8.42278 10.0625 8.52489C10.2749 8.62292 10.4363 8.75363 10.5466 8.91702C10.6609 9.07632 10.7181 9.28872 10.7181 9.55422C10.7181 9.78705 10.6752 9.98719 10.5895 10.1547C10.5037 10.3181 10.3852 10.4508 10.2341 10.5529C10.083 10.655 9.91141 10.7306 9.71943 10.7796C9.66368 10.7927 9.60689 10.8038 9.54907 10.8131Z" fill="#00BCD4"/>
</g>
<defs>
<clipPath id="clip0_2365_99219">
<rect width="18" height="18" fill="white"/>
</clipPath>
</defs>
</svg>
