<svg width="20" height="20" viewBox="0 0 20 20" fill="none" xmlns="http://www.w3.org/2000/svg">
<path d="M8.16663 7.33337H3.16663C2.52332 7.33337 2 6.81006 2 6.16663V3.16663C2 2.52332 2.52332 2 3.16663 2H8.16663C8.81006 2 9.33337 2.52332 9.33337 3.16663V6.16663C9.33337 6.81006 8.81006 7.33337 8.16663 7.33337ZM3.16663 3C3.07471 3 3 3.07471 3 3.16663V6.16663C3 6.25867 3.07471 6.33337 3.16663 6.33337H8.16663C8.25867 6.33337 8.33337 6.25867 8.33337 6.16663V3.16663C8.33337 3.07471 8.25867 3 8.16663 3H3.16663Z" fill="#1A64F0" stroke="#1A64F0" stroke-width="0.5"/>
<path d="M8.16663 18.0001H3.16663C2.52332 18.0001 2 17.4768 2 16.8335V9.8335C2 9.19006 2.52332 8.66675 3.16663 8.66675H8.16663C8.81006 8.66675 9.33337 9.19006 9.33337 9.8335V16.8335C9.33337 17.4768 8.81006 18.0001 8.16663 18.0001ZM3.16663 9.66675C3.07471 9.66675 3 9.74146 3 9.8335V16.8335C3 16.9254 3.07471 17.0001 3.16663 17.0001H8.16663C8.25867 17.0001 8.33337 16.9254 8.33337 16.8335V9.8335C8.33337 9.74146 8.25867 9.66675 8.16663 9.66675H3.16663Z" fill="#1A64F0" stroke="#1A64F0" stroke-width="0.5"/>
<path d="M16.8333 18.0001H11.8333C11.1898 18.0001 10.6665 17.4768 10.6665 16.8335V13.8335C10.6665 13.1901 11.1898 12.6667 11.8333 12.6667H16.8333C17.4766 12.6667 17.9999 13.1901 17.9999 13.8335V16.8335C17.9999 17.4768 17.4766 18.0001 16.8333 18.0001ZM11.8333 13.6667C11.7412 13.6667 11.6665 13.7415 11.6665 13.8335V16.8335C11.6665 16.9254 11.7412 17.0001 11.8333 17.0001H16.8333C16.9252 17.0001 16.9999 16.9254 16.9999 16.8335V13.8335C16.9999 13.7415 16.9252 13.6667 16.8333 13.6667H11.8333Z" fill="#1A64F0" stroke="#1A64F0" stroke-width="0.5"/>
<path d="M16.8333 11.3334H11.8333C11.1898 11.3334 10.6665 10.8101 10.6665 10.1666V3.16663C10.6665 2.52332 11.1898 2 11.8333 2H16.8333C17.4766 2 17.9999 2.52332 17.9999 3.16663V10.1666C17.9999 10.8101 17.4766 11.3334 16.8333 11.3334ZM11.8333 3C11.7412 3 11.6665 3.07471 11.6665 3.16663V10.1666C11.6665 10.2587 11.7412 10.3334 11.8333 10.3334H16.8333C16.9252 10.3334 16.9999 10.2587 16.9999 10.1666V3.16663C16.9999 3.07471 16.9252 3 16.8333 3H11.8333Z" fill="#1A64F0" stroke="#1A64F0" stroke-width="0.5"/>
</svg>
