<svg width="18" height="18" viewBox="0 0 18 18" fill="none" xmlns="http://www.w3.org/2000/svg">
<path d="M15.1019 12.2034C13.5038 12.2034 12.2036 13.5035 12.2036 15.1016C12.2036 16.6997 13.5038 17.9999 15.1019 17.9999C16.7 17.9999 18.0001 16.6997 18.0001 15.1016C18.0001 13.5035 16.7 12.2034 15.1019 12.2034ZM13.558 14.7748C13.558 14.7748 14.7778 13.5549 14.7783 13.5545C14.95 13.3828 15.2484 13.3774 15.4254 13.5545L16.6457 14.7748C16.8245 14.9535 16.8245 15.2431 16.6457 15.4219C16.467 15.6006 16.1774 15.6006 15.9986 15.4219L15.5595 14.9827V16.3186C15.5595 16.5713 15.3545 16.7763 15.1019 16.7763C14.8492 16.7763 14.6442 16.5713 14.6442 16.3186V14.9827L14.2051 15.4219C14.0263 15.6006 13.7368 15.6006 13.558 15.4219C13.3792 15.2431 13.3792 14.9535 13.558 14.7748Z" fill="#00BD46"/>
<path d="M14.0871 11.429C14.4405 10.6921 14.6444 9.87036 14.6444 8.99992C14.6444 5.88775 12.1126 3.35596 9.00041 3.35596C5.88824 3.35596 3.35645 5.88775 3.35645 8.99992C3.35645 12.1121 5.88824 14.6439 9.00041 14.6439C9.87084 14.6439 10.6926 14.44 11.4295 14.0866C11.7853 12.7981 12.7986 11.7848 14.0871 11.429ZM8.63038 8.65909H9.24054C9.99757 8.65909 10.6134 9.27491 10.6134 10.0319C10.6134 10.7367 10.0776 11.3124 9.39308 11.3894V11.5573C9.39308 11.81 9.1881 12.015 8.93546 12.015C8.68282 12.015 8.47784 11.81 8.47784 11.5573V11.4048H7.71514C7.4625 11.4048 7.25752 11.1998 7.25752 10.9472C7.25752 10.6945 7.4625 10.4896 7.71514 10.4896H9.24054C9.49288 10.4896 9.69816 10.2843 9.69816 10.0319C9.69816 9.77961 9.49288 9.57433 9.24054 9.57433H8.63038C7.87334 9.57433 7.25752 8.95851 7.25752 8.20147C7.25752 7.49669 7.79331 6.92105 8.47784 6.84404V6.67608C8.47784 6.42344 8.68282 6.21846 8.93546 6.21846C9.1881 6.21846 9.39308 6.42344 9.39308 6.67608V6.82862H10.1558C10.4084 6.82862 10.6134 7.03359 10.6134 7.28624C10.6134 7.53888 10.4084 7.74386 10.1558 7.74386H8.63038C8.37804 7.74386 8.17276 7.94913 8.17276 8.20147C8.17276 8.45382 8.37804 8.65909 8.63038 8.65909Z" fill="#00BD46"/>
<path d="M9.00033 0C4.03974 0 0.000488281 4.03925 0.000488281 8.99984C0.000488281 13.9604 4.03974 17.9997 9.00033 17.9997C10.0864 17.9997 11.1359 17.8044 12.0999 17.4444C11.5947 16.8068 11.2999 16.0025 11.2915 15.138C10.577 15.4056 9.80712 15.559 9.00033 15.559C5.38347 15.559 2.44112 12.6167 2.44112 8.99984C2.44112 5.38298 5.38347 2.44063 9.00033 2.44063C12.6172 2.44063 15.5595 5.38298 15.5595 8.99984C15.5595 9.80667 15.4061 10.5765 15.1384 11.291C16.003 11.2994 16.8073 11.5942 17.4449 12.0995C17.8049 11.1354 18.0002 10.0859 18.0002 8.99984C18.0002 4.03925 13.9609 0 9.00033 0Z" fill="#00BD46"/>
</svg>
