<svg width="18" height="18" viewBox="0 0 18 18" fill="none" xmlns="http://www.w3.org/2000/svg">
<path d="M14.0871 11.4288C14.4405 10.6918 14.6444 9.87011 14.6444 8.99968C14.6444 5.88751 12.1126 3.35571 9.00041 3.35571C5.88824 3.35571 3.35645 5.88751 3.35645 8.99968C3.35645 12.1118 5.88824 14.6436 9.00041 14.6436C9.87084 14.6436 10.6926 14.4398 11.4295 14.0864C11.7853 12.7979 12.7986 11.7846 14.0871 11.4288ZM8.63038 8.65885H9.24054C9.99757 8.65885 10.6134 9.27467 10.6134 10.0317C10.6134 10.7365 10.0776 11.3121 9.39308 11.3891V11.5571C9.39308 11.8097 9.1881 12.0147 8.93546 12.0147C8.68282 12.0147 8.47784 11.8097 8.47784 11.5571V11.4046H7.71514C7.4625 11.4046 7.25752 11.1996 7.25752 10.9469C7.25752 10.6943 7.4625 10.4893 7.71514 10.4893H9.24054C9.49288 10.4893 9.69816 10.284 9.69816 10.0317C9.69816 9.77936 9.49288 9.57409 9.24054 9.57409H8.63038C7.87334 9.57409 7.25752 8.95827 7.25752 8.20123C7.25752 7.49644 7.79331 6.92081 8.47784 6.84379V6.67583C8.47784 6.42319 8.68282 6.21822 8.93546 6.21822C9.1881 6.21822 9.39308 6.42319 9.39308 6.67583V6.82837H10.1558C10.4084 6.82837 10.6134 7.03335 10.6134 7.28599C10.6134 7.53863 10.4084 7.74361 10.1558 7.74361H8.63038C8.37804 7.74361 8.17276 7.94889 8.17276 8.20123C8.17276 8.45357 8.37804 8.65885 8.63038 8.65885Z" fill="#CC0001"/>
<path d="M9.00032 0C4.03974 0 0.000488281 4.03925 0.000488281 8.99984C0.000488281 13.9604 4.03974 17.9997 9.00032 17.9997C10.0864 17.9997 11.1359 17.8044 12.0999 17.4444C11.5947 16.8068 11.2999 16.0025 11.2915 15.138C10.577 15.4056 9.80712 15.559 9.00032 15.559C5.38347 15.559 2.44112 12.6167 2.44112 8.99984C2.44112 5.38298 5.38347 2.44063 9.00032 2.44063C12.6172 2.44063 15.5595 5.38298 15.5595 8.99984C15.5595 9.80667 15.4061 10.5765 15.1384 11.291C16.003 11.2994 16.8073 11.5942 17.4449 12.0995C17.8049 11.1354 18.0002 10.0859 18.0002 8.99984C18.0002 4.03925 13.9609 0 9.00032 0Z" fill="#CC0001"/>
</svg>
