<svg width="20" height="20" viewBox="0 0 20 20" fill="none" xmlns="http://www.w3.org/2000/svg">
<path d="M18.5627 6.5625C17.3127 3.1875 15.0627 0.8125 13.0627 0.8125C12.7502 0.8125 12.5002 0.875 12.2502 0.9375C11.6877 1.125 11.1877 1.5625 10.8752 2.125C7.12521 6.375 1.93771 8.3125 1.87521 8.3125C0.625207 8.75 0.250207 10.75 1.06271 12.9375C1.75021 14.8125 3.00021 16 4.12521 16C4.25021 16 4.43771 16 4.56271 15.9375C4.68771 15.875 5.37521 15.75 6.62521 15.5625L7.87521 18.1875C7.93771 18.3125 8.06271 18.4375 8.25021 18.5L10.2502 19.1875C10.3127 19.1875 10.3752 19.25 10.4377 19.25C10.5627 19.25 10.6877 19.1875 10.8127 19.125C11.0002 19 11.0627 18.75 11.0627 18.5625L10.6252 15C12.1877 14.875 13.9377 14.8125 15.6877 14.9375H15.8127C16.0627 15 16.3127 15.0625 16.5627 15.0625C16.8752 15.0625 17.1252 15 17.3752 14.9375C18.4377 14.5625 19.1877 13.375 19.3752 11.6875C19.5002 10.1875 19.2502 8.3125 18.5627 6.5625ZM8.87521 17.375L7.93771 15.3125L9.37521 15.125L9.68771 17.625L8.87521 17.375ZM13.3752 11.375C12.9377 10.6875 12.5002 9.875 12.1252 8.875C11.8127 7.9375 11.5627 7.0625 11.5002 6.1875C11.6877 6.1875 11.9377 6.375 12.1877 6.5625C12.6252 7 13.0627 7.6875 13.3127 8.4375C13.8127 9.875 13.6877 11 13.3752 11.375ZM4.25021 14.75C4.18771 14.75 4.18771 14.75 4.18771 14.75C3.75021 14.875 2.81271 14.0625 2.18771 12.5C1.62521 10.9375 1.87521 9.625 2.25021 9.5C2.43771 9.4375 6.50021 7.9375 10.1877 4.5625C10.1252 6 10.3752 7.6875 10.9377 9.3125C11.6252 11.125 12.5627 12.625 13.6252 13.6875C8.75021 13.625 4.43771 14.6875 4.25021 14.75ZM18.0627 11.5625C17.9377 12.75 17.5002 13.5 16.8752 13.75C16.7502 13.8125 16.6252 13.8125 16.5002 13.8125C15.8127 13.8125 15.0002 13.3125 14.1252 12.3125C15.0002 11.5625 15.1877 9.875 14.5002 8C14.1252 7.0625 13.6252 6.25 13.0627 5.6875C12.5627 5.1875 12.0002 4.9375 11.4377 4.9375C11.4377 4.6875 11.4377 4.5 11.5002 4.3125C11.6252 3.125 12.0627 2.375 12.6877 2.125C12.8127 2.0625 12.9377 2.0625 13.0627 2.0625C14.3127 2.0625 16.2502 3.9375 17.3752 7C18.0002 8.5625 18.2502 10.25 18.0627 11.5625Z" fill="white"/>
</svg>
