<svg width="18" height="18" viewBox="0 0 18 18" fill="none" xmlns="http://www.w3.org/2000/svg">
<path d="M16.5 9C16.5 13.14 13.14 16.5 9 16.5C4.86 16.5 1.5 12.33 1.5 12.33M1.5 12.33H3.2925M1.5 12.33V15M1.5 9C1.5 4.86 4.83 1.5 9 1.5C14.0025 1.5 16.5 5.67 16.5 5.67M16.5 5.67V3M16.5 5.67H14.25" stroke="#F59E0B" stroke-width="1.5" stroke-linecap="round" stroke-linejoin="round"/>
<path d="M13.6425 11.1925C13.9683 10.5131 14.1562 9.75557 14.1562 8.95312C14.1562 6.08404 11.8222 3.75 8.95312 3.75C6.08404 3.75 3.75 6.08404 3.75 8.95312C3.75 11.8222 6.08404 14.1562 8.95312 14.1562C9.75557 14.1562 10.5131 13.9683 11.1925 13.6425C12.4746 13.0277 13.2553 12 13.6425 11.1925ZM8.612 8.63892H9.1745C9.8724 8.63892 10.4401 9.20664 10.4401 9.90454C10.4401 10.5543 9.94619 11.085 9.31512 11.156V11.3108C9.31512 11.5437 9.12616 11.7327 8.89325 11.7327C8.66034 11.7327 8.47137 11.5437 8.47137 11.3108V11.1702H7.76825C7.53534 11.1702 7.34637 10.9812 7.34637 10.7483C7.34637 10.5154 7.53534 10.3264 7.76825 10.3264H9.1745C9.40713 10.3264 9.59637 10.1372 9.59637 9.90454C9.59637 9.67191 9.40713 9.48267 9.1745 9.48267H8.612C7.91409 9.48267 7.34637 8.91495 7.34637 8.21704C7.34637 7.56731 7.84031 7.03663 8.47137 6.96563V6.81079C8.47137 6.57788 8.66034 6.38892 8.89325 6.38892C9.12616 6.38892 9.31512 6.57788 9.31512 6.81079V6.95142H10.0182C10.2512 6.95142 10.4401 7.14038 10.4401 7.37329C10.4401 7.6062 10.2512 7.79517 10.0182 7.79517H8.612C8.37936 7.79517 8.19012 7.98441 8.19012 8.21704C8.19012 8.44968 8.37936 8.63892 8.612 8.63892Z" fill="#F59E0B"/>
</svg>
