<svg width="29" height="28" viewBox="0 0 29 28" fill="none" xmlns="http://www.w3.org/2000/svg">
<rect x="0.333496" width="28" height="28" rx="8" fill="#F0F7FF"/>
<rect x="5.8335" y="5.5" width="17" height="17" rx="5.5" stroke="#1A64F0"/>
<path d="M12.0003 13.3334C11.081 13.3334 10.3337 12.5854 10.3337 11.6668C10.3337 10.7482 11.081 10.0002 12.0003 10.0002C12.9196 10.0002 13.6669 10.7482 13.6669 11.6668C13.6669 12.5854 12.9196 13.3334 12.0003 13.3334ZM12.0003 11.3335C11.8169 11.3335 11.6669 11.4828 11.6669 11.6668C11.6669 11.8508 11.8169 12.0001 12.0003 12.0001C12.1836 12.0001 12.3336 11.8508 12.3336 11.6668C12.3336 11.4828 12.1836 11.3335 12.0003 11.3335ZM16.6667 18C15.7474 18 15.0001 17.252 15.0001 16.3334C15.0001 15.4147 15.7474 14.6667 16.6667 14.6667C17.586 14.6667 18.3333 15.4147 18.3333 16.3334C18.3333 17.252 17.586 18 16.6667 18ZM16.6667 16C16.4834 16 16.3334 16.1494 16.3334 16.3334C16.3334 16.5174 16.4834 16.6667 16.6667 16.6667C16.8501 16.6667 17.0001 16.5174 17.0001 16.3334C17.0001 16.1494 16.8501 16 16.6667 16ZM11.4716 17.8047L18.138 11.1381C18.3987 10.8775 18.3987 10.4562 18.138 10.1955C17.8773 9.93483 17.456 9.93483 17.1954 10.1955L10.529 16.862C10.2683 17.1227 10.2683 17.544 10.529 17.8047C10.659 17.9347 10.8296 18 11.0003 18C11.171 18 11.3416 17.9347 11.4716 17.8047Z" fill="#1A64F0"/>
</svg>
