<svg width="241" height="72" viewBox="0 0 241 72" fill="none" xmlns="http://www.w3.org/2000/svg">
  <rect width="241" height="72" rx="12" fill="white"/>
  <g clip-path="url(#clip0_207_74625)">
    <path d="M51.012 12H77.988C83.7938 12 88.5 16.7062 88.5 22.512V49.488C88.5 55.2938 83.7938 60 77.988 60H51.012C45.2062 60 40.5 55.2938 40.5 49.488V22.512C40.5 16.7062 45.2062 12 51.012 12Z" fill="url(#paint0_linear_207_74625)"/>
    <path d="M55.8827 46.8394L55.8872 46.8409L54.246 49.6834C53.6469 50.721 52.3202 51.0765 51.2825 50.4774C50.2451 49.8784 49.8894 48.5516 50.4885 47.514L51.6975 45.42L51.8135 45.219C52.0207 44.9213 52.532 44.4071 53.5548 44.5039C53.5548 44.5039 55.9618 44.7651 56.136 46.0161C56.136 46.0161 56.1596 46.4276 55.8827 46.8394V46.8394ZM79.1595 39.5794H74.0418C73.6933 39.5559 73.5412 39.4314 73.4812 39.3591L73.4775 39.3525L67.9993 29.8639L67.9922 29.8686L67.6637 29.3976C67.1252 28.5741 66.2702 30.6801 66.2702 30.6801C65.2492 33.0268 66.4151 35.6948 66.8214 36.5012L74.4305 49.6806C75.0294 50.718 76.3562 51.0737 77.394 50.4744C78.4314 49.8754 78.7871 48.5486 78.1878 47.511L76.2853 44.2155C76.2483 44.1356 76.1842 43.9189 76.5744 43.9179H79.1595C80.3576 43.9179 81.3288 42.9467 81.3288 41.7486C81.3288 40.5504 80.3576 39.5792 79.1595 39.5792V39.5794ZM69.2193 42.5284C69.2193 42.5284 69.4925 43.9179 68.4356 43.9179H49.517C48.3189 43.9179 47.3477 42.9467 47.3477 41.7486C47.3477 40.5504 48.3189 39.5792 49.517 39.5792H54.3808C55.166 39.5338 55.352 39.0804 55.352 39.0804L55.3565 39.0827L61.7053 28.0862L61.7034 28.0858C61.8191 27.8734 61.7227 27.6726 61.706 27.6409L59.6092 24.0092C59.0102 22.9718 59.3657 21.6448 60.4033 21.0459C61.4409 20.4469 62.7677 20.8022 63.3667 21.8398L64.3391 23.5241L65.3098 21.8428C65.9088 20.8054 67.2356 20.4497 68.2732 21.0489C69.3108 21.648 69.6663 22.9746 69.0673 24.0122L60.2327 39.3141C60.194 39.4073 60.1822 39.5535 60.4697 39.5792H65.7504L65.7515 39.6308C65.7515 39.6308 68.8037 39.6782 69.2193 42.5284Z" fill="white"/>
  </g>
  <path d="M111.233 19H110.352C110.3 18.7467 110.209 18.5241 110.079 18.3324C109.951 18.1406 109.795 17.9796 109.61 17.8494C109.428 17.7169 109.225 17.6174 109.003 17.5511C108.78 17.4848 108.548 17.4517 108.307 17.4517C107.866 17.4517 107.468 17.563 107.11 17.7855C106.755 18.008 106.472 18.3359 106.261 18.7692C106.053 19.2024 105.949 19.7339 105.949 20.3636C105.949 20.9934 106.053 21.5249 106.261 21.9581C106.472 22.3913 106.755 22.7192 107.11 22.9418C107.468 23.1643 107.866 23.2756 108.307 23.2756C108.548 23.2756 108.78 23.2424 109.003 23.1761C109.225 23.1098 109.428 23.0116 109.61 22.8814C109.795 22.7488 109.951 22.5866 110.079 22.3949C110.209 22.2008 110.3 21.9782 110.352 21.7273H111.233C111.167 22.099 111.046 22.4316 110.871 22.7251C110.696 23.0187 110.478 23.2685 110.217 23.4744C109.957 23.678 109.665 23.8331 109.34 23.9396C109.018 24.0462 108.674 24.0994 108.307 24.0994C107.687 24.0994 107.135 23.9479 106.652 23.6449C106.169 23.3419 105.789 22.911 105.512 22.3523C105.235 21.7936 105.097 21.1307 105.097 20.3636C105.097 19.5966 105.235 18.9337 105.512 18.375C105.789 17.8163 106.169 17.3854 106.652 17.0824C107.135 16.7794 107.687 16.6278 108.307 16.6278C108.674 16.6278 109.018 16.6811 109.34 16.7876C109.665 16.8942 109.957 17.0504 110.217 17.2564C110.478 17.46 110.696 17.7086 110.871 18.0021C111.046 18.2933 111.167 18.6259 111.233 19ZM114.758 24.1136C114.266 24.1136 113.834 23.9964 113.462 23.7621C113.093 23.5277 112.804 23.1998 112.596 22.7784C112.39 22.357 112.287 21.8646 112.287 21.3011C112.287 20.733 112.39 20.237 112.596 19.8132C112.804 19.3894 113.093 19.0604 113.462 18.826C113.834 18.5916 114.266 18.4744 114.758 18.4744C115.251 18.4744 115.682 18.5916 116.051 18.826C116.423 19.0604 116.711 19.3894 116.917 19.8132C117.126 20.237 117.23 20.733 117.23 21.3011C117.23 21.8646 117.126 22.357 116.917 22.7784C116.711 23.1998 116.423 23.5277 116.051 23.7621C115.682 23.9964 115.251 24.1136 114.758 24.1136ZM114.758 23.3608C115.132 23.3608 115.44 23.2649 115.682 23.0732C115.923 22.8814 116.102 22.6293 116.218 22.3168C116.334 22.0043 116.392 21.6657 116.392 21.3011C116.392 20.9366 116.334 20.5968 116.218 20.282C116.102 19.9671 115.923 19.7126 115.682 19.5185C115.44 19.3243 115.132 19.2273 114.758 19.2273C114.384 19.2273 114.077 19.3243 113.835 19.5185C113.594 19.7126 113.415 19.9671 113.299 20.282C113.183 20.5968 113.125 20.9366 113.125 21.3011C113.125 21.6657 113.183 22.0043 113.299 22.3168C113.415 22.6293 113.594 22.8814 113.835 23.0732C114.077 23.2649 114.384 23.3608 114.758 23.3608ZM118.509 24V18.5455H119.319V19.3977H119.39C119.504 19.1065 119.687 18.8804 119.94 18.7195C120.194 18.5561 120.498 18.4744 120.853 18.4744C121.213 18.4744 121.512 18.5561 121.751 18.7195C121.993 18.8804 122.181 19.1065 122.316 19.3977H122.373C122.513 19.116 122.722 18.8923 123.001 18.7266C123.281 18.5585 123.616 18.4744 124.006 18.4744C124.494 18.4744 124.893 18.6271 125.203 18.9325C125.513 19.2356 125.668 19.7079 125.668 20.3494V24H124.83V20.3494C124.83 19.947 124.72 19.6593 124.5 19.4865C124.28 19.3137 124.021 19.2273 123.722 19.2273C123.339 19.2273 123.042 19.3433 122.831 19.5753C122.62 19.8049 122.515 20.0961 122.515 20.4489V24H121.663V20.2642C121.663 19.9541 121.562 19.7043 121.361 19.5149C121.16 19.3232 120.9 19.2273 120.583 19.2273C120.365 19.2273 120.162 19.2853 119.972 19.4013C119.785 19.5173 119.634 19.6783 119.518 19.8842C119.404 20.0878 119.347 20.3234 119.347 20.5909V24H118.509ZM127.201 24V18.5455H128.039V24H127.201ZM127.627 17.6364C127.463 17.6364 127.323 17.5807 127.204 17.4695C127.088 17.3582 127.03 17.2244 127.03 17.0682C127.03 16.9119 127.088 16.7782 127.204 16.6669C127.323 16.5556 127.463 16.5 127.627 16.5C127.79 16.5 127.93 16.5556 128.046 16.6669C128.164 16.7782 128.223 16.9119 128.223 17.0682C128.223 17.2244 128.164 17.3582 128.046 17.4695C127.93 17.5807 127.79 17.6364 127.627 17.6364ZM130.412 20.7188V24H129.574V18.5455H130.383V19.3977H130.454C130.582 19.1207 130.776 18.8982 131.037 18.7301C131.297 18.5597 131.633 18.4744 132.045 18.4744C132.415 18.4744 132.738 18.5502 133.015 18.7017C133.292 18.8509 133.507 19.0781 133.661 19.3835C133.815 19.6866 133.892 20.0701 133.892 20.5341V24H133.054V20.5909C133.054 20.1624 132.943 19.8286 132.72 19.5895C132.497 19.348 132.192 19.2273 131.804 19.2273C131.536 19.2273 131.297 19.2853 131.086 19.4013C130.878 19.5173 130.714 19.6866 130.593 19.9091C130.472 20.1316 130.412 20.4015 130.412 20.7188ZM137.625 26.1591C137.22 26.1591 136.872 26.107 136.581 26.0028C136.29 25.901 136.047 25.7661 135.853 25.598C135.661 25.4323 135.509 25.2547 135.395 25.0653L136.062 24.5966C136.138 24.696 136.234 24.8097 136.35 24.9375C136.466 25.0677 136.625 25.1802 136.826 25.2749C137.03 25.3719 137.296 25.4205 137.625 25.4205C138.065 25.4205 138.429 25.3139 138.715 25.1009C139.002 24.8878 139.145 24.554 139.145 24.0994V22.9915H139.074C139.012 23.0909 138.925 23.214 138.811 23.3608C138.7 23.5052 138.539 23.6342 138.328 23.7479C138.12 23.8591 137.838 23.9148 137.483 23.9148C137.043 23.9148 136.647 23.8106 136.297 23.6023C135.949 23.3939 135.673 23.0909 135.469 22.6932C135.268 22.2955 135.168 21.8125 135.168 21.2443C135.168 20.6856 135.266 20.1991 135.462 19.7848C135.659 19.3681 135.932 19.0462 136.283 18.8189C136.633 18.5893 137.038 18.4744 137.497 18.4744C137.852 18.4744 138.134 18.5336 138.342 18.652C138.553 18.768 138.714 18.9006 138.825 19.0497C138.939 19.1965 139.027 19.3172 139.088 19.4119H139.173V18.5455H139.983V24.1562C139.983 24.625 139.876 25.0062 139.663 25.2997C139.453 25.5956 139.169 25.8123 138.811 25.9496C138.456 26.0893 138.061 26.1591 137.625 26.1591ZM137.597 23.1619C137.933 23.1619 138.217 23.085 138.449 22.9311C138.681 22.7772 138.857 22.5559 138.978 22.267C139.099 21.9782 139.159 21.6326 139.159 21.2301C139.159 20.8371 139.1 20.4903 138.982 20.1896C138.863 19.889 138.688 19.6534 138.456 19.483C138.224 19.3125 137.938 19.2273 137.597 19.2273C137.241 19.2273 136.946 19.3172 136.709 19.4972C136.474 19.6771 136.298 19.9186 136.18 20.2216C136.064 20.5246 136.006 20.8608 136.006 21.2301C136.006 21.6089 136.065 21.9439 136.183 22.2351C136.304 22.5239 136.482 22.7512 136.716 22.9169C136.953 23.0803 137.246 23.1619 137.597 23.1619ZM148.193 19.767L147.44 19.9801C147.393 19.8546 147.323 19.7327 147.231 19.6143C147.141 19.4936 147.018 19.3942 146.862 19.3161C146.705 19.2379 146.505 19.1989 146.261 19.1989C145.928 19.1989 145.649 19.2758 145.427 19.4297C145.207 19.5812 145.097 19.7741 145.097 20.0085C145.097 20.2169 145.172 20.3814 145.324 20.5021C145.475 20.6229 145.712 20.7235 146.034 20.804L146.844 21.0028C147.331 21.1212 147.695 21.3023 147.934 21.5462C148.173 21.7876 148.293 22.099 148.293 22.4801C148.293 22.7926 148.203 23.072 148.023 23.3182C147.845 23.5644 147.597 23.7585 147.277 23.9006C146.957 24.0426 146.586 24.1136 146.162 24.1136C145.606 24.1136 145.145 23.9929 144.781 23.7514C144.416 23.5099 144.185 23.1572 144.088 22.6932L144.884 22.4943C144.959 22.7879 145.103 23.008 145.313 23.1548C145.526 23.3016 145.804 23.375 146.148 23.375C146.538 23.375 146.848 23.2921 147.078 23.1264C147.31 22.9583 147.426 22.7571 147.426 22.5227C147.426 22.3333 147.36 22.1747 147.227 22.0469C147.095 21.9167 146.891 21.8196 146.616 21.7557L145.707 21.5426C145.208 21.4242 144.841 21.2408 144.607 20.9922C144.375 20.7412 144.259 20.4276 144.259 20.0511C144.259 19.7434 144.345 19.4711 144.518 19.2344C144.693 18.9976 144.931 18.8118 145.232 18.6768C145.535 18.5419 145.878 18.4744 146.261 18.4744C146.801 18.4744 147.225 18.5928 147.533 18.8295C147.843 19.0663 148.063 19.3788 148.193 19.767ZM151.77 24.1136C151.278 24.1136 150.846 23.9964 150.474 23.7621C150.105 23.5277 149.816 23.1998 149.607 22.7784C149.401 22.357 149.298 21.8646 149.298 21.3011C149.298 20.733 149.401 20.237 149.607 19.8132C149.816 19.3894 150.105 19.0604 150.474 18.826C150.846 18.5916 151.278 18.4744 151.77 18.4744C152.262 18.4744 152.693 18.5916 153.063 18.826C153.434 19.0604 153.723 19.3894 153.929 19.8132C154.137 20.237 154.242 20.733 154.242 21.3011C154.242 21.8646 154.137 22.357 153.929 22.7784C153.723 23.1998 153.434 23.5277 153.063 23.7621C152.693 23.9964 152.262 24.1136 151.77 24.1136ZM151.77 23.3608C152.144 23.3608 152.452 23.2649 152.693 23.0732C152.935 22.8814 153.114 22.6293 153.23 22.3168C153.346 22.0043 153.404 21.6657 153.404 21.3011C153.404 20.9366 153.346 20.5968 153.23 20.282C153.114 19.9671 152.935 19.7126 152.693 19.5185C152.452 19.3243 152.144 19.2273 151.77 19.2273C151.396 19.2273 151.088 19.3243 150.847 19.5185C150.605 19.7126 150.427 19.9671 150.311 20.282C150.195 20.5968 150.137 20.9366 150.137 21.3011C150.137 21.6657 150.195 22.0043 150.311 22.3168C150.427 22.6293 150.605 22.8814 150.847 23.0732C151.088 23.2649 151.396 23.3608 151.77 23.3608ZM157.737 24.1136C157.244 24.1136 156.812 23.9964 156.441 23.7621C156.071 23.5277 155.783 23.1998 155.574 22.7784C155.368 22.357 155.265 21.8646 155.265 21.3011C155.265 20.733 155.368 20.237 155.574 19.8132C155.783 19.3894 156.071 19.0604 156.441 18.826C156.812 18.5916 157.244 18.4744 157.737 18.4744C158.229 18.4744 158.66 18.5916 159.029 18.826C159.401 19.0604 159.69 19.3894 159.896 19.8132C160.104 20.237 160.208 20.733 160.208 21.3011C160.208 21.8646 160.104 22.357 159.896 22.7784C159.69 23.1998 159.401 23.5277 159.029 23.7621C158.66 23.9964 158.229 24.1136 157.737 24.1136ZM157.737 23.3608C158.111 23.3608 158.419 23.2649 158.66 23.0732C158.902 22.8814 159.08 22.6293 159.196 22.3168C159.312 22.0043 159.37 21.6657 159.37 21.3011C159.37 20.9366 159.312 20.5968 159.196 20.282C159.08 19.9671 158.902 19.7126 158.66 19.5185C158.419 19.3243 158.111 19.2273 157.737 19.2273C157.363 19.2273 157.055 19.3243 156.814 19.5185C156.572 19.7126 156.393 19.9671 156.277 20.282C156.161 20.5968 156.103 20.9366 156.103 21.3011C156.103 21.6657 156.161 22.0043 156.277 22.3168C156.393 22.6293 156.572 22.8814 156.814 23.0732C157.055 23.2649 157.363 23.3608 157.737 23.3608ZM162.326 20.7188V24H161.488V18.5455H162.297V19.3977H162.368C162.496 19.1207 162.69 18.8982 162.951 18.7301C163.211 18.5597 163.547 18.4744 163.959 18.4744C164.329 18.4744 164.652 18.5502 164.929 18.7017C165.206 18.8509 165.421 19.0781 165.575 19.3835C165.729 19.6866 165.806 20.0701 165.806 20.5341V24H164.968V20.5909C164.968 20.1624 164.857 19.8286 164.634 19.5895C164.412 19.348 164.106 19.2273 163.718 19.2273C163.45 19.2273 163.211 19.2853 163.001 19.4013C162.792 19.5173 162.628 19.6866 162.507 19.9091C162.386 20.1316 162.326 20.4015 162.326 20.7188ZM172.366 24.1136C171.873 24.1136 171.441 23.9964 171.07 23.7621C170.7 23.5277 170.411 23.1998 170.203 22.7784C169.997 22.357 169.894 21.8646 169.894 21.3011C169.894 20.733 169.997 20.237 170.203 19.8132C170.411 19.3894 170.7 19.0604 171.07 18.826C171.441 18.5916 171.873 18.4744 172.366 18.4744C172.858 18.4744 173.289 18.5916 173.658 18.826C174.03 19.0604 174.319 19.3894 174.525 19.8132C174.733 20.237 174.837 20.733 174.837 21.3011C174.837 21.8646 174.733 22.357 174.525 22.7784C174.319 23.1998 174.03 23.5277 173.658 23.7621C173.289 23.9964 172.858 24.1136 172.366 24.1136ZM172.366 23.3608C172.74 23.3608 173.048 23.2649 173.289 23.0732C173.531 22.8814 173.709 22.6293 173.825 22.3168C173.941 22.0043 173.999 21.6657 173.999 21.3011C173.999 20.9366 173.941 20.5968 173.825 20.282C173.709 19.9671 173.531 19.7126 173.289 19.5185C173.048 19.3243 172.74 19.2273 172.366 19.2273C171.992 19.2273 171.684 19.3243 171.442 19.5185C171.201 19.7126 171.022 19.9671 170.906 20.282C170.79 20.5968 170.732 20.9366 170.732 21.3011C170.732 21.6657 170.79 22.0043 170.906 22.3168C171.022 22.6293 171.201 22.8814 171.442 23.0732C171.684 23.2649 171.992 23.3608 172.366 23.3608ZM176.955 20.7188V24H176.117V18.5455H176.926V19.3977H176.997C177.125 19.1207 177.319 18.8982 177.58 18.7301C177.84 18.5597 178.176 18.4744 178.588 18.4744C178.958 18.4744 179.281 18.5502 179.558 18.7017C179.835 18.8509 180.05 19.0781 180.204 19.3835C180.358 19.6866 180.435 20.0701 180.435 20.5341V24H179.597V20.5909C179.597 20.1624 179.485 19.8286 179.263 19.5895C179.04 19.348 178.735 19.2273 178.347 19.2273C178.079 19.2273 177.84 19.2853 177.629 19.4013C177.421 19.5173 177.257 19.6866 177.136 19.9091C177.015 20.1316 176.955 20.4015 176.955 20.7188Z" fill="#00176A"/>
  <path d="M105.2 51C105.093 51 104.993 50.96 104.9 50.88C104.82 50.8 104.78 50.7 104.78 50.58C104.78 50.5267 104.793 50.4667 104.82 50.4L109.64 37.5C109.68 37.3667 109.753 37.2533 109.86 37.16C109.98 37.0533 110.14 37 110.34 37H112.52C112.72 37 112.873 37.0533 112.98 37.16C113.087 37.2533 113.167 37.3667 113.22 37.5L118.04 50.4C118.053 50.4667 118.06 50.5267 118.06 50.58C118.06 50.7 118.02 50.8 117.94 50.88C117.86 50.96 117.767 51 117.66 51H115.92C115.733 51 115.593 50.96 115.5 50.88C115.42 50.7867 115.367 50.7 115.34 50.62L114.4 48.18H108.46L107.52 50.62C107.493 50.7 107.433 50.7867 107.34 50.88C107.26 50.96 107.127 51 106.94 51H105.2ZM109.16 45.88H113.7L111.42 39.7L109.16 45.88ZM120.187 54.8C120.054 54.8 119.941 54.7533 119.847 54.66C119.754 54.5667 119.707 54.4533 119.707 54.32V41.08C119.707 40.9467 119.754 40.8333 119.847 40.74C119.941 40.6467 120.054 40.6 120.187 40.6H121.767C121.914 40.6 122.027 40.6467 122.107 40.74C122.201 40.8333 122.247 40.9467 122.247 41.08V41.88C122.567 41.4533 122.987 41.1 123.507 40.82C124.027 40.54 124.674 40.4 125.447 40.4C126.154 40.4 126.767 40.5133 127.287 40.74C127.807 40.9667 128.241 41.2933 128.587 41.72C128.934 42.1333 129.201 42.6267 129.387 43.2C129.574 43.7733 129.681 44.4067 129.707 45.1C129.721 45.3267 129.727 45.56 129.727 45.8C129.727 46.04 129.721 46.28 129.707 46.52C129.694 47.1867 129.594 47.8067 129.407 48.38C129.221 48.94 128.947 49.4333 128.587 49.86C128.241 50.2733 127.807 50.6 127.287 50.84C126.767 51.08 126.154 51.2 125.447 51.2C124.727 51.2 124.114 51.0733 123.607 50.82C123.101 50.5533 122.687 50.2067 122.367 49.78V54.32C122.367 54.4533 122.321 54.5667 122.227 54.66C122.147 54.7533 122.034 54.8 121.887 54.8H120.187ZM124.707 49.06C125.281 49.06 125.727 48.94 126.047 48.7C126.367 48.4467 126.594 48.12 126.727 47.72C126.874 47.32 126.961 46.88 126.987 46.4C127.014 46 127.014 45.6 126.987 45.2C126.961 44.72 126.874 44.28 126.727 43.88C126.594 43.48 126.367 43.16 126.047 42.92C125.727 42.6667 125.281 42.54 124.707 42.54C124.161 42.54 123.714 42.6667 123.367 42.92C123.034 43.1733 122.787 43.5 122.627 43.9C122.481 44.2867 122.394 44.6867 122.367 45.1C122.354 45.34 122.347 45.5933 122.347 45.86C122.347 46.1267 122.354 46.3867 122.367 46.64C122.381 47.04 122.474 47.4267 122.647 47.8C122.821 48.16 123.074 48.46 123.407 48.7C123.741 48.94 124.174 49.06 124.707 49.06ZM132.472 54.8C132.339 54.8 132.226 54.7533 132.132 54.66C132.039 54.5667 131.992 54.4533 131.992 54.32V41.08C131.992 40.9467 132.039 40.8333 132.132 40.74C132.226 40.6467 132.339 40.6 132.472 40.6H134.052C134.199 40.6 134.312 40.6467 134.392 40.74C134.486 40.8333 134.532 40.9467 134.532 41.08V41.88C134.852 41.4533 135.272 41.1 135.792 40.82C136.312 40.54 136.959 40.4 137.732 40.4C138.439 40.4 139.052 40.5133 139.572 40.74C140.092 40.9667 140.526 41.2933 140.872 41.72C141.219 42.1333 141.486 42.6267 141.672 43.2C141.859 43.7733 141.966 44.4067 141.992 45.1C142.006 45.3267 142.012 45.56 142.012 45.8C142.012 46.04 142.006 46.28 141.992 46.52C141.979 47.1867 141.879 47.8067 141.692 48.38C141.506 48.94 141.232 49.4333 140.872 49.86C140.526 50.2733 140.092 50.6 139.572 50.84C139.052 51.08 138.439 51.2 137.732 51.2C137.012 51.2 136.399 51.0733 135.892 50.82C135.386 50.5533 134.972 50.2067 134.652 49.78V54.32C134.652 54.4533 134.606 54.5667 134.512 54.66C134.432 54.7533 134.319 54.8 134.172 54.8H132.472ZM136.992 49.06C137.566 49.06 138.012 48.94 138.332 48.7C138.652 48.4467 138.879 48.12 139.012 47.72C139.159 47.32 139.246 46.88 139.272 46.4C139.299 46 139.299 45.6 139.272 45.2C139.246 44.72 139.159 44.28 139.012 43.88C138.879 43.48 138.652 43.16 138.332 42.92C138.012 42.6667 137.566 42.54 136.992 42.54C136.446 42.54 135.999 42.6667 135.652 42.92C135.319 43.1733 135.072 43.5 134.912 43.9C134.766 44.2867 134.679 44.6867 134.652 45.1C134.639 45.34 134.632 45.5933 134.632 45.86C134.632 46.1267 134.639 46.3867 134.652 46.64C134.666 47.04 134.759 47.4267 134.932 47.8C135.106 48.16 135.359 48.46 135.692 48.7C136.026 48.94 136.459 49.06 136.992 49.06ZM153.928 51.2C152.688 51.2 151.648 51.02 150.808 50.66C149.981 50.2867 149.348 49.8067 148.908 49.22C148.481 48.62 148.254 47.9933 148.228 47.34C148.228 47.22 148.268 47.12 148.348 47.04C148.428 46.96 148.528 46.92 148.648 46.92H150.428C150.601 46.92 150.728 46.96 150.808 47.04C150.901 47.1067 150.981 47.1933 151.048 47.3C151.128 47.5533 151.281 47.8067 151.508 48.06C151.734 48.3 152.041 48.5 152.428 48.66C152.828 48.82 153.328 48.9 153.928 48.9C154.888 48.9 155.601 48.74 156.068 48.42C156.548 48.1 156.788 47.6667 156.788 47.12C156.788 46.7333 156.661 46.4267 156.408 46.2C156.154 45.96 155.761 45.7467 155.228 45.56C154.708 45.36 154.014 45.1533 153.148 44.94C152.148 44.7 151.308 44.4133 150.628 44.08C149.961 43.7333 149.454 43.3 149.108 42.78C148.774 42.26 148.608 41.6 148.608 40.8C148.608 40.0267 148.814 39.34 149.228 38.74C149.654 38.14 150.254 37.6667 151.028 37.32C151.814 36.9733 152.748 36.8 153.828 36.8C154.694 36.8 155.461 36.92 156.128 37.16C156.794 37.3867 157.348 37.6933 157.788 38.08C158.228 38.4533 158.561 38.86 158.788 39.3C159.028 39.7267 159.154 40.1467 159.168 40.56C159.168 40.6667 159.128 40.7667 159.048 40.86C158.981 40.94 158.881 40.98 158.748 40.98H156.888C156.781 40.98 156.674 40.9533 156.568 40.9C156.461 40.8467 156.374 40.7467 156.308 40.6C156.228 40.1867 155.968 39.8333 155.528 39.54C155.088 39.2467 154.521 39.1 153.828 39.1C153.108 39.1 152.528 39.2333 152.088 39.5C151.648 39.7667 151.428 40.18 151.428 40.74C151.428 41.1133 151.534 41.4267 151.748 41.68C151.974 41.92 152.328 42.1333 152.808 42.32C153.301 42.5067 153.948 42.7067 154.748 42.92C155.881 43.1733 156.808 43.4667 157.528 43.8C158.248 44.1333 158.774 44.56 159.108 45.08C159.441 45.5867 159.608 46.2333 159.608 47.02C159.608 47.9 159.368 48.6533 158.888 49.28C158.421 49.8933 157.761 50.3667 156.908 50.7C156.054 51.0333 155.061 51.2 153.928 51.2ZM166.36 51C165.56 51 164.887 50.86 164.34 50.58C163.793 50.3 163.387 49.8867 163.12 49.34C162.853 48.78 162.72 48.0867 162.72 47.26V42.72H161.14C161.007 42.72 160.893 42.6733 160.8 42.58C160.707 42.4867 160.66 42.3733 160.66 42.24V41.08C160.66 40.9467 160.707 40.8333 160.8 40.74C160.893 40.6467 161.007 40.6 161.14 40.6H162.72V37.28C162.72 37.1467 162.76 37.0333 162.84 36.94C162.933 36.8467 163.053 36.8 163.2 36.8H164.82C164.953 36.8 165.067 36.8467 165.16 36.94C165.253 37.0333 165.3 37.1467 165.3 37.28V40.6H167.8C167.933 40.6 168.047 40.6467 168.14 40.74C168.233 40.8333 168.28 40.9467 168.28 41.08V42.24C168.28 42.3733 168.233 42.4867 168.14 42.58C168.047 42.6733 167.933 42.72 167.8 42.72H165.3V47.06C165.3 47.6067 165.393 48.0333 165.58 48.34C165.78 48.6467 166.12 48.8 166.6 48.8H167.98C168.113 48.8 168.227 48.8467 168.32 48.94C168.413 49.0333 168.46 49.1467 168.46 49.28V50.52C168.46 50.6533 168.413 50.7667 168.32 50.86C168.227 50.9533 168.113 51 167.98 51H166.36ZM174.834 51.2C173.767 51.2 172.867 51.0133 172.134 50.64C171.414 50.2667 170.861 49.74 170.474 49.06C170.101 48.38 169.887 47.5867 169.834 46.68C169.821 46.44 169.814 46.1467 169.814 45.8C169.814 45.4533 169.821 45.16 169.834 44.92C169.887 44 170.107 43.2067 170.494 42.54C170.894 41.86 171.454 41.3333 172.174 40.96C172.907 40.5867 173.794 40.4 174.834 40.4C175.874 40.4 176.754 40.5867 177.474 40.96C178.207 41.3333 178.767 41.86 179.154 42.54C179.554 43.2067 179.781 44 179.834 44.92C179.847 45.16 179.854 45.4533 179.854 45.8C179.854 46.1467 179.847 46.44 179.834 46.68C179.781 47.5867 179.561 48.38 179.174 49.06C178.801 49.74 178.247 50.2667 177.514 50.64C176.794 51.0133 175.901 51.2 174.834 51.2ZM174.834 49.22C175.541 49.22 176.087 49 176.474 48.56C176.861 48.1067 177.074 47.4467 177.114 46.58C177.127 46.38 177.134 46.12 177.134 45.8C177.134 45.48 177.127 45.22 177.114 45.02C177.074 44.1667 176.861 43.5133 176.474 43.06C176.087 42.6067 175.541 42.38 174.834 42.38C174.127 42.38 173.581 42.6067 173.194 43.06C172.807 43.5133 172.594 44.1667 172.554 45.02C172.541 45.22 172.534 45.48 172.534 45.8C172.534 46.12 172.541 46.38 172.554 46.58C172.594 47.4467 172.807 48.1067 173.194 48.56C173.581 49 174.127 49.22 174.834 49.22ZM182.55 51C182.417 51 182.303 50.9533 182.21 50.86C182.117 50.7667 182.07 50.6533 182.07 50.52V41.1C182.07 40.9533 182.117 40.8333 182.21 40.74C182.303 40.6467 182.417 40.6 182.55 40.6H184.17C184.303 40.6 184.417 40.6467 184.51 40.74C184.617 40.8333 184.67 40.9533 184.67 41.1V41.92C184.977 41.4933 185.37 41.1667 185.85 40.94C186.343 40.7133 186.91 40.6 187.55 40.6H188.37C188.517 40.6 188.63 40.6467 188.71 40.74C188.803 40.8333 188.85 40.9467 188.85 41.08V42.52C188.85 42.6533 188.803 42.7667 188.71 42.86C188.63 42.9533 188.517 43 188.37 43H186.81C186.17 43 185.67 43.18 185.31 43.54C184.963 43.9 184.79 44.3933 184.79 45.02V50.52C184.79 50.6533 184.743 50.7667 184.65 50.86C184.557 50.9533 184.437 51 184.29 51H182.55ZM194.753 51.2C193.273 51.2 192.1 50.7733 191.233 49.92C190.366 49.0667 189.9 47.8533 189.833 46.28C189.82 46.1467 189.813 45.98 189.813 45.78C189.813 45.5667 189.82 45.4 189.833 45.28C189.886 44.28 190.113 43.4133 190.513 42.68C190.926 41.9467 191.493 41.3867 192.213 41C192.933 40.6 193.78 40.4 194.753 40.4C195.833 40.4 196.74 40.6267 197.473 41.08C198.206 41.52 198.76 42.14 199.133 42.94C199.506 43.7267 199.693 44.64 199.693 45.68V46.1C199.693 46.2333 199.646 46.3467 199.553 46.44C199.46 46.5333 199.34 46.58 199.193 46.58H192.553C192.553 46.58 192.553 46.6 192.553 46.64C192.553 46.68 192.553 46.7133 192.553 46.74C192.566 47.2067 192.653 47.64 192.813 48.04C192.986 48.4267 193.233 48.74 193.553 48.98C193.886 49.22 194.28 49.34 194.733 49.34C195.106 49.34 195.42 49.2867 195.673 49.18C195.926 49.06 196.133 48.9267 196.293 48.78C196.453 48.6333 196.566 48.5133 196.633 48.42C196.753 48.26 196.846 48.1667 196.913 48.14C196.993 48.1 197.106 48.08 197.253 48.08H198.973C199.106 48.08 199.213 48.12 199.293 48.2C199.386 48.28 199.426 48.38 199.413 48.5C199.4 48.7133 199.286 48.9733 199.073 49.28C198.873 49.5867 198.58 49.8867 198.193 50.18C197.806 50.4733 197.32 50.72 196.733 50.92C196.16 51.1067 195.5 51.2 194.753 51.2ZM192.553 44.9H196.973V44.84C196.973 44.32 196.886 43.8667 196.713 43.48C196.54 43.0933 196.286 42.7867 195.953 42.56C195.62 42.3333 195.22 42.22 194.753 42.22C194.286 42.22 193.886 42.3333 193.553 42.56C193.22 42.7867 192.966 43.0933 192.793 43.48C192.633 43.8667 192.553 44.32 192.553 44.84V44.9Z" fill="#00176A"/>
  <defs>
    <linearGradient id="paint0_linear_207_74625" x1="64.5" y1="12" x2="64.5" y2="60" gradientUnits="userSpaceOnUse">
      <stop stop-color="#17C9FB"/>
      <stop offset="1" stop-color="#1A74E8"/>
    </linearGradient>
    <clipPath id="clip0_207_74625">
      <rect width="48" height="48" fill="white" transform="translate(40.5 12)"/>
    </clipPath>
  </defs>
</svg>
