<svg width="14" height="18" viewBox="0 0 14 18" fill="none" xmlns="http://www.w3.org/2000/svg">
<path fill-rule="evenodd" clip-rule="evenodd" d="M9.48821 0.666992H4.51211C1.92445 0.666992 0.333496 1.9164 0.333496 4.36228V15.9428C0.337232 16.1778 0.392176 16.3988 0.494017 16.5981L0.572058 16.7269L0.653753 16.8316C1.0797 17.3311 1.7595 17.469 2.32051 17.1701L6.97849 14.5533L11.6554 17.1646C11.8641 17.2746 12.0806 17.3301 12.3008 17.3337C12.67 17.3337 13.015 17.1872 13.2695 16.9263C13.5239 16.6655 13.6668 16.3117 13.6668 15.9428V4.21504C13.6668 1.86285 12.0403 0.666992 9.48821 0.666992ZM4.51211 1.87345H9.48821C11.4585 1.87345 12.4901 2.63189 12.4901 4.21504V15.9428C12.4901 15.9917 12.4712 16.0386 12.4374 16.0732C12.4037 16.1078 12.3579 16.1273 12.3102 16.1273C12.2798 16.1267 12.2407 16.1167 12.2054 16.0981L7.53642 13.4915C7.18769 13.2983 6.76955 13.2983 6.42252 13.4905L1.76651 16.1058C1.69587 16.1432 1.59494 16.1187 1.54115 16.0436L1.50993 15.9918C1.51595 16.0003 1.51486 15.99 1.51299 15.9721C1.51183 15.961 1.51035 15.9469 1.51012 15.9327L1.5102 4.36228C1.5102 2.66348 2.51621 1.87345 4.51211 1.87345ZM10.4284 6.53408C10.4284 6.20093 10.165 5.93085 9.84006 5.93085H4.11718L4.03735 5.93636C3.75017 5.9763 3.52883 6.22869 3.52883 6.53408C3.52883 6.86723 3.79224 7.13731 4.11718 7.13731H9.84006L9.9199 7.1318C10.2071 7.09186 10.4284 6.83947 10.4284 6.53408Z" fill="white"/>
</svg>
