<svg width="241" height="72" viewBox="0 0 241 72" fill="none" xmlns="http://www.w3.org/2000/svg">
  <rect width="241" height="72" rx="12" fill="white"/>
  <g clip-path="url(#clip0_207_74616)">
    <path d="M58.4297 35.0439L35.2136 58.26C34.1038 57.2102 33.5039 55.7704 33.5039 54.2107V17.7968C33.5039 16.2071 34.1338 14.7673 35.2736 13.6875L58.4297 35.0439Z" fill="#2196F3"/>
    <path d="M78.4963 36.0044C78.4963 38.104 77.3565 39.9637 75.4668 41.0135L68.8679 44.6729L60.6793 37.1142L58.4297 35.0445L67.0982 26.376L75.4668 30.9952C77.3565 32.045 78.4963 33.9047 78.4963 36.0044Z" fill="#FFC107"/>
    <path d="M58.4295 35.0442L35.2734 13.6878C35.5734 13.3879 35.9633 13.1179 36.3533 12.878C38.2429 11.7382 40.5226 11.7082 42.4722 12.788L67.0981 26.3757L58.4295 35.0442Z" fill="#4CAF50"/>
    <path d="M68.8682 44.6723L42.4726 59.2199C41.5428 59.7598 40.493 59.9998 39.4732 59.9998C38.3933 59.9998 37.3135 59.7298 36.3537 59.1299C35.9337 58.8899 35.5438 58.59 35.2139 58.26L58.43 35.0439L60.6796 37.1136L68.8682 44.6723Z" fill="#F44336"/>
  </g>
  <path d="M102.733 19H101.852C101.8 18.7467 101.709 18.5241 101.579 18.3324C101.451 18.1406 101.295 17.9796 101.11 17.8494C100.928 17.7169 100.725 17.6174 100.503 17.5511C100.28 17.4848 100.048 17.4517 99.8068 17.4517C99.3665 17.4517 98.9676 17.563 98.6101 17.7855C98.255 18.008 97.9721 18.3359 97.7614 18.7692C97.553 19.2024 97.4489 19.7339 97.4489 20.3636C97.4489 20.9934 97.553 21.5249 97.7614 21.9581C97.9721 22.3913 98.255 22.7192 98.6101 22.9418C98.9676 23.1643 99.3665 23.2756 99.8068 23.2756C100.048 23.2756 100.28 23.2424 100.503 23.1761C100.725 23.1098 100.928 23.0116 101.11 22.8814C101.295 22.7488 101.451 22.5866 101.579 22.3949C101.709 22.2008 101.8 21.9782 101.852 21.7273H102.733C102.667 22.099 102.546 22.4316 102.371 22.7251C102.196 23.0187 101.978 23.2685 101.717 23.4744C101.457 23.678 101.165 23.8331 100.84 23.9396C100.518 24.0462 100.174 24.0994 99.8068 24.0994C99.1866 24.0994 98.6349 23.9479 98.152 23.6449C97.669 23.3419 97.2891 22.911 97.0121 22.3523C96.7351 21.7936 96.5966 21.1307 96.5966 20.3636C96.5966 19.5966 96.7351 18.9337 97.0121 18.375C97.2891 17.8163 97.669 17.3854 98.152 17.0824C98.6349 16.7794 99.1866 16.6278 99.8068 16.6278C100.174 16.6278 100.518 16.6811 100.84 16.7876C101.165 16.8942 101.457 17.0504 101.717 17.2564C101.978 17.46 102.196 17.7086 102.371 18.0021C102.546 18.2933 102.667 18.6259 102.733 19ZM106.258 24.1136C105.766 24.1136 105.334 23.9964 104.962 23.7621C104.593 23.5277 104.304 23.1998 104.096 22.7784C103.89 22.357 103.787 21.8646 103.787 21.3011C103.787 20.733 103.89 20.237 104.096 19.8132C104.304 19.3894 104.593 19.0604 104.962 18.826C105.334 18.5916 105.766 18.4744 106.258 18.4744C106.751 18.4744 107.182 18.5916 107.551 18.826C107.923 19.0604 108.211 19.3894 108.417 19.8132C108.626 20.237 108.73 20.733 108.73 21.3011C108.73 21.8646 108.626 22.357 108.417 22.7784C108.211 23.1998 107.923 23.5277 107.551 23.7621C107.182 23.9964 106.751 24.1136 106.258 24.1136ZM106.258 23.3608C106.632 23.3608 106.94 23.2649 107.182 23.0732C107.423 22.8814 107.602 22.6293 107.718 22.3168C107.834 22.0043 107.892 21.6657 107.892 21.3011C107.892 20.9366 107.834 20.5968 107.718 20.282C107.602 19.9671 107.423 19.7126 107.182 19.5185C106.94 19.3243 106.632 19.2273 106.258 19.2273C105.884 19.2273 105.577 19.3243 105.335 19.5185C105.094 19.7126 104.915 19.9671 104.799 20.282C104.683 20.5968 104.625 20.9366 104.625 21.3011C104.625 21.6657 104.683 22.0043 104.799 22.3168C104.915 22.6293 105.094 22.8814 105.335 23.0732C105.577 23.2649 105.884 23.3608 106.258 23.3608ZM110.009 24V18.5455H110.819V19.3977H110.89C111.004 19.1065 111.187 18.8804 111.44 18.7195C111.694 18.5561 111.998 18.4744 112.353 18.4744C112.713 18.4744 113.012 18.5561 113.251 18.7195C113.493 18.8804 113.681 19.1065 113.816 19.3977H113.873C114.013 19.116 114.222 18.8923 114.501 18.7266C114.781 18.5585 115.116 18.4744 115.506 18.4744C115.994 18.4744 116.393 18.6271 116.703 18.9325C117.013 19.2356 117.168 19.7079 117.168 20.3494V24H116.33V20.3494C116.33 19.947 116.22 19.6593 116 19.4865C115.78 19.3137 115.521 19.2273 115.222 19.2273C114.839 19.2273 114.542 19.3433 114.331 19.5753C114.12 19.8049 114.015 20.0961 114.015 20.4489V24H113.163V20.2642C113.163 19.9541 113.062 19.7043 112.861 19.5149C112.66 19.3232 112.4 19.2273 112.083 19.2273C111.865 19.2273 111.662 19.2853 111.472 19.4013C111.285 19.5173 111.134 19.6783 111.018 19.8842C110.904 20.0878 110.847 20.3234 110.847 20.5909V24H110.009ZM118.701 24V18.5455H119.539V24H118.701ZM119.127 17.6364C118.963 17.6364 118.823 17.5807 118.704 17.4695C118.588 17.3582 118.53 17.2244 118.53 17.0682C118.53 16.9119 118.588 16.7782 118.704 16.6669C118.823 16.5556 118.963 16.5 119.127 16.5C119.29 16.5 119.43 16.5556 119.546 16.6669C119.664 16.7782 119.723 16.9119 119.723 17.0682C119.723 17.2244 119.664 17.3582 119.546 17.4695C119.43 17.5807 119.29 17.6364 119.127 17.6364ZM121.912 20.7188V24H121.074V18.5455H121.883V19.3977H121.954C122.082 19.1207 122.276 18.8982 122.537 18.7301C122.797 18.5597 123.133 18.4744 123.545 18.4744C123.915 18.4744 124.238 18.5502 124.515 18.7017C124.792 18.8509 125.007 19.0781 125.161 19.3835C125.315 19.6866 125.392 20.0701 125.392 20.5341V24H124.554V20.5909C124.554 20.1624 124.443 19.8286 124.22 19.5895C123.997 19.348 123.692 19.2273 123.304 19.2273C123.036 19.2273 122.797 19.2853 122.586 19.4013C122.378 19.5173 122.214 19.6866 122.093 19.9091C121.972 20.1316 121.912 20.4015 121.912 20.7188ZM129.125 26.1591C128.72 26.1591 128.372 26.107 128.081 26.0028C127.79 25.901 127.547 25.7661 127.353 25.598C127.161 25.4323 127.009 25.2547 126.895 25.0653L127.562 24.5966C127.638 24.696 127.734 24.8097 127.85 24.9375C127.966 25.0677 128.125 25.1802 128.326 25.2749C128.53 25.3719 128.796 25.4205 129.125 25.4205C129.565 25.4205 129.929 25.3139 130.215 25.1009C130.502 24.8878 130.645 24.554 130.645 24.0994V22.9915H130.574C130.512 23.0909 130.425 23.214 130.311 23.3608C130.2 23.5052 130.039 23.6342 129.828 23.7479C129.62 23.8591 129.338 23.9148 128.983 23.9148C128.543 23.9148 128.147 23.8106 127.797 23.6023C127.449 23.3939 127.173 23.0909 126.969 22.6932C126.768 22.2955 126.668 21.8125 126.668 21.2443C126.668 20.6856 126.766 20.1991 126.962 19.7848C127.159 19.3681 127.432 19.0462 127.783 18.8189C128.133 18.5893 128.538 18.4744 128.997 18.4744C129.352 18.4744 129.634 18.5336 129.842 18.652C130.053 18.768 130.214 18.9006 130.325 19.0497C130.439 19.1965 130.527 19.3172 130.588 19.4119H130.673V18.5455H131.483V24.1562C131.483 24.625 131.376 25.0062 131.163 25.2997C130.953 25.5956 130.669 25.8123 130.311 25.9496C129.956 26.0893 129.561 26.1591 129.125 26.1591ZM129.097 23.1619C129.433 23.1619 129.717 23.085 129.949 22.9311C130.181 22.7772 130.357 22.5559 130.478 22.267C130.599 21.9782 130.659 21.6326 130.659 21.2301C130.659 20.8371 130.6 20.4903 130.482 20.1896C130.363 19.889 130.188 19.6534 129.956 19.483C129.724 19.3125 129.438 19.2273 129.097 19.2273C128.741 19.2273 128.446 19.3172 128.209 19.4972C127.974 19.6771 127.798 19.9186 127.68 20.2216C127.564 20.5246 127.506 20.8608 127.506 21.2301C127.506 21.6089 127.565 21.9439 127.683 22.2351C127.804 22.5239 127.982 22.7512 128.216 22.9169C128.453 23.0803 128.746 23.1619 129.097 23.1619ZM139.693 19.767L138.94 19.9801C138.893 19.8546 138.823 19.7327 138.731 19.6143C138.641 19.4936 138.518 19.3942 138.362 19.3161C138.205 19.2379 138.005 19.1989 137.761 19.1989C137.428 19.1989 137.149 19.2758 136.927 19.4297C136.707 19.5812 136.597 19.7741 136.597 20.0085C136.597 20.2169 136.672 20.3814 136.824 20.5021C136.975 20.6229 137.212 20.7235 137.534 20.804L138.344 21.0028C138.831 21.1212 139.195 21.3023 139.434 21.5462C139.673 21.7876 139.793 22.099 139.793 22.4801C139.793 22.7926 139.703 23.072 139.523 23.3182C139.345 23.5644 139.097 23.7585 138.777 23.9006C138.457 24.0426 138.086 24.1136 137.662 24.1136C137.106 24.1136 136.645 23.9929 136.281 23.7514C135.916 23.5099 135.685 23.1572 135.588 22.6932L136.384 22.4943C136.459 22.7879 136.603 23.008 136.813 23.1548C137.026 23.3016 137.304 23.375 137.648 23.375C138.038 23.375 138.348 23.2921 138.578 23.1264C138.81 22.9583 138.926 22.7571 138.926 22.5227C138.926 22.3333 138.86 22.1747 138.727 22.0469C138.595 21.9167 138.391 21.8196 138.116 21.7557L137.207 21.5426C136.708 21.4242 136.341 21.2408 136.107 20.9922C135.875 20.7412 135.759 20.4276 135.759 20.0511C135.759 19.7434 135.845 19.4711 136.018 19.2344C136.193 18.9976 136.431 18.8118 136.732 18.6768C137.035 18.5419 137.378 18.4744 137.761 18.4744C138.301 18.4744 138.725 18.5928 139.033 18.8295C139.343 19.0663 139.563 19.3788 139.693 19.767ZM143.27 24.1136C142.778 24.1136 142.346 23.9964 141.974 23.7621C141.605 23.5277 141.316 23.1998 141.107 22.7784C140.901 22.357 140.798 21.8646 140.798 21.3011C140.798 20.733 140.901 20.237 141.107 19.8132C141.316 19.3894 141.605 19.0604 141.974 18.826C142.346 18.5916 142.778 18.4744 143.27 18.4744C143.762 18.4744 144.193 18.5916 144.563 18.826C144.934 19.0604 145.223 19.3894 145.429 19.8132C145.637 20.237 145.742 20.733 145.742 21.3011C145.742 21.8646 145.637 22.357 145.429 22.7784C145.223 23.1998 144.934 23.5277 144.563 23.7621C144.193 23.9964 143.762 24.1136 143.27 24.1136ZM143.27 23.3608C143.644 23.3608 143.952 23.2649 144.193 23.0732C144.435 22.8814 144.614 22.6293 144.73 22.3168C144.846 22.0043 144.904 21.6657 144.904 21.3011C144.904 20.9366 144.846 20.5968 144.73 20.282C144.614 19.9671 144.435 19.7126 144.193 19.5185C143.952 19.3243 143.644 19.2273 143.27 19.2273C142.896 19.2273 142.588 19.3243 142.347 19.5185C142.105 19.7126 141.927 19.9671 141.811 20.282C141.695 20.5968 141.637 20.9366 141.637 21.3011C141.637 21.6657 141.695 22.0043 141.811 22.3168C141.927 22.6293 142.105 22.8814 142.347 23.0732C142.588 23.2649 142.896 23.3608 143.27 23.3608ZM149.237 24.1136C148.744 24.1136 148.312 23.9964 147.941 23.7621C147.571 23.5277 147.283 23.1998 147.074 22.7784C146.868 22.357 146.765 21.8646 146.765 21.3011C146.765 20.733 146.868 20.237 147.074 19.8132C147.283 19.3894 147.571 19.0604 147.941 18.826C148.312 18.5916 148.744 18.4744 149.237 18.4744C149.729 18.4744 150.16 18.5916 150.529 18.826C150.901 19.0604 151.19 19.3894 151.396 19.8132C151.604 20.237 151.708 20.733 151.708 21.3011C151.708 21.8646 151.604 22.357 151.396 22.7784C151.19 23.1998 150.901 23.5277 150.529 23.7621C150.16 23.9964 149.729 24.1136 149.237 24.1136ZM149.237 23.3608C149.611 23.3608 149.919 23.2649 150.16 23.0732C150.402 22.8814 150.58 22.6293 150.696 22.3168C150.812 22.0043 150.87 21.6657 150.87 21.3011C150.87 20.9366 150.812 20.5968 150.696 20.282C150.58 19.9671 150.402 19.7126 150.16 19.5185C149.919 19.3243 149.611 19.2273 149.237 19.2273C148.863 19.2273 148.555 19.3243 148.314 19.5185C148.072 19.7126 147.893 19.9671 147.777 20.282C147.661 20.5968 147.603 20.9366 147.603 21.3011C147.603 21.6657 147.661 22.0043 147.777 22.3168C147.893 22.6293 148.072 22.8814 148.314 23.0732C148.555 23.2649 148.863 23.3608 149.237 23.3608ZM153.826 20.7188V24H152.988V18.5455H153.797V19.3977H153.868C153.996 19.1207 154.19 18.8982 154.451 18.7301C154.711 18.5597 155.047 18.4744 155.459 18.4744C155.829 18.4744 156.152 18.5502 156.429 18.7017C156.706 18.8509 156.921 19.0781 157.075 19.3835C157.229 19.6866 157.306 20.0701 157.306 20.5341V24H156.468V20.5909C156.468 20.1624 156.357 19.8286 156.134 19.5895C155.912 19.348 155.606 19.2273 155.218 19.2273C154.95 19.2273 154.711 19.2853 154.501 19.4013C154.292 19.5173 154.128 19.6866 154.007 19.9091C153.886 20.1316 153.826 20.4015 153.826 20.7188ZM163.866 24.1136C163.373 24.1136 162.941 23.9964 162.57 23.7621C162.2 23.5277 161.911 23.1998 161.703 22.7784C161.497 22.357 161.394 21.8646 161.394 21.3011C161.394 20.733 161.497 20.237 161.703 19.8132C161.911 19.3894 162.2 19.0604 162.57 18.826C162.941 18.5916 163.373 18.4744 163.866 18.4744C164.358 18.4744 164.789 18.5916 165.158 18.826C165.53 19.0604 165.819 19.3894 166.025 19.8132C166.233 20.237 166.337 20.733 166.337 21.3011C166.337 21.8646 166.233 22.357 166.025 22.7784C165.819 23.1998 165.53 23.5277 165.158 23.7621C164.789 23.9964 164.358 24.1136 163.866 24.1136ZM163.866 23.3608C164.24 23.3608 164.548 23.2649 164.789 23.0732C165.031 22.8814 165.209 22.6293 165.325 22.3168C165.441 22.0043 165.499 21.6657 165.499 21.3011C165.499 20.9366 165.441 20.5968 165.325 20.282C165.209 19.9671 165.031 19.7126 164.789 19.5185C164.548 19.3243 164.24 19.2273 163.866 19.2273C163.492 19.2273 163.184 19.3243 162.942 19.5185C162.701 19.7126 162.522 19.9671 162.406 20.282C162.29 20.5968 162.232 20.9366 162.232 21.3011C162.232 21.6657 162.29 22.0043 162.406 22.3168C162.522 22.6293 162.701 22.8814 162.942 23.0732C163.184 23.2649 163.492 23.3608 163.866 23.3608ZM168.455 20.7188V24H167.617V18.5455H168.426V19.3977H168.497C168.625 19.1207 168.819 18.8982 169.08 18.7301C169.34 18.5597 169.676 18.4744 170.088 18.4744C170.458 18.4744 170.781 18.5502 171.058 18.7017C171.335 18.8509 171.55 19.0781 171.704 19.3835C171.858 19.6866 171.935 20.0701 171.935 20.5341V24H171.097V20.5909C171.097 20.1624 170.985 19.8286 170.763 19.5895C170.54 19.348 170.235 19.2273 169.847 19.2273C169.579 19.2273 169.34 19.2853 169.129 19.4013C168.921 19.5173 168.757 19.6866 168.636 19.9091C168.515 20.1316 168.455 20.4015 168.455 20.7188Z" fill="#00176A"/>
  <path d="M103 51.2C101.773 51.2 100.727 50.9867 99.86 50.56C99.0067 50.1333 98.34 49.52 97.86 48.72C97.3933 47.9067 97.14 46.94 97.1 45.82C97.0867 45.2467 97.08 44.6333 97.08 43.98C97.08 43.3133 97.0867 42.6867 97.1 42.1C97.14 40.9933 97.3933 40.0467 97.86 39.26C98.34 38.4733 99.0133 37.8667 99.88 37.44C100.76 37.0133 101.8 36.8 103 36.8C103.973 36.8 104.827 36.9333 105.56 37.2C106.293 37.4533 106.9 37.7867 107.38 38.2C107.873 38.6 108.24 39.0333 108.48 39.5C108.733 39.9667 108.867 40.4 108.88 40.8C108.893 40.92 108.86 41.02 108.78 41.1C108.7 41.18 108.593 41.22 108.46 41.22H106.4C106.267 41.22 106.167 41.1933 106.1 41.14C106.033 41.0867 105.973 41.0067 105.92 40.9C105.813 40.62 105.647 40.3467 105.42 40.08C105.193 39.8 104.887 39.5667 104.5 39.38C104.113 39.1933 103.613 39.1 103 39.1C102.093 39.1 101.367 39.34 100.82 39.82C100.287 40.3 100 41.0933 99.96 42.2C99.92 43.36 99.92 44.5333 99.96 45.72C100 46.8533 100.293 47.6667 100.84 48.16C101.4 48.6533 102.133 48.9 103.04 48.9C103.64 48.9 104.173 48.7933 104.64 48.58C105.12 48.3667 105.493 48.0333 105.76 47.58C106.04 47.1267 106.18 46.5467 106.18 45.84V45.22H103.74C103.607 45.22 103.493 45.1733 103.4 45.08C103.307 44.9867 103.26 44.8667 103.26 44.72V43.66C103.26 43.5133 103.307 43.3933 103.4 43.3C103.493 43.2067 103.607 43.16 103.74 43.16H108.52C108.667 43.16 108.78 43.2067 108.86 43.3C108.953 43.3933 109 43.5133 109 43.66V45.76C109 46.88 108.753 47.8467 108.26 48.66C107.78 49.4733 107.087 50.1 106.18 50.54C105.287 50.98 104.227 51.2 103 51.2ZM115.924 51.2C114.857 51.2 113.957 51.0133 113.224 50.64C112.504 50.2667 111.951 49.74 111.564 49.06C111.191 48.38 110.977 47.5867 110.924 46.68C110.911 46.44 110.904 46.1467 110.904 45.8C110.904 45.4533 110.911 45.16 110.924 44.92C110.977 44 111.197 43.2067 111.584 42.54C111.984 41.86 112.544 41.3333 113.264 40.96C113.997 40.5867 114.884 40.4 115.924 40.4C116.964 40.4 117.844 40.5867 118.564 40.96C119.297 41.3333 119.857 41.86 120.244 42.54C120.644 43.2067 120.871 44 120.924 44.92C120.937 45.16 120.944 45.4533 120.944 45.8C120.944 46.1467 120.937 46.44 120.924 46.68C120.871 47.5867 120.651 48.38 120.264 49.06C119.891 49.74 119.337 50.2667 118.604 50.64C117.884 51.0133 116.991 51.2 115.924 51.2ZM115.924 49.22C116.631 49.22 117.177 49 117.564 48.56C117.951 48.1067 118.164 47.4467 118.204 46.58C118.217 46.38 118.224 46.12 118.224 45.8C118.224 45.48 118.217 45.22 118.204 45.02C118.164 44.1667 117.951 43.5133 117.564 43.06C117.177 42.6067 116.631 42.38 115.924 42.38C115.217 42.38 114.671 42.6067 114.284 43.06C113.897 43.5133 113.684 44.1667 113.644 45.02C113.631 45.22 113.624 45.48 113.624 45.8C113.624 46.12 113.631 46.38 113.644 46.58C113.684 47.4467 113.897 48.1067 114.284 48.56C114.671 49 115.217 49.22 115.924 49.22ZM127.76 51.2C126.693 51.2 125.793 51.0133 125.06 50.64C124.34 50.2667 123.787 49.74 123.4 49.06C123.027 48.38 122.813 47.5867 122.76 46.68C122.747 46.44 122.74 46.1467 122.74 45.8C122.74 45.4533 122.747 45.16 122.76 44.92C122.813 44 123.033 43.2067 123.42 42.54C123.82 41.86 124.38 41.3333 125.1 40.96C125.833 40.5867 126.72 40.4 127.76 40.4C128.8 40.4 129.68 40.5867 130.4 40.96C131.133 41.3333 131.693 41.86 132.08 42.54C132.48 43.2067 132.707 44 132.76 44.92C132.773 45.16 132.78 45.4533 132.78 45.8C132.78 46.1467 132.773 46.44 132.76 46.68C132.707 47.5867 132.487 48.38 132.1 49.06C131.727 49.74 131.173 50.2667 130.44 50.64C129.72 51.0133 128.827 51.2 127.76 51.2ZM127.76 49.22C128.467 49.22 129.013 49 129.4 48.56C129.787 48.1067 130 47.4467 130.04 46.58C130.053 46.38 130.06 46.12 130.06 45.8C130.06 45.48 130.053 45.22 130.04 45.02C130 44.1667 129.787 43.5133 129.4 43.06C129.013 42.6067 128.467 42.38 127.76 42.38C127.053 42.38 126.507 42.6067 126.12 43.06C125.733 43.5133 125.52 44.1667 125.48 45.02C125.467 45.22 125.46 45.48 125.46 45.8C125.46 46.12 125.467 46.38 125.48 46.58C125.52 47.4467 125.733 48.1067 126.12 48.56C126.507 49 127.053 49.22 127.76 49.22ZM139.696 55.4C138.722 55.4 137.922 55.2733 137.296 55.02C136.669 54.7667 136.176 54.46 135.816 54.1C135.456 53.74 135.196 53.38 135.036 53.02C134.889 52.6733 134.809 52.4 134.796 52.2C134.782 52.0667 134.822 51.9467 134.916 51.84C135.022 51.7467 135.142 51.7 135.276 51.7H137.016C137.149 51.7 137.256 51.7267 137.336 51.78C137.416 51.8467 137.482 51.96 137.536 52.12C137.616 52.2933 137.722 52.48 137.856 52.68C137.989 52.88 138.189 53.0467 138.456 53.18C138.736 53.3267 139.116 53.4 139.596 53.4C140.102 53.4 140.529 53.3267 140.876 53.18C141.222 53.0333 141.482 52.7867 141.656 52.44C141.842 52.0933 141.936 51.6133 141.936 51V49.64C141.616 50.0267 141.202 50.34 140.696 50.58C140.202 50.82 139.589 50.94 138.856 50.94C138.136 50.94 137.516 50.8267 136.996 50.6C136.476 50.36 136.042 50.0333 135.696 49.62C135.349 49.1933 135.082 48.6933 134.896 48.12C134.722 47.5467 134.622 46.9133 134.596 46.22C134.582 45.86 134.582 45.5 134.596 45.14C134.622 44.4733 134.722 43.8533 134.896 43.28C135.069 42.7067 135.329 42.2067 135.676 41.78C136.036 41.34 136.476 41 136.996 40.76C137.516 40.52 138.136 40.4 138.856 40.4C139.616 40.4 140.256 40.5467 140.776 40.84C141.296 41.12 141.722 41.4733 142.056 41.9V41.1C142.056 40.9533 142.102 40.8333 142.196 40.74C142.289 40.6467 142.402 40.6 142.536 40.6H144.156C144.289 40.6 144.402 40.6467 144.496 40.74C144.589 40.8333 144.636 40.9533 144.636 41.1L144.656 50.74C144.656 51.7 144.476 52.5267 144.116 53.22C143.756 53.9133 143.209 54.4467 142.476 54.82C141.756 55.2067 140.829 55.4 139.696 55.4ZM139.596 48.82C140.142 48.82 140.582 48.7 140.916 48.46C141.249 48.22 141.496 47.9067 141.656 47.52C141.816 47.1333 141.909 46.74 141.936 46.34C141.949 46.1667 141.956 45.9467 141.956 45.68C141.956 45.4133 141.949 45.2 141.936 45.04C141.909 44.6267 141.816 44.2333 141.656 43.86C141.496 43.4733 141.249 43.16 140.916 42.92C140.582 42.6667 140.142 42.54 139.596 42.54C139.049 42.54 138.609 42.6667 138.276 42.92C137.942 43.16 137.702 43.48 137.556 43.88C137.422 44.28 137.342 44.72 137.316 45.2C137.289 45.52 137.289 45.8467 137.316 46.18C137.342 46.6467 137.422 47.0867 137.556 47.5C137.702 47.9 137.942 48.22 138.276 48.46C138.609 48.7 139.049 48.82 139.596 48.82ZM147.82 51C147.687 51 147.573 50.9533 147.48 50.86C147.387 50.7667 147.34 50.6533 147.34 50.52V37.28C147.34 37.1467 147.387 37.0333 147.48 36.94C147.573 36.8467 147.687 36.8 147.82 36.8H149.48C149.613 36.8 149.727 36.8467 149.82 36.94C149.913 37.0333 149.96 37.1467 149.96 37.28V50.52C149.96 50.6533 149.913 50.7667 149.82 50.86C149.727 50.9533 149.613 51 149.48 51H147.82ZM157.093 51.2C155.613 51.2 154.44 50.7733 153.573 49.92C152.706 49.0667 152.24 47.8533 152.173 46.28C152.16 46.1467 152.153 45.98 152.153 45.78C152.153 45.5667 152.16 45.4 152.173 45.28C152.226 44.28 152.453 43.4133 152.853 42.68C153.266 41.9467 153.833 41.3867 154.553 41C155.273 40.6 156.12 40.4 157.093 40.4C158.173 40.4 159.08 40.6267 159.813 41.08C160.546 41.52 161.1 42.14 161.473 42.94C161.846 43.7267 162.033 44.64 162.033 45.68V46.1C162.033 46.2333 161.986 46.3467 161.893 46.44C161.8 46.5333 161.68 46.58 161.533 46.58H154.893C154.893 46.58 154.893 46.6 154.893 46.64C154.893 46.68 154.893 46.7133 154.893 46.74C154.906 47.2067 154.993 47.64 155.153 48.04C155.326 48.4267 155.573 48.74 155.893 48.98C156.226 49.22 156.62 49.34 157.073 49.34C157.446 49.34 157.76 49.2867 158.013 49.18C158.266 49.06 158.473 48.9267 158.633 48.78C158.793 48.6333 158.906 48.5133 158.973 48.42C159.093 48.26 159.186 48.1667 159.253 48.14C159.333 48.1 159.446 48.08 159.593 48.08H161.313C161.446 48.08 161.553 48.12 161.633 48.2C161.726 48.28 161.766 48.38 161.753 48.5C161.74 48.7133 161.626 48.9733 161.413 49.28C161.213 49.5867 160.92 49.8867 160.533 50.18C160.146 50.4733 159.66 50.72 159.073 50.92C158.5 51.1067 157.84 51.2 157.093 51.2ZM154.893 44.9H159.313V44.84C159.313 44.32 159.226 43.8667 159.053 43.48C158.88 43.0933 158.626 42.7867 158.293 42.56C157.96 42.3333 157.56 42.22 157.093 42.22C156.626 42.22 156.226 42.3333 155.893 42.56C155.56 42.7867 155.306 43.0933 155.133 43.48C154.973 43.8667 154.893 44.32 154.893 44.84V44.9ZM169.446 51C169.313 51 169.2 50.9533 169.106 50.86C169.013 50.7667 168.966 50.6533 168.966 50.52V37.5C168.966 37.3533 169.013 37.2333 169.106 37.14C169.2 37.0467 169.313 37 169.446 37H174.806C175.846 37 176.753 37.1667 177.526 37.5C178.3 37.82 178.9 38.3133 179.326 38.98C179.753 39.6333 179.966 40.4533 179.966 41.44C179.966 42.44 179.753 43.2667 179.326 43.92C178.9 44.56 178.3 45.04 177.526 45.36C176.753 45.68 175.846 45.84 174.806 45.84H171.826V50.52C171.826 50.6533 171.78 50.7667 171.686 50.86C171.606 50.9533 171.493 51 171.346 51H169.446ZM171.786 43.62H174.706C175.48 43.62 176.073 43.44 176.486 43.08C176.9 42.7067 177.106 42.16 177.106 41.44C177.106 40.7733 176.913 40.24 176.526 39.84C176.14 39.4267 175.533 39.22 174.706 39.22H171.786V43.62ZM182.41 51C182.277 51 182.163 50.9533 182.07 50.86C181.977 50.7667 181.93 50.6533 181.93 50.52V37.28C181.93 37.1467 181.977 37.0333 182.07 36.94C182.163 36.8467 182.277 36.8 182.41 36.8H184.07C184.203 36.8 184.317 36.8467 184.41 36.94C184.503 37.0333 184.55 37.1467 184.55 37.28V50.52C184.55 50.6533 184.503 50.7667 184.41 50.86C184.317 50.9533 184.203 51 184.07 51H182.41ZM190.223 51.2C189.529 51.2 188.903 51.0667 188.343 50.8C187.783 50.52 187.336 50.1533 187.003 49.7C186.683 49.2333 186.523 48.7133 186.523 48.14C186.523 47.2067 186.896 46.4667 187.643 45.92C188.403 45.36 189.403 44.9867 190.643 44.8L193.383 44.4V43.98C193.383 43.42 193.243 42.9867 192.963 42.68C192.683 42.3733 192.203 42.22 191.523 42.22C191.043 42.22 190.649 42.32 190.343 42.52C190.049 42.7067 189.829 42.96 189.683 43.28C189.576 43.4533 189.423 43.54 189.223 43.54H187.643C187.496 43.54 187.383 43.5 187.303 43.42C187.236 43.34 187.203 43.2333 187.203 43.1C187.216 42.8867 187.303 42.6267 187.463 42.32C187.623 42.0133 187.876 41.72 188.223 41.44C188.569 41.1467 189.016 40.9 189.563 40.7C190.109 40.5 190.769 40.4 191.543 40.4C192.383 40.4 193.089 40.5067 193.663 40.72C194.249 40.92 194.716 41.1933 195.063 41.54C195.409 41.8867 195.663 42.2933 195.823 42.76C195.983 43.2267 196.063 43.72 196.063 44.24V50.52C196.063 50.6533 196.016 50.7667 195.923 50.86C195.829 50.9533 195.716 51 195.583 51H193.963C193.816 51 193.696 50.9533 193.603 50.86C193.523 50.7667 193.483 50.6533 193.483 50.52V49.74C193.309 49.9933 193.076 50.2333 192.783 50.46C192.489 50.6733 192.129 50.8533 191.703 51C191.289 51.1333 190.796 51.2 190.223 51.2ZM190.903 49.3C191.369 49.3 191.789 49.2 192.163 49C192.549 48.8 192.849 48.4933 193.063 48.08C193.289 47.6533 193.403 47.12 193.403 46.48V46.06L191.403 46.38C190.616 46.5 190.029 46.6933 189.643 46.96C189.256 47.2267 189.063 47.5533 189.063 47.94C189.063 48.2333 189.149 48.4867 189.323 48.7C189.509 48.9 189.743 49.0533 190.023 49.16C190.303 49.2533 190.596 49.3 190.903 49.3ZM200.235 54.8C200.128 54.8 200.035 54.76 199.955 54.68C199.875 54.6 199.835 54.5067 199.835 54.4C199.835 54.3467 199.835 54.2933 199.835 54.24C199.848 54.2 199.875 54.1467 199.915 54.08L201.475 50.38L197.635 41.32C197.582 41.1867 197.555 41.0933 197.555 41.04C197.568 40.92 197.615 40.82 197.695 40.74C197.775 40.6467 197.875 40.6 197.995 40.6H199.615C199.775 40.6 199.895 40.64 199.975 40.72C200.055 40.8 200.115 40.8867 200.155 40.98L202.815 47.52L205.555 40.98C205.595 40.8733 205.655 40.7867 205.735 40.72C205.815 40.64 205.935 40.6 206.095 40.6H207.695C207.802 40.6 207.895 40.64 207.975 40.72C208.068 40.8 208.115 40.8933 208.115 41C208.115 41.08 208.088 41.1867 208.035 41.32L202.375 54.42C202.322 54.5267 202.255 54.6133 202.175 54.68C202.095 54.76 201.975 54.8 201.815 54.8H200.235Z" fill="#00176A"/>
  <defs>
    <clipPath id="clip0_207_74616">
      <rect width="48" height="48" fill="white" transform="translate(32 12)"/>
    </clipPath>
  </defs>
</svg>
