<svg width="32" height="32" viewBox="0 0 32 32" fill="none" xmlns="http://www.w3.org/2000/svg">
<path d="M16 30.0625C23.7665 30.0625 30.0625 23.7665 30.0625 16C30.0625 8.2335 23.7665 1.9375 16 1.9375C8.2335 1.9375 1.9375 8.2335 1.9375 16C1.9375 23.7665 8.2335 30.0625 16 30.0625Z" fill="url(#paint0_linear_254_48706)"/>
<path d="M18.9876 8.1875H13.0188C10.3563 8.1875 8.19385 10.35 8.19385 13.0125V18.9812C8.19385 21.6438 10.3563 23.8062 13.0188 23.8062H18.9876C21.6501 23.8062 23.8126 21.6438 23.8126 18.9812V13.0125C23.8126 10.35 21.6501 8.1875 18.9876 8.1875ZM22.0688 18.9875C22.0688 20.6875 20.6876 22.075 18.9813 22.075H13.0126C11.3126 22.075 9.9251 20.6937 9.9251 18.9875V13.0187C9.9251 11.3187 11.3063 9.93125 13.0126 9.93125H18.9813C20.6813 9.93125 22.0688 11.3125 22.0688 13.0187V18.9875Z" fill="white"/>
<path d="M16.0001 12.0059C13.8001 12.0059 12.0063 13.7996 12.0063 15.9996C12.0063 18.1996 13.8001 19.9934 16.0001 19.9934C18.2001 19.9934 19.9938 18.1996 19.9938 15.9996C19.9938 13.7996 18.2001 12.0059 16.0001 12.0059ZM16.0001 18.4246C14.6626 18.4246 13.5751 17.3371 13.5751 15.9996C13.5751 14.6621 14.6626 13.5746 16.0001 13.5746C17.3376 13.5746 18.4251 14.6621 18.4251 15.9996C18.4251 17.3371 17.3376 18.4246 16.0001 18.4246Z" fill="white"/>
<path d="M20.2982 12.4442C20.6662 12.3845 20.9161 12.0379 20.8565 11.67C20.7968 11.302 20.4502 11.0521 20.0822 11.1117C19.7143 11.1714 19.4644 11.518 19.524 11.886C19.5837 12.2539 19.9303 12.5038 20.2982 12.4442Z" fill="white"/>
<defs>
<linearGradient id="paint0_linear_254_48706" x1="5.29244" y1="26.7076" x2="25.2768" y2="6.72319" gradientUnits="userSpaceOnUse">
<stop stop-color="#FEE411"/>
<stop offset="0.0518459" stop-color="#FEDB16"/>
<stop offset="0.1381" stop-color="#FEC125"/>
<stop offset="0.2481" stop-color="#FE983D"/>
<stop offset="0.3762" stop-color="#FE5F5E"/>
<stop offset="0.5" stop-color="#FE2181"/>
<stop offset="1" stop-color="#9000DC"/>
</linearGradient>
</defs>
</svg>
