<svg width="32" height="32" viewBox="0 0 32 32" fill="none" xmlns="http://www.w3.org/2000/svg">
<g clip-path="url(#clip0_50_594)">
<path d="M16 32C24.8366 32 32 24.8366 32 16C32 7.16344 24.8366 0 16 0C7.16344 0 0 7.16344 0 16C0 24.8366 7.16344 32 16 32Z" fill="#007AB9"/>
<path d="M25.5594 17.2878V23.8842H21.7349V17.7299C21.7349 16.1846 21.1827 15.1293 19.798 15.1293C18.7413 15.1293 18.1135 15.8397 17.8363 16.5277C17.7356 16.7735 17.7097 17.1149 17.7097 17.4598V23.8839H13.8849C13.8849 23.8839 13.9363 13.4605 13.8849 12.3815H17.71V14.0115C17.7023 14.0243 17.6914 14.0369 17.6846 14.0491H17.71V14.0115C18.2182 13.2294 19.1246 12.1114 21.1568 12.1114C23.6729 12.1114 25.5594 13.7554 25.5594 17.2878ZM9.88394 6.83691C8.57566 6.83691 7.71973 7.6957 7.71973 8.82401C7.71973 9.92836 8.55084 10.812 9.83374 10.812H9.85856C11.1925 10.812 12.0219 9.92836 12.0219 8.82401C11.9965 7.6957 11.1925 6.83691 9.88394 6.83691ZM7.94704 23.8842H11.7704V12.3815H7.94704V23.8842Z" fill="#F1F2F2"/>
</g>
<defs>
<clipPath id="clip0_50_594">
<rect width="32" height="32" fill="white"/>
</clipPath>
</defs>
</svg>
