<svg width="28" height="28" viewBox="0 0 28 28" fill="none" xmlns="http://www.w3.org/2000/svg">
  <circle cx="14" cy="14" r="14" fill="white"/>
  <path d="M14.2616 9.7751L19.8775 19.2H21.4816L14.8523 8.07509C14.4779 7.44632 13.5402 7.44632 13.1658 8.07509L6.5332 19.2H8.13726L13.7532 9.7751C13.8665 9.58547 14.1482 9.58547 14.2616 9.7751Z" fill="#1A64F0"/>
  <path d="M11.1138 19.1998L13.8474 14.5056C13.9166 14.3841 14.0928 14.3841 14.1652 14.5056L16.8988 19.1998H18.3678L14.3099 12.2365C14.1746 12.0058 13.838 12.0058 13.7059 12.2365L9.64795 19.1998H11.1138Z" fill="#26BEFF"/>
  <path d="M14.0448 12.9551L17.4885 19.1993H10.6011L14.0448 12.9551Z" fill="#26BEFF"/>
</svg>
