<svg width="8" height="8" viewBox="0 0 8 8" fill="none" xmlns="http://www.w3.org/2000/svg">
<path d="M5.39699 0.666748H2.60366C1.39033 0.666748 0.666992 1.39008 0.666992 2.60341V5.39341C0.666992 6.61008 1.39033 7.33341 2.60366 7.33341H5.39366C6.60699 7.33341 7.33033 6.61008 7.33033 5.39675V2.60341C7.33366 1.39008 6.61033 0.666748 5.39699 0.666748ZM5.62699 3.84341C5.62699 3.97341 5.52366 4.07675 5.39366 4.07675C5.26366 4.07675 5.16033 3.97341 5.16033 3.84341V3.78341L4.25366 4.69008C4.20366 4.74008 4.13699 4.76341 4.06699 4.75675C3.99699 4.75008 3.93366 4.71341 3.89699 4.65341L3.55699 4.14675L2.76366 4.94008C2.71699 4.98675 2.66033 5.00675 2.60033 5.00675C2.54033 5.00675 2.48033 4.98341 2.43699 4.94008C2.34699 4.85008 2.34699 4.70341 2.43699 4.61008L3.43033 3.61675C3.48033 3.56675 3.54699 3.54341 3.61699 3.55008C3.68699 3.55675 3.75033 3.59341 3.78699 3.65341L4.12699 4.16008L4.83033 3.45675H4.77033C4.64033 3.45675 4.53699 3.35341 4.53699 3.22341C4.53699 3.09341 4.64033 2.99008 4.77033 2.99008H5.39033C5.42033 2.99008 5.45033 2.99675 5.48033 3.00675C5.53699 3.03008 5.58366 3.07675 5.60699 3.13341C5.62033 3.16341 5.62366 3.19341 5.62366 3.22341V3.84341H5.62699Z" fill="#7D7D7D"/>
</svg>
