<svg width="1440" height="177" viewBox="0 0 1440 177" fill="none" xmlns="http://www.w3.org/2000/svg">
<mask id="mask0_1256_3552" style="mask-type:alpha" maskUnits="userSpaceOnUse" x="0" y="0" width="1440" height="177">
<path d="M0 177H1440V0H0V177Z" fill="white"/>
</mask>
<g mask="url(#mask0_1256_3552)">
<path d="M718.007 24.5342C478.168 -28.117 128.736 46.4723 -16 90.3483V261H1472V0C1347.08 49.4579 1017.81 90.3483 718.007 24.5342Z" fill="white"/>
<path d="M1472 0C1347.06 49.5317 1017.7 90.4831 717.84 24.5708C611.912 1.28706 484.61 2.84991 363 15.6396C363 15.6396 623.882 -7.80034 895.76 88.923C1167.64 185.646 1472 103.353 1472 103.353V0Z" fill="#003773"/>
<path d="M1472 0.000236511C1347.06 49.532 1101.5 79.4995 717.84 24.5711C717.84 24.5711 964.5 81.4995 1105 93.9996C1245.5 106.5 1472 57.9995 1472 57.9995V0.000236511Z" fill="#0094D3"/>
</g>
</svg>
