<svg width="1440" height="231" viewBox="0 0 1440 231" fill="none" xmlns="http://www.w3.org/2000/svg">
<mask id="mask0_1256_3546" style="mask-type:alpha" maskUnits="userSpaceOnUse" x="0" y="0" width="1440" height="231">
<path d="M0 0.5H1440V231H0V0.5Z" fill="white"/>
</mask>
<g mask="url(#mask0_1256_3546)">
<path d="M718.007 206.466C478.168 259.117 128.736 184.528 -16 140.652V-30H1472V231C1347.08 181.542 1017.81 140.652 718.007 206.466Z" fill="#1B202B"/>
<path d="M1472 231C1347.06 181.468 1017.7 140.517 717.84 206.429C611.912 229.713 484.61 228.15 363 215.36C363 215.36 623.882 238.8 895.76 142.077C1167.64 45.3537 1472 127.647 1472 127.647V231Z" fill="#003773"/>
<path d="M1472 230.999C1347.06 181.468 1101.5 151.5 717.84 206.428C717.84 206.428 964.5 149.5 1105 137C1245.5 124.5 1472 173 1472 173V230.999Z" fill="#0094D3"/>
</g>
</svg>
