<svg width="1440" height="160" viewBox="0 0 1440 160" fill="none" xmlns="http://www.w3.org/2000/svg">
<mask id="mask0_1241_3532" style="mask-type:alpha" maskUnits="userSpaceOnUse" x="0" y="0" width="1440" height="160">
<rect width="1440" height="160" transform="matrix(1 -8.97872e-08 -8.51207e-08 -1 0 160)" fill="white"/>
</mask>
<g mask="url(#mask0_1241_3532)">
<path d="M718.007 25.1979C478.168 -28.8773 128.736 47.7294 -16 92.7921L-16 268.059L1472 268.059L1472 0.000110537C1347.08 50.7957 1017.81 92.792 718.007 25.1979Z" fill="#1B202B"/>
<path d="M1472 -3.85388e-05C1347.06 50.8713 1017.7 92.9303 717.84 25.2354C611.912 1.32191 484.61 2.92704 363 16.0627C363 16.0627 623.882 -8.01127 895.76 91.3279C1167.64 190.667 1472 106.149 1472 106.149L1472 -3.85388e-05Z" fill="#003773"/>
<path d="M1472 0.000870702C1347.06 50.8722 1101.5 81.6503 717.84 25.2363C717.84 25.2363 964.5 83.7043 1105 96.5425C1245.5 109.381 1472 59.5688 1472 59.5688L1472 0.000870702Z" fill="#0094D3"/>
</g>
</svg>
