<svg width="24" height="24" viewBox="0 0 24 24" fill="none" xmlns="http://www.w3.org/2000/svg">
<path d="M23 12.5C23 18.8513 18.5 23.5 12 23.5C5.5 23.5 1 18.8513 1 12.5C1 6.14873 5.92487 1 12 1C18.0751 1 23 6.14873 23 12.5Z" fill="white"/>
<path d="M11.4933 0C11.832 0 12.168 0 12.5067 0C12.5467 0.008 12.584 0.016 12.624 0.0213333C13.1947 0.0906667 13.776 0.122667 14.3387 0.234667C15.9867 0.554667 17.4933 1.224 18.88 2.17067C19.9973 2.936 20.9467 3.87467 21.7307 4.97867C22.4267 5.95733 22.968 7.016 23.36 8.152C23.672 9.056 23.8773 9.984 23.9493 10.9387C23.9627 11.1253 23.984 11.3093 24 11.4933C24 11.8213 24 12.152 24 12.48C23.9813 12.7173 23.9653 12.9573 23.9413 13.1947C23.816 14.4293 23.504 15.616 23.008 16.7547C22.4 18.1467 21.5813 19.4 20.504 20.4773C19.2293 21.7547 17.7253 22.672 16.0373 23.2933C15.1547 23.616 14.248 23.8347 13.312 23.9253C13.0427 23.952 12.776 23.976 12.5067 24C12.1787 24 11.848 24 11.52 24C11.4907 23.9947 11.4613 23.9867 11.4293 23.984C10.928 23.9307 10.4213 23.9013 9.92267 23.816C8.76 23.6213 7.66133 23.2347 6.608 22.7067C5.07733 21.9387 3.76267 20.9067 2.688 19.5733C1.944 18.6533 1.36 17.6373 0.906667 16.5467C0.44 15.4293 0.146667 14.272 0.0533333 13.064C0.0373333 12.8773 0.016 12.6907 0 12.5067C0 12.168 0 11.832 0 11.4933C0.008 11.4267 0.016 11.3627 0.024 11.296C0.0933333 10.7467 0.133333 10.192 0.234667 9.648C0.432 8.584 0.808 7.576 1.29067 6.608C1.872 5.448 2.61067 4.4 3.53067 3.48533C4.768 2.256 6.22133 1.36533 7.848 0.749333C8.76533 0.402667 9.70933 0.170667 10.6853 0.0746667C10.9573 0.0506667 11.224 0.024 11.4933 0ZM15.9173 5.464C14.944 5.25067 13.976 5.03733 13.008 4.824C12.7707 4.77067 12.6693 4.832 12.616 5.06933C12.3653 6.208 12.1147 7.344 11.8667 8.48267C11.8133 8.72267 11.76 8.96267 11.7067 9.2C10.2027 9.272 8.81067 9.64267 7.576 10.4987C6.87467 9.77067 5.672 9.87733 5.09333 10.672C4.624 11.3173 4.65333 12.4853 5.704 13.056C5.704 13.064 5.70933 13.0747 5.70667 13.0827C5.488 14.1707 5.72267 15.16 6.416 16.0213C7.31467 17.1387 8.512 17.7947 9.88 18.1493C10.928 18.4213 11.992 18.464 13.064 18.3493C14.2053 18.2267 15.272 17.8853 16.2427 17.2613C16.9147 16.8293 17.5093 16.312 17.9227 15.6187C18.3787 14.8533 18.5333 14.0293 18.3547 13.1493C18.3387 13.0667 18.36 13.024 18.432 12.9787C18.9627 12.64 19.2373 12.1653 19.2053 11.52C19.1573 10.5333 18.2213 9.82133 17.248 10.0427C16.9387 10.112 16.6827 10.2667 16.448 10.488C15.2 9.624 13.7947 9.264 12.2853 9.2C12.568 7.93067 12.8453 6.67467 13.1253 5.41333C13.952 5.6 14.7653 5.78667 15.5787 5.96267C15.736 5.99733 15.8427 6.03733 15.8213 6.224C15.816 6.27467 15.84 6.328 15.856 6.37867C16.008 6.83467 16.432 7.18133 16.872 7.20267C17.432 7.232 17.8667 6.97867 18.1013 6.488C18.296 6.07467 18.2 5.53067 17.8667 5.176C17.3547 4.632 16.48 4.68 16.04 5.27733C15.9947 5.33333 15.96 5.4 15.9173 5.464Z" fill="#4A5568"/>
<path d="M8.16 13.1971C8.17067 12.5065 8.70666 11.9891 9.40265 11.9998C10.032 12.0105 10.5626 12.5678 10.5573 13.2078C10.552 13.8718 10.0106 14.4052 9.34665 14.3972C8.68533 14.3892 8.14933 13.8478 8.16 13.1971Z" fill="#4A5568"/>
<path d="M15.8401 13.2213C15.8321 13.8773 15.2908 14.4027 14.6294 14.3973C13.9681 14.392 13.4294 13.8427 13.4428 13.184C13.4561 12.5174 14.0028 11.992 14.6748 12C15.3254 12.008 15.8481 12.56 15.8401 13.2213Z" fill="#4A5568"/>
<path d="M12.1495 16.9015C11.4775 16.8828 10.8161 16.8241 10.1841 16.5841C9.87479 16.4668 9.59479 16.2988 9.35479 16.0668C9.19745 15.9121 9.18412 15.7948 9.31212 15.6561C9.44545 15.5121 9.60012 15.5095 9.75212 15.6535C10.0908 15.9735 10.5095 16.1228 10.9575 16.2001C11.8028 16.3441 12.6428 16.3388 13.4721 16.0881C13.7601 16.0001 14.0161 15.8561 14.2401 15.6508C14.3708 15.5308 14.5015 15.5175 14.6268 15.6028C14.8081 15.7281 14.8215 15.8908 14.6615 16.0481C14.2748 16.4268 13.8028 16.6428 13.2801 16.7415C12.9068 16.8135 12.5255 16.8508 12.1495 16.9015Z" fill="#4A5568"/>
</svg>
