<svg width="24" height="24" viewBox="0 0 24 24" fill="none" xmlns="http://www.w3.org/2000/svg">
<path d="M12 0C5.37253 0 0 5.37253 0 12C0 18.6275 5.37253 24 12 24C18.6275 24 24 18.6275 24 12C24 5.37253 18.6275 0 12 0Z" fill="#4A5568"/>
<path d="M17.8391 6.90253L15.6957 17.709C15.6957 17.709 15.396 18.4584 14.5716 18.0987L9.62557 14.3067L7.82707 13.4375L4.79951 12.4182C4.79951 12.4182 4.33489 12.2534 4.28989 11.8937C4.24489 11.534 4.81451 11.3392 4.81451 11.3392L16.8498 6.61791C16.8498 6.61791 17.839 6.18328 17.839 6.90272" fill="white"/>
<path d="M9.24534 17.5877C9.24534 17.5877 9.10097 17.5742 8.92097 17.0046C8.74125 16.4351 7.8269 13.4375 7.8269 13.4375L15.0961 8.82126C15.0961 8.82126 15.5158 8.56645 15.5008 8.82126C15.5008 8.82126 15.5757 8.86626 15.3508 9.07607C15.1261 9.28598 9.6405 14.2169 9.6405 14.2169" fill="#D2E5F1"/>
<path d="M11.5219 15.761L9.56561 17.5447C9.56561 17.5447 9.41261 17.6608 9.24536 17.588L9.61999 14.2749" fill="#B5CFE4"/>
</svg>
