<svg width="24" height="24" viewBox="0 0 24 24" fill="none" xmlns="http://www.w3.org/2000/svg">
<path fill-rule="evenodd" clip-rule="evenodd" d="M16.2463 15.2602L21.0035 20.2079C21.4059 20.6265 21.3926 21.2939 20.9744 21.6963C20.7775 21.8858 20.5182 21.99 20.2449 21.99C19.9561 21.99 19.6866 21.8753 19.4863 21.6672L14.693 16.682C13.3319 17.6384 11.74 18.1423 10.0694 18.1423C5.61962 18.1423 1.99927 14.522 1.99927 10.0721C1.99927 5.6223 5.61962 2.00195 10.0694 2.00195C14.5193 2.00195 18.1396 5.6223 18.1396 10.0721C18.1396 11.9767 17.4694 13.8062 16.2463 15.2602ZM16.0338 10.0716C16.0338 6.78243 13.358 4.10664 10.0689 4.10664C6.77974 4.10664 4.10396 6.78243 4.10396 10.0716C4.10396 13.3607 6.77974 16.0365 10.0689 16.0365C13.358 16.0365 16.0338 13.3607 16.0338 10.0716Z" fill="#111111"/>
</svg>
