<svg width="18" height="18" viewBox="0 0 18 18" fill="none" xmlns="http://www.w3.org/2000/svg">
<path d="M14.2929 0.505723C14.1087 0.193781 13.7659 0 13.3983 0H9.55664V4.45208H16.6225L14.2929 0.505723Z" fill="#1A64F0"/>
<path d="M8.47905 0H4.60114C4.23283 0 3.89004 0.194133 3.70588 0.506777L1.38477 4.45208H8.47902V0H8.47905Z" fill="#1A64F0"/>
<path d="M1 5.50708V16.7595C1 17.4435 1.56825 17.9999 2.26643 17.9999H15.7335C16.4316 17.9999 16.9999 17.4435 16.9999 16.7595V5.50708H1ZM11.4441 10.2391L8.65927 12.9676C8.5541 13.0706 8.41623 13.1223 8.27841 13.1223C8.14058 13.1223 8.00271 13.0706 7.8979 12.9676L6.59235 11.6888C6.38236 11.483 6.38236 11.1489 6.59235 10.9428C6.8027 10.7367 7.14374 10.7367 7.35409 10.9428L8.27844 11.8488L10.6828 9.49317C10.8932 9.28708 11.2342 9.28708 11.4442 9.49317C11.6545 9.69925 11.6545 10.033 11.4441 10.2391Z" fill="#1A64F0"/>
</svg>
