<svg width="18" height="18" viewBox="0 0 18 18" fill="none" xmlns="http://www.w3.org/2000/svg">
<g clip-path="url(#clip0_2294_101745)">
<path d="M12.375 6.75C9.27338 6.75 6.75 9.27338 6.75 12.375C6.75 15.4766 9.27338 18 12.375 18C15.4766 18 18 15.4766 18 12.375C18 9.27338 15.4766 6.75 12.375 6.75ZM12.375 11.8636C13.2209 11.8636 13.9091 12.5518 13.9091 13.3977C13.9091 14.0635 13.4803 14.6258 12.8864 14.8376V15.9545H11.8636V14.8376C11.2697 14.6258 10.8409 14.0635 10.8409 13.3977H11.8636C11.8636 13.6799 12.0929 13.9091 12.375 13.9091C12.6571 13.9091 12.8864 13.6799 12.8864 13.3977C12.8864 13.1156 12.6571 12.8864 12.375 12.8864C11.5291 12.8864 10.8409 12.1982 10.8409 11.3523C10.8409 10.6865 11.2697 10.1242 11.8636 9.91238V8.79545H12.8864V9.91238C13.4803 10.1242 13.9091 10.6865 13.9091 11.3523H12.8864C12.8864 11.0701 12.6571 10.8409 12.375 10.8409C12.0929 10.8409 11.8636 11.0701 11.8636 11.3523C11.8636 11.6344 12.0929 11.8636 12.375 11.8636Z" fill="#00BCD4"/>
<path d="M5.65889 6.75C8.79398 6.75 11.25 5.28369 11.25 3.41209C11.25 1.54048 8.79398 0 5.65889 0C2.5238 0 0 1.54048 0 3.41209C0 5.28369 2.5238 6.75 5.65889 6.75Z" fill="#00BCD4"/>
<path d="M0 12.375V13.0958C0 14.584 2.75474 15.75 6.17671 15.75C6.37082 15.75 6.55889 15.7358 6.75 15.7283C6.32444 15.1948 6.00706 14.6028 5.82016 13.9699C3.3456 13.9154 1.19695 13.3091 0 12.375Z" fill="#00BCD4"/>
<path d="M5.45283 12.375C5.44055 12.2349 5.42709 12.095 5.42709 11.9523C5.42709 11.4881 5.50025 11.0388 5.625 10.6058C3.23322 10.552 1.15651 9.94124 0 9V9.72564C0 11.1444 2.40156 12.2594 5.45283 12.375Z" fill="#00BCD4"/>
<path d="M6.28708 9C6.28768 9 6.28817 8.99994 6.28881 8.99994C6.66126 8.30265 7.20266 7.67408 7.875 7.14742C7.36499 7.19791 6.83793 7.23053 6.28708 7.23053C3.60596 7.23053 1.27722 6.60423 0 5.625V6.34579C0 7.83404 2.80396 9 6.28708 9Z" fill="#00BCD4"/>
</g>
<defs>
<clipPath id="clip0_2294_101745">
<rect width="18" height="18" fill="white"/>
</clipPath>
</defs>
</svg>
