<svg width="12" height="12" viewBox="0 0 12 12" fill="none" xmlns="http://www.w3.org/2000/svg">
<path d="M6 0L11.1962 3V9L6 12L0.803848 9V3L6 0Z" fill="#4F8CFF"/>
<path d="M6.00058 1.36475L10.0148 3.68237V8.31763L6.00058 10.6353L1.98633 8.31763V3.68237L6.00058 1.36475Z" fill="#4F8CFF"/>
<path fill-rule="evenodd" clip-rule="evenodd" d="M6.00058 2.51945L2.98633 4.25972V7.74028L6.00058 9.48055L9.01482 7.74028V4.25972L6.00058 2.51945ZM10.0148 3.68237L6.00058 1.36475L1.98633 3.68237V8.31763L6.00058 10.6353L10.0148 8.31763V3.68237Z" fill="white"/>
<path d="M5.11282 6.98337C5.41149 6.73448 5.64949 6.52759 5.82682 6.3627C6.00416 6.1947 6.15193 6.02048 6.27016 5.84004C6.38838 5.65959 6.44749 5.48226 6.44749 5.30804C6.44749 5.14937 6.41016 5.02493 6.33549 4.9347C6.26082 4.84448 6.14571 4.79937 5.99016 4.79937C5.8346 4.79937 5.71482 4.85226 5.63082 4.95804C5.54682 5.0607 5.50327 5.20226 5.50016 5.3827H4.86549C4.87793 5.00937 4.98838 4.72626 5.19682 4.53337C5.40838 4.34048 5.67593 4.24404 5.99949 4.24404C6.35416 4.24404 6.62638 4.33892 6.81616 4.5287C7.00593 4.71537 7.10082 4.9627 7.10082 5.2707C7.10082 5.51337 7.03549 5.74515 6.90482 5.96604C6.77416 6.18693 6.62482 6.37981 6.45682 6.5447C6.28882 6.70648 6.06949 6.90248 5.79882 7.1327H7.17549V7.67404H4.87016V7.1887L5.11282 6.98337Z" fill="white"/>
</svg>
