<svg width="12" height="12" viewBox="0 0 12 12" fill="none" xmlns="http://www.w3.org/2000/svg">
<path d="M6 0L11.1962 3V9L6 12L0.803848 9V3L6 0Z" fill="#E55300"/>
<path d="M6.00058 1.36475L10.0148 3.68237V8.31763L6.00058 10.6353L1.98633 8.31763V3.68237L6.00058 1.36475Z" fill="#E55300"/>
<path fill-rule="evenodd" clip-rule="evenodd" d="M6.00058 2.51945L2.98633 4.25972V7.74028L6.00058 9.48055L9.01482 7.74028V4.25972L6.00058 2.51945ZM10.0148 3.68237L6.00058 1.36475L1.98633 3.68237V8.31763L6.00058 10.6353L10.0148 8.31763V3.68237Z" fill="white"/>
<path d="M4.85986 5.2147C4.87541 4.90359 4.9843 4.66404 5.18652 4.49604C5.39186 4.32492 5.66097 4.23937 5.99386 4.23937C6.22097 4.23937 6.41541 4.27981 6.57719 4.3607C6.73897 4.43848 6.8603 4.54581 6.94119 4.6827C7.02519 4.81648 7.06719 4.96892 7.06719 5.14004C7.06719 5.33604 7.01586 5.50248 6.91319 5.63937C6.81363 5.77315 6.69386 5.86337 6.55386 5.91004V5.9287C6.7343 5.9847 6.8743 6.08426 6.97386 6.22737C7.07652 6.37048 7.12786 6.55404 7.12786 6.77804C7.12786 6.9647 7.0843 7.13115 6.99719 7.27737C6.91319 7.42359 6.78719 7.5387 6.61919 7.6227C6.4543 7.70359 6.25519 7.74404 6.02186 7.74404C5.6703 7.74404 5.38408 7.65537 5.16319 7.47804C4.9423 7.3007 4.82563 7.03937 4.81319 6.69404H5.44786C5.45408 6.84648 5.50541 6.96937 5.60186 7.0627C5.70141 7.15293 5.83675 7.19804 6.00786 7.19804C6.16652 7.19804 6.28786 7.15448 6.37186 7.06737C6.45897 6.97715 6.50252 6.86204 6.50252 6.72204C6.50252 6.53537 6.44341 6.40159 6.32519 6.3207C6.20697 6.23981 6.02341 6.19937 5.77452 6.19937H5.63919V5.6627H5.77452C6.2163 5.6627 6.43719 5.51493 6.43719 5.21937C6.43719 5.08559 6.39675 4.98137 6.31586 4.9067C6.23808 4.83204 6.12452 4.7947 5.97519 4.7947C5.82897 4.7947 5.71541 4.83515 5.63452 4.91604C5.55675 4.99381 5.51163 5.09337 5.49919 5.2147H4.85986Z" fill="white"/>
</svg>
