<svg width="8" height="8" viewBox="0 0 8 8" fill="none" xmlns="http://www.w3.org/2000/svg">
<g clip-path="url(#clip0_3485_17871)">
<path fill-rule="evenodd" clip-rule="evenodd" d="M1.3836 3.97123C1.3836 5.39391 2.53691 6.5472 3.95959 6.5472C5.30325 6.5472 6.40665 5.51842 6.52504 4.20557H7.76011C7.65335 6.18966 6.01072 7.76559 4 7.76559C1.9203 7.76559 0.234375 6.07967 0.234375 3.99996C0.234375 2.01261 1.7739 0.38484 3.7254 0.244199V1.40577C2.41247 1.52408 1.3836 2.6275 1.3836 3.97123ZM4.19415 0.239258V1.4058C5.42968 1.51732 6.41358 2.50125 6.52503 3.73682H7.75657C7.62591 1.84388 6.09626 0.335861 4.19415 0.239258ZM3.95959 6.07845C2.79579 6.07845 1.85235 5.13502 1.85235 3.97123C1.85235 2.80744 2.79579 1.86401 3.95959 1.86401C5.12336 1.86401 6.06681 2.80744 6.06681 3.97123C6.06681 5.13502 5.12336 6.07845 3.95959 6.07845ZM4.24377 4.80584V5.03493H3.77502V4.7942L3.75879 4.79093C3.66257 4.77096 3.56999 4.74282 3.48103 4.70651C3.39208 4.66839 3.31039 4.623 3.23595 4.57036L3.40206 4.24631C3.4184 4.26265 3.44745 4.28443 3.4892 4.31166C3.53096 4.33708 3.58179 4.3634 3.6417 4.39063C3.7016 4.41605 3.76696 4.43783 3.83776 4.45599C3.90856 4.47414 3.98027 4.48322 4.05288 4.48322C4.15455 4.48322 4.2317 4.46597 4.28435 4.43148C4.33699 4.39699 4.36332 4.34797 4.36332 4.28443C4.36332 4.22634 4.34244 4.18095 4.30068 4.14828C4.25893 4.1156 4.20084 4.08746 4.12641 4.06386C4.05198 4.03845 3.96393 4.01122 3.86227 3.98217C3.74064 3.94768 3.63897 3.90955 3.55728 3.8678C3.47559 3.82423 3.41477 3.76977 3.37483 3.70441C3.33489 3.63906 3.31492 3.55737 3.31492 3.45934C3.31492 3.32681 3.34579 3.21607 3.40751 3.12712C3.47105 3.03635 3.55637 2.96827 3.66348 2.92289C3.69934 2.90708 3.73652 2.89393 3.77502 2.88342V2.60669H4.24377V2.87455C4.25467 2.87687 4.26547 2.87936 4.27618 2.88204C4.35787 2.90201 4.43412 2.92833 4.50492 2.96101C4.57572 2.99369 4.63926 3.02909 4.69553 3.06721L4.52942 3.3722C4.51672 3.35949 4.49312 3.34224 4.45862 3.32046C4.42595 3.29867 4.3851 3.2778 4.33608 3.25783C4.28888 3.23786 4.23715 3.22061 4.18087 3.20609C4.12459 3.18975 4.06741 3.18158 4.00931 3.18158C3.90765 3.18158 3.8305 3.20064 3.77785 3.23876C3.72702 3.27689 3.7016 3.33044 3.7016 3.39943C3.7016 3.45207 3.71794 3.49383 3.75062 3.52469C3.7833 3.55555 3.83231 3.58187 3.89767 3.60366C3.96302 3.62544 4.04471 3.64904 4.14275 3.67446C4.26982 3.70532 4.37965 3.74344 4.47224 3.78883C4.56664 3.8324 4.63835 3.89049 4.68736 3.96311C4.7382 4.03391 4.76361 4.12831 4.76361 4.24631C4.76361 4.34979 4.74455 4.43874 4.70643 4.51317C4.6683 4.58579 4.61566 4.64479 4.54849 4.69017C4.48132 4.73556 4.40507 4.76914 4.31975 4.79093C4.29488 4.79675 4.26956 4.80172 4.24377 4.80584Z" fill="#7D7D7D"/>
</g>
<defs>
<clipPath id="clip0_3485_17871">
<rect width="8" height="8" fill="white"/>
</clipPath>
</defs>
</svg>
