<svg width="20" height="20" viewBox="0 0 20 20" fill="none" xmlns="http://www.w3.org/2000/svg">
<path fill-rule="evenodd" clip-rule="evenodd" d="M14.246 13.2597L19.0032 18.2074C19.4057 18.626 19.3924 19.2934 18.9741 19.6959C18.7773 19.8853 18.518 19.9895 18.2446 19.9895C17.9559 19.9895 17.6864 19.8748 17.486 19.6667L12.6927 14.6815C11.3317 15.638 9.73973 16.1418 8.0692 16.1418C3.61937 16.1418 -0.000976562 12.5215 -0.000976562 8.07164C-0.000976562 3.62182 3.61937 0.00146484 8.0692 0.00146484C12.519 0.00146484 16.1394 3.62182 16.1394 8.07164C16.1394 9.9762 15.4692 11.8057 14.246 13.2597ZM14.0335 8.07106C14.0335 4.78194 11.3577 2.10615 8.06862 2.10615C4.7795 2.10615 2.10371 4.78194 2.10371 8.07106C2.10371 11.3602 4.7795 14.036 8.06862 14.036C11.3577 14.036 14.0335 11.3602 14.0335 8.07106Z" fill="#1A64F0"/>
</svg>
