<svg width="64" height="64" viewBox="0 0 64 64" fill="none" xmlns="http://www.w3.org/2000/svg">
  <g clip-path="url(#clip0_258_1811)">
    <path d="M10.8545 26.8996C10.8545 25.2319 12.6241 24.1592 14.1026 24.9307L31.4803 33.9973C32.124 34.3331 32.8912 34.3331 33.5349 33.9973L50.9126 24.9307C52.3911 24.1592 54.1607 25.2319 54.1607 26.8996V40.5552C54.1607 41.1284 53.8468 41.6555 53.3428 41.9286C38.5 49.5005 25 50.0005 11.6724 41.9286C11.1684 41.6555 10.8545 41.1284 10.8545 40.5552L10.8545 26.8996Z" fill="url(#paint0_linear_258_1811)"/>
    <path d="M10.8545 45.595C10.8545 44.5461 11.9945 43.8946 12.8981 44.427Lnan nanL12.8981 44.427C24.9993 51.5556 40.0159 51.5556 52.1171 44.427Lnan nanL52.1171 44.427C53.0207 43.8946 54.1607 44.5461 54.1607 45.595V46.9854C54.1607 47.4781 53.9041 47.9352 53.4836 48.1918Lnan nanL53.4836 48.1918C40.6036 56.0501 24.4116 56.0501 11.5316 48.1917Lnan nanL11.5316 48.1917C11.1111 47.9352 10.8545 47.4781 10.8545 46.9854L10.8545 45.595Z" fill="url(#paint1_linear_258_1811)"/>
    <path d="M3.08154 27.1226C3.08154 26.816 3.33012 26.5674 3.63675 26.5674C3.94338 26.5674 4.19196 26.816 4.19196 27.1226V40.4476C4.19196 40.7542 3.94338 41.0028 3.63675 41.0028C3.33012 41.0028 3.08154 40.7542 3.08154 40.4476V27.1226Z" fill="url(#paint2_linear_258_1811)"/>
    <path d="M0.86084 45.9997C0.86084 44.4665 1.85514 43.2236 3.08167 43.2236H4.19209C5.41862 43.2236 6.41292 44.4665 6.41292 45.9997C6.41292 47.5328 5.41862 48.7757 4.19209 48.7757H3.08167C1.85514 48.7757 0.86084 47.5328 0.86084 45.9997Z" fill="url(#paint3_linear_258_1811)"/>
    <path d="M31.9117 5.78359C32.577 5.41871 33.3825 5.4187 34.0477 5.78357L61.924 21.0727C63.4159 21.8909 63.4712 24.0141 62.0239 24.9089L34.1475 42.143C33.4318 42.5854 32.5275 42.5854 31.8118 42.1429L3.937 24.9088C2.48978 24.0141 2.54506 21.891 4.03687 21.0727L31.9117 5.78359Z" fill="url(#paint4_linear_258_1811)"/>
  </g>
  <defs>
    <linearGradient id="paint0_linear_258_1811" x1="32.5076" y1="24.6758" x2="32.5076" y2="45.5734" gradientUnits="userSpaceOnUse">
      <stop offset="0.0286547" stop-color="#043B48"/>
      <stop offset="1" stop-color="#445BD3"/>
    </linearGradient>
    <linearGradient id="paint1_linear_258_1811" x1="32.5076" y1="44.2373" x2="32.5076" y2="53.1386" gradientUnits="userSpaceOnUse">
      <stop offset="0.0286547" stop-color="#043B48"/>
      <stop offset="1" stop-color="#445BD3"/>
    </linearGradient>
    <linearGradient id="paint2_linear_258_1811" x1="3.63675" y1="26.5674" x2="3.63675" y2="39.6148" gradientUnits="userSpaceOnUse">
      <stop offset="0.0286547" stop-color="#043B48"/>
      <stop offset="1" stop-color="#445BD3"/>
    </linearGradient>
    <linearGradient id="paint3_linear_258_1811" x1="3.63688" y1="43.2236" x2="3.63688" y2="48.2419" gradientUnits="userSpaceOnUse">
      <stop offset="0.0286547" stop-color="#043B48"/>
      <stop offset="1" stop-color="#445BD3"/>
    </linearGradient>
    <linearGradient id="paint4_linear_258_1811" x1="60.5534" y1="19.5729" x2="32.5165" y2="47.6098" gradientUnits="userSpaceOnUse">
      <stop offset="0.0286547" stop-color="#1AC7F0"/>
      <stop offset="1" stop-color="#445BD3"/>
    </linearGradient>
    <clipPath id="clip0_258_1811">
      <rect width="64" height="64" fill="white"/>
    </clipPath>
  </defs>
</svg>
