<svg width="88" height="88" viewBox="0 0 88 88" fill="none" xmlns="http://www.w3.org/2000/svg">
  <g clip-path="url(#clip0_22_15)">
    <path fill-rule="evenodd" clip-rule="evenodd" d="M71.4023 63.3312C81.2941 50.0197 80.2016 31.1184 68.1249 19.0416C54.847 5.76378 33.3196 5.76369 20.0416 19.0416C6.7637 32.3196 6.76378 53.847 20.0416 67.1249C32.1184 79.2016 51.0197 80.2941 64.3312 70.4022L73.0746 79.1457C75.0273 81.0984 78.1932 81.0982 80.1457 79.1457C82.0982 77.1932 82.0984 74.0273 80.1457 72.0746L71.4023 63.3312ZM61.0538 26.1127C70.4264 35.4853 70.4264 50.6812 61.0538 60.0538C51.6812 69.4264 36.4853 69.4264 27.1127 60.0538C17.7401 50.6812 17.7401 35.4853 27.1127 26.1127C36.4853 16.7401 51.6812 16.7401 61.0538 26.1127Z" fill="url(#paint0_linear_22_15)"/>
    <path d="M71.6604 77.7315L78.7315 70.6604L80.1457 72.0747C82.0983 74.0273 82.0983 77.1931 80.1457 79.1457V79.1457C78.1931 81.0983 75.0272 81.0983 73.0746 79.1457L71.6604 77.7315Z" fill="#42ADFF"/>
    <g clip-path="url(#clip1_22_15)">
      <path d="M52.7931 32.0094H35.2069L29 38.2654L44 55.9906L59 38.2654L52.7931 32.0094Z" fill="url(#paint1_linear_22_15)"/>
      <path d="M52.7931 32.0094L44 55.9906L59 38.2654L52.7931 32.0094Z" fill="url(#paint2_linear_22_15)"/>
      <path d="M35.2069 32.0094L37.501 38.2654H29L35.2069 32.0094Z" fill="#00AAF0"/>
      <path d="M44 32.0094L37.501 38.2654H50.499L44 32.0094Z" fill="#87DAFF"/>
      <path d="M50.499 38.2654H59L52.7931 32.0094L50.499 38.2654Z" fill="#A5E9FF"/>
      <path d="M29 38.2654H37.501L44 55.9906L29 38.2654Z" fill="url(#paint3_linear_22_15)"/>
    </g>
  </g>
  <defs>
    <linearGradient id="paint0_linear_22_15" x1="20.0416" y1="19.0416" x2="80.1457" y2="79.1457" gradientUnits="userSpaceOnUse">
      <stop stop-color="#2E76FF"/>
      <stop offset="1" stop-color="#1F4A9A"/>
    </linearGradient>
    <linearGradient id="paint1_linear_22_15" x1="44" y1="32.0094" x2="44" y2="55.9906" gradientUnits="userSpaceOnUse">
      <stop stop-color="#00BDF7"/>
      <stop offset="1" stop-color="#F1FCFF"/>
    </linearGradient>
    <linearGradient id="paint2_linear_22_15" x1="55.5" y1="35.5" x2="45.5" y2="55" gradientUnits="userSpaceOnUse">
      <stop stop-color="#87DAFF"/>
      <stop offset="1" stop-color="#058AEA"/>
    </linearGradient>
    <linearGradient id="paint3_linear_22_15" x1="33.5" y1="39" x2="43.5" y2="56" gradientUnits="userSpaceOnUse">
      <stop stop-color="#0096DC"/>
      <stop offset="1" stop-color="#ABE4FF"/>
    </linearGradient>
    <clipPath id="clip0_22_15">
      <rect width="88" height="88" fill="white"/>
    </clipPath>
    <clipPath id="clip1_22_15">
      <rect width="30" height="24" fill="white" transform="translate(29 32)"/>
    </clipPath>
  </defs>
</svg>
