<svg width="56" height="56" viewBox="0 0 56 56" fill="none" xmlns="http://www.w3.org/2000/svg">
  <path d="M23.8774 9.06828C23.8774 7.37372 25.1875 6 26.8036 6H27.0474C28.6635 6 29.9736 7.37372 29.9736 9.06828V13.5429H23.8774V12.4562V10.7622V9.06828Z" fill="#6C77CC"/>
  <path d="M34.8506 41.514C34.8506 46.2006 31.1661 49.9997 26.6209 49.9997C22.0757 49.9997 18.3911 46.2006 18.3911 41.514C18.3911 36.8275 22.0757 33.0283 26.6209 33.0283C31.1661 33.0283 34.8506 36.8275 34.8506 41.514Z" fill="#91A2FF"/>
  <path d="M11.6852 24.8572C11.6852 16.5256 18.2356 9.77148 26.3159 9.77148H27.5351C35.6154 9.77148 42.1658 16.5256 42.1658 24.8572V35.1308C42.1658 36.2247 42.4426 37.2996 42.969 38.2494L44.1323 40.3485C45.1213 42.1331 44.7803 44.386 43.3108 45.775L42.865 46.1963C42.4153 46.6214 41.8273 46.8572 41.2173 46.8572H12.6337C12.0236 46.8572 11.4357 46.6214 10.986 46.1963L10.5402 45.775C9.07069 44.386 8.72961 42.1331 9.71865 40.3485L10.882 38.2494C11.4083 37.2996 11.6852 36.2247 11.6852 35.1308V24.8572Z" fill="url(#paint0_linear_227_1422)"/>
  <path fill-rule="evenodd" clip-rule="evenodd" d="M17.3002 12.9727L22.4304 16.4271C27.8616 21.0253 26.6767 26.1999 26.9261 31.2521V46.8573H12.6337C12.0236 46.8573 11.4357 46.6191 10.986 46.1899L10.5402 45.7644C9.07069 44.3619 8.72961 42.0868 9.71865 40.2846L10.882 38.1649C11.4083 37.2058 11.6852 36.1203 11.6852 35.0157V24.6412C11.6852 19.923 14.0655 15.767 17.3002 12.9727Z" fill="url(#paint1_linear_227_1422)"/>
  <defs>
    <linearGradient id="paint0_linear_227_1422" x1="26.9255" y1="9.77148" x2="26.9255" y2="46.8572" gradientUnits="userSpaceOnUse">
      <stop stop-color="#4159D3"/>
      <stop offset="1" stop-color="#FFE0B0"/>
    </linearGradient>
    <linearGradient id="paint1_linear_227_1422" x1="17.736" y1="12.9116" x2="17.736" y2="43.123" gradientUnits="userSpaceOnUse">
      <stop stop-color="#667FFF"/>
      <stop offset="1" stop-color="#FFE0B0"/>
    </linearGradient>
  </defs>
</svg>
