<svg width="64" height="64" viewBox="0 0 64 64" fill="none" xmlns="http://www.w3.org/2000/svg">
  <path fill-rule="evenodd" clip-rule="evenodd" d="M15.3902 34.1641C15.3902 31.9549 17.1811 30.1641 19.3902 30.1641H59C61.2091 30.1641 63 31.9549 63 34.1641V54.6007C63 56.8098 61.2091 58.6007 59 58.6007H56.5662V63.7709L51.4192 58.6007H19.3902C17.1811 58.6007 15.3902 56.8098 15.3902 54.6007V34.1641Z" fill="url(#paint0_linear_258_1778)"/>
  <circle r="2.80057" transform="matrix(-1 0 0 1 48.9983 44.1668)" fill="white"/>
  <circle r="2.80057" transform="matrix(-1 0 0 1 39.1965 44.1668)" fill="white"/>
  <circle r="2.80057" transform="matrix(-1 0 0 1 29.3928 44.1668)" fill="white"/>
  <path fill-rule="evenodd" clip-rule="evenodd" d="M36.2195 4C36.2195 1.79086 34.4286 0 32.2195 0H6C3.79086 0 2 1.79086 2 3.99999V32.3356C2 34.5448 3.79086 36.3356 6 36.3356H10.2209V42.9421L16.7976 36.3356H32.2195C34.4287 36.3356 36.2195 34.5448 36.2195 32.3357V4Z" fill="url(#paint1_linear_258_1778)"/>
  <path d="M17.9574 21.7638V21.1782C17.9574 20.2556 18.0905 19.4837 18.3567 18.8627C18.6317 18.2417 18.9777 17.7138 19.3947 17.2791C19.8116 16.8444 20.2375 16.4407 20.6722 16.0681C21.2222 15.5979 21.7057 15.1144 22.1227 14.6176C22.5397 14.1208 22.7482 13.4687 22.7482 12.6614C22.7482 11.8452 22.4643 11.1576 21.8965 10.5987C21.3287 10.0398 20.5125 9.76032 19.4479 9.76032C18.2502 9.76032 17.3187 10.093 16.6533 10.7584C15.9968 11.4149 15.6685 12.2888 15.6685 13.38H13.4062C13.4062 12.2355 13.6547 11.2286 14.1515 10.3592C14.6572 9.48973 15.3625 8.81548 16.2674 8.33641C17.1723 7.84846 18.2325 7.60449 19.4479 7.60449C20.6633 7.60449 21.688 7.83072 22.5219 8.28318C23.3648 8.73564 24.0035 9.34779 24.4382 10.1196C24.873 10.8826 25.0903 11.7387 25.0903 12.688C25.0903 13.4598 24.9661 14.1163 24.7177 14.6575C24.4693 15.1898 24.1543 15.6556 23.7729 16.0548C23.3914 16.454 22.9966 16.8311 22.5885 17.186C22.1981 17.5231 21.8255 17.8735 21.4706 18.2373C21.1247 18.601 20.8408 19.0224 20.619 19.5015C20.406 19.9717 20.2996 20.5395 20.2996 21.2048V21.7638H17.9574ZM19.0753 26.9005C18.5607 26.9005 18.126 26.7186 17.7711 26.3549C17.4163 25.9911 17.2388 25.5697 17.2388 25.0907C17.2388 24.6116 17.4163 24.1857 17.7711 23.8131C18.126 23.4405 18.5607 23.2542 19.0753 23.2542C19.5987 23.2542 20.0379 23.4405 20.3927 23.8131C20.7565 24.1857 20.9383 24.6116 20.9383 25.0907C20.9383 25.5697 20.7565 25.9911 20.3927 26.3549C20.0379 26.7186 19.5987 26.9005 19.0753 26.9005Z" fill="#FEF4F4"/>
  <defs>
    <linearGradient id="paint0_linear_258_1778" x1="39.1951" y1="30.1641" x2="39.1951" y2="60.5395" gradientUnits="userSpaceOnUse">
      <stop offset="0.0286547" stop-color="#043B48"/>
      <stop offset="1" stop-color="#445BD3"/>
    </linearGradient>
    <linearGradient id="paint1_linear_258_1778" x1="32.4174" y1="0" x2="32.4174" y2="38.8131" gradientUnits="userSpaceOnUse">
      <stop offset="0.0286547" stop-color="#1AC7F0"/>
      <stop offset="1" stop-color="#445BD3"/>
    </linearGradient>
  </defs>
</svg>
