<svg width="160" height="160" viewBox="0 0 160 160" fill="none" xmlns="http://www.w3.org/2000/svg">
<g clip-path="url(#clip0_597_131055)">
<path fill-rule="evenodd" clip-rule="evenodd" d="M38.4766 85.4102C38.4766 79.8873 42.9537 75.4102 48.4766 75.4102H147.501C153.024 75.4102 157.501 79.8873 157.501 85.4102V136.502C157.501 142.024 153.024 146.502 147.501 146.502H141.417V159.427L128.549 146.502H48.4766C42.9537 146.502 38.4766 142.024 38.4766 136.502V85.4102Z" fill="url(#paint0_linear_597_131055)"/>
<circle r="7.00143" transform="matrix(-1 0 0 1 122.497 110.416)" fill="white"/>
<circle r="7.00143" transform="matrix(-1 0 0 1 97.9917 110.416)" fill="white"/>
<circle r="7.00143" transform="matrix(-1 0 0 1 73.4829 110.416)" fill="white"/>
<path fill-rule="evenodd" clip-rule="evenodd" d="M90.5488 10C90.5488 4.47715 86.0716 0 80.5488 0H15C9.47715 0 5 4.47715 5 10V80.8391C5 86.362 9.47715 90.8391 15 90.8391H25.5523V107.355L41.9941 90.8391H80.5488C86.0716 90.8391 90.5488 86.362 90.5488 80.8391V10Z" fill="url(#paint1_linear_597_131055)"/>
<path d="M44.8936 54.4089V52.9451C44.8936 50.6384 45.2263 48.7088 45.8917 47.1563C46.5792 45.6037 47.4442 44.2841 48.4867 43.1973C49.5291 42.1105 50.5937 41.1013 51.6805 40.1698C53.0556 38.9943 54.2644 37.7855 55.3068 36.5435C56.3492 35.3014 56.8704 33.6713 56.8704 31.653C56.8704 29.6125 56.1607 27.8936 54.7412 26.4963C53.3218 25.099 51.2813 24.4003 48.6197 24.4003C45.6255 24.4003 43.2967 25.232 41.6333 26.8955C39.992 28.5368 39.1714 30.7214 39.1714 33.4495H33.5156C33.5156 30.5883 34.1366 28.071 35.3787 25.8974C36.6429 23.7238 38.4062 22.0382 40.6685 20.8405C42.9307 19.6207 45.5812 19.0107 48.6197 19.0107C51.6583 19.0107 54.22 19.5763 56.3049 20.7075C58.4119 21.8386 60.0088 23.369 61.0956 25.2986C62.1824 27.206 62.7258 29.3463 62.7258 31.7195C62.7258 33.6491 62.4153 35.2904 61.7943 36.6433C61.1732 37.9741 60.3859 39.1385 59.4322 40.1365C58.4784 41.1346 57.4915 42.0772 56.4712 42.9644C55.4953 43.8072 54.5638 44.6833 53.6766 45.5927C52.8116 46.502 52.1019 47.5555 51.5474 48.7532C51.0151 49.9287 50.749 51.3482 50.749 53.0116V54.4089H44.8936ZM47.6882 67.2508C46.4018 67.2508 45.315 66.7961 44.4278 65.8867C43.5407 64.9774 43.0971 63.9239 43.0971 62.7262C43.0971 61.5285 43.5407 60.4639 44.4278 59.5324C45.315 58.6008 46.4018 58.1351 47.6882 58.1351C48.9968 58.1351 50.0947 58.6008 50.9818 59.5324C51.8912 60.4639 52.3459 61.5285 52.3459 62.7262C52.3459 63.9239 51.8912 64.9774 50.9818 65.8867C50.0947 66.7961 48.9968 67.2508 47.6882 67.2508Z" fill="#FEF4F4"/>
</g>
<defs>
<linearGradient id="paint0_linear_597_131055" x1="97.9888" y1="75.4102" x2="97.9888" y2="151.349" gradientUnits="userSpaceOnUse">
<stop offset="0.0286547" stop-color="#7169F4"/>
<stop offset="1" stop-color="#F6AE62"/>
</linearGradient>
<linearGradient id="paint1_linear_597_131055" x1="81.0434" y1="0" x2="81.0434" y2="97.0327" gradientUnits="userSpaceOnUse">
<stop offset="0.0286547" stop-color="#FFCF86"/>
<stop offset="1" stop-color="#94A0FF"/>
</linearGradient>
<clipPath id="clip0_597_131055">
<rect width="152.501" height="159.427" fill="white" transform="translate(5)"/>
</clipPath>
</defs>
</svg>
